M48
;Layer_Color=9474304
;FILE_FORMAT=4:4
METRIC
;TYPE=PLATED
T01F00S00C0.7112
T02F00S00C0.7840
T03F00S00C1.0000
T04F00S00C1.1000
T05F00S00C1.3200
T06F00S00C1.5000
T07F00S00C3.2000
%
T01
X00230000Y00270000
X00269776Y00392724
X00345954Y00425676
X00450000Y00510000
X00440000Y00600000
X00398815Y00612721
X00080000Y00760000
X00050000Y00880000
X00140000Y00850000
X00146004Y00826538
X00144765Y00794225
X00150000Y00700000
X00220000Y00760000
X00310000Y00780000
X00310000Y00830000
X00280000Y00850000
X00250000Y00880000
X00356745Y00722504
X00395000Y00725000
X00340850Y00690000
X00440000Y00670000
X00460000Y00780000
T02
X00180630Y00523800
Y00549200
Y00574600
Y00600000
Y00625400
Y00650800
X00259370
Y00625400
Y00600000
Y00574600
Y00549200
Y00523800
X00119370
Y00549200
Y00574600
Y00600000
Y00625400
Y00650800
X00040630
Y00625400
Y00600000
Y00574600
Y00549200
Y00523800
Y00676200
X00119370
X00180630
X00259370
T03
X00070000Y00115000
Y00165000
X00180000
Y00115000
X00290000
Y00165000
X00400000
Y00115000
X00430000Y00320000
X00455000
T04
X00109200Y00240000
X00134600
X00160000
X00185400
X00210800
X00236200
X00444600Y00409200
X00470000
Y00434600
Y00460000
X00444600
Y00434600
X00470000Y00609200
Y00634600
Y00660000
Y00685400
Y00710800
Y00736200
T05
X00190000Y00030000
X00215500
X00241000
X00349000
X00374500
X00400000
T06
X00057500Y00940000
Y00990000
X00082500Y00965000
X00132500Y00940000
Y00990000
X00207500
X00255000
Y00940000
X00207500
X00182500Y00965000
X00280000
X00330000Y00940000
Y00990000
X00405000
Y00940000
X00380000Y00965000
Y01090000
X00280000
X00182500
X00082500
T07
X00040000Y00220000
X00470000Y00040000
Y01060000
M30
