G04*
G04 #@! TF.GenerationSoftware,Altium Limited,Altium Designer,24.1.2 (44)*
G04*
G04 Layer_Physical_Order=2*
G04 Layer_Color=16711680*
%FSLAX44Y44*%
%MOMM*%
G71*
G04*
G04 #@! TF.SameCoordinates,0FEA824A-C204-488D-A695-D1978D76774C*
G04*
G04*
G04 #@! TF.FilePolarity,Positive*
G04*
G01*
G75*
%ADD32C,0.5000*%
%ADD33R,1.0000X1.2500*%
%ADD34R,1.2500X1.0000*%
%ADD38R,1.0700X0.7400*%
%ADD42C,2.5240*%
%ADD43C,5.0000*%
%ADD44C,1.9800*%
%ADD45R,1.9800X1.9800*%
%ADD46C,2.0000*%
G04:AMPARAMS|DCode=47|XSize=2mm|YSize=2mm|CornerRadius=0mm|HoleSize=0mm|Usage=FLASHONLY|Rotation=90.000|XOffset=0mm|YOffset=0mm|HoleType=Round|Shape=Octagon|*
%AMOCTAGOND47*
4,1,8,0.5000,1.0000,-0.5000,1.0000,-1.0000,0.5000,-1.0000,-0.5000,-0.5000,-1.0000,0.5000,-1.0000,1.0000,-0.5000,1.0000,0.5000,0.5000,1.0000,0.0*
%
%ADD47OCTAGOND47*%

%ADD48R,2.0000X2.0000*%
%ADD49R,1.8000X1.8000*%
%ADD50C,1.8000*%
%ADD51R,2.0000X2.0000*%
G04:AMPARAMS|DCode=52|XSize=2mm|YSize=2mm|CornerRadius=0mm|HoleSize=0mm|Usage=FLASHONLY|Rotation=0.000|XOffset=0mm|YOffset=0mm|HoleType=Round|Shape=Octagon|*
%AMOCTAGOND52*
4,1,8,1.0000,-0.5000,1.0000,0.5000,0.5000,1.0000,-0.5000,1.0000,-1.0000,0.5000,-1.0000,-0.5000,-0.5000,-1.0000,0.5000,-1.0000,1.0000,-0.5000,0.0*
%
%ADD52OCTAGOND52*%

G04:AMPARAMS|DCode=53|XSize=1.8mm|YSize=1.8mm|CornerRadius=0mm|HoleSize=0mm|Usage=FLASHONLY|Rotation=270.000|XOffset=0mm|YOffset=0mm|HoleType=Round|Shape=Octagon|*
%AMOCTAGOND53*
4,1,8,-0.4500,-0.9000,0.4500,-0.9000,0.9000,-0.4500,0.9000,0.4500,0.4500,0.9000,-0.4500,0.9000,-0.9000,0.4500,-0.9000,-0.4500,-0.4500,-0.9000,0.0*
%
%ADD53OCTAGOND53*%

%ADD54C,1.2700*%
%ADD55R,4.3000X2.0000*%
%ADD56R,1.6500X3.2500*%
%ADD57R,1.6500X0.9500*%
%ADD58R,1.1000X1.2500*%
%ADD59R,1.3000X0.6000*%
%ADD60R,0.6500X1.5250*%
%ADD61C,0.2540*%
G36*
X499146Y1104191D02*
X500867Y1103478D01*
X502345Y1102345D01*
X503478Y1100867D01*
X504191Y1099146D01*
X504417Y1097426D01*
X504392Y1097300D01*
Y12700D01*
X504417Y12574D01*
X504191Y10854D01*
X503478Y9133D01*
X502345Y7656D01*
X500867Y6522D01*
X499146Y5809D01*
X497426Y5583D01*
X497300Y5608D01*
X135231D01*
Y31392D01*
X147000D01*
X149146Y31819D01*
X150965Y33035D01*
X153965Y36035D01*
X155181Y37854D01*
X155608Y40000D01*
Y52000D01*
X159250D01*
Y54392D01*
X170000D01*
X171392Y54669D01*
X173664Y53395D01*
X174392Y52712D01*
Y50000D01*
X174819Y47854D01*
X176035Y46035D01*
X181913Y40156D01*
X179678Y37921D01*
X177979Y34979D01*
X177100Y31698D01*
Y28302D01*
X177979Y25021D01*
X179678Y22079D01*
X182079Y19677D01*
X185021Y17979D01*
X188302Y17100D01*
X191698D01*
X194979Y17979D01*
X197921Y19677D01*
X200323Y22079D01*
X201300Y23772D01*
X204667Y23884D01*
X205546Y22362D01*
X207862Y20045D01*
X210698Y18408D01*
X213862Y17560D01*
X214230D01*
Y30000D01*
X216770D01*
Y17560D01*
X217138D01*
X220302Y18408D01*
X223138Y20045D01*
X225100Y22007D01*
X226576Y21760D01*
X228100Y20944D01*
Y17100D01*
X253900D01*
Y24392D01*
X337342D01*
X338677Y22079D01*
X341079Y19677D01*
X344021Y17979D01*
X347302Y17100D01*
X350698D01*
X353979Y17979D01*
X356921Y19677D01*
X359323Y22079D01*
X360300Y23772D01*
X363667Y23884D01*
X364546Y22362D01*
X366862Y20045D01*
X369698Y18408D01*
X372862Y17560D01*
X373230D01*
Y30000D01*
X375770D01*
Y17560D01*
X376138D01*
X379302Y18408D01*
X382138Y20045D01*
X384100Y22007D01*
X385576Y21760D01*
X387100Y20944D01*
Y17100D01*
X412900D01*
Y42900D01*
X405608D01*
Y60750D01*
X408000D01*
Y79250D01*
X405608D01*
Y102000D01*
X406500D01*
X413000Y108500D01*
Y120069D01*
X433965Y141035D01*
X435181Y142854D01*
X435608Y145000D01*
Y235550D01*
X438350D01*
Y236642D01*
X452250D01*
X454396Y237069D01*
X456215Y238285D01*
X459930Y242000D01*
X469250D01*
Y258000D01*
X450750D01*
Y248680D01*
X449927Y247858D01*
X438350D01*
Y248950D01*
X421650D01*
Y235550D01*
X424392D01*
Y147323D01*
X405069Y128000D01*
X393500D01*
X387000Y121500D01*
Y120608D01*
X353368D01*
X325608Y148368D01*
Y655211D01*
X328608Y656616D01*
X329705Y655774D01*
X332259Y654716D01*
X334745Y654389D01*
X335000Y654338D01*
X378566D01*
Y650696D01*
X394566D01*
Y669196D01*
X378566D01*
Y665553D01*
X335608D01*
Y679047D01*
X338608Y680921D01*
X339619Y680650D01*
X342081D01*
X344459Y681287D01*
X346591Y682518D01*
X348332Y684259D01*
X348434Y684435D01*
X348471Y684443D01*
X350958Y684770D01*
X353512Y685828D01*
X355469Y687330D01*
X355708Y687489D01*
X380269Y712050D01*
X381484Y713869D01*
X381911Y716015D01*
Y729283D01*
X385330Y732702D01*
X387518Y730741D01*
X386287Y728609D01*
X385650Y726231D01*
Y723769D01*
X386287Y721391D01*
X387518Y719259D01*
X389259Y717518D01*
X391391Y716287D01*
X393769Y715650D01*
X396231D01*
X398609Y716287D01*
X400741Y717518D01*
X402482Y719259D01*
X403713Y721391D01*
X404350Y723769D01*
Y726231D01*
X403713Y728609D01*
X402482Y730741D01*
X400741Y732482D01*
X400608Y732559D01*
Y746002D01*
X401533D01*
Y767252D01*
X391833D01*
X389033Y767252D01*
X386033Y767252D01*
X376333D01*
Y767252D01*
X376133D01*
Y767252D01*
X363633D01*
Y767252D01*
X363433D01*
Y767252D01*
X350933D01*
Y746002D01*
X351137D01*
Y730063D01*
X351004Y729986D01*
X349263Y728245D01*
X349186Y728112D01*
X335000D01*
X334745Y728061D01*
X332259Y727734D01*
X329705Y726676D01*
X328608Y725834D01*
X325608Y727239D01*
Y752677D01*
X330400Y757469D01*
X332510Y759579D01*
X332518Y759592D01*
X332518Y759592D01*
X332669Y759817D01*
X334172Y761776D01*
X335230Y764330D01*
X335557Y766816D01*
X335608Y767071D01*
Y857929D01*
X335557Y858184D01*
X335230Y860670D01*
X334172Y863224D01*
X332645Y865214D01*
X332501Y865430D01*
X332501Y865430D01*
X332501Y865430D01*
X313965Y883965D01*
X312146Y885181D01*
X310000Y885608D01*
X257559D01*
X257482Y885741D01*
X255741Y887482D01*
X253609Y888713D01*
X251231Y889350D01*
X248769D01*
X246391Y888713D01*
X244259Y887482D01*
X242518Y885741D01*
X242441Y885608D01*
X57559D01*
X57482Y885741D01*
X55741Y887482D01*
X53609Y888713D01*
X51231Y889350D01*
X48769D01*
X46391Y888713D01*
X44259Y887482D01*
X42518Y885741D01*
X41287Y883609D01*
X40650Y881231D01*
Y878769D01*
X41287Y876391D01*
X42518Y874259D01*
X44259Y872518D01*
X46391Y871287D01*
X48769Y870650D01*
X51231D01*
X53609Y871287D01*
X55741Y872518D01*
X57482Y874259D01*
X57559Y874392D01*
X101650D01*
Y871050D01*
X118350D01*
Y874392D01*
X242441D01*
X242518Y874259D01*
X244259Y872518D01*
X246391Y871287D01*
X248769Y870650D01*
X251231D01*
X253609Y871287D01*
X255741Y872518D01*
X257482Y874259D01*
X257559Y874392D01*
X307677D01*
X324392Y857677D01*
Y767323D01*
X319600Y762531D01*
X318367Y761297D01*
X315367Y762537D01*
Y769976D01*
X315367D01*
X315956Y772733D01*
X317482Y774259D01*
X318713Y776391D01*
X319350Y778769D01*
Y781231D01*
X318713Y783609D01*
X317482Y785741D01*
X315741Y787482D01*
X315608Y787559D01*
Y790584D01*
X315557Y790839D01*
X315230Y793325D01*
X314172Y795879D01*
X312645Y797869D01*
X312501Y798084D01*
Y798084D01*
X312501Y798084D01*
X300706Y809879D01*
X298585Y812001D01*
X298585Y812001D01*
X298585Y812001D01*
X298369Y812145D01*
X296379Y813672D01*
X293825Y814730D01*
X291339Y815057D01*
X291084Y815108D01*
X280000Y815108D01*
Y815500D01*
X261000D01*
Y808172D01*
X259000Y806000D01*
X240000D01*
Y794000D01*
X241327D01*
X242570Y791000D01*
X237177Y785608D01*
X153613D01*
X152456Y788043D01*
X152318Y788608D01*
X153477Y790616D01*
X154115Y792994D01*
Y795456D01*
X153478Y797833D01*
X180036Y824392D01*
X302441D01*
X302518Y824259D01*
X304259Y822518D01*
X306391Y821287D01*
X308769Y820650D01*
X311231D01*
X313609Y821287D01*
X315741Y822518D01*
X317482Y824259D01*
X318713Y826391D01*
X319350Y828769D01*
Y831231D01*
X318713Y833609D01*
X317482Y835741D01*
X315741Y837482D01*
X313609Y838713D01*
X311231Y839350D01*
X308769D01*
X306391Y838713D01*
X304259Y837482D01*
X302518Y835741D01*
X302441Y835608D01*
X177714D01*
X175568Y835181D01*
X173748Y833965D01*
X144180Y804397D01*
X143631Y803575D01*
X143534D01*
X141156Y802938D01*
X139024Y801707D01*
X137283Y799966D01*
X136052Y797834D01*
X135415Y795456D01*
Y792994D01*
X136052Y790616D01*
X137211Y788608D01*
X137073Y788043D01*
X135916Y785608D01*
X115608D01*
Y835550D01*
X118350D01*
Y836642D01*
X125629D01*
X126035Y836035D01*
X127854Y834819D01*
X130000Y834392D01*
X132146Y834819D01*
X133965Y836035D01*
X138620Y840690D01*
X138769Y840650D01*
X141231D01*
X143609Y841287D01*
X145741Y842518D01*
X147482Y844259D01*
X148713Y846391D01*
X149350Y848769D01*
Y851231D01*
X148713Y853609D01*
X147482Y855741D01*
X145741Y857482D01*
X143609Y858713D01*
X141231Y859350D01*
X138769D01*
X136391Y858713D01*
X134259Y857482D01*
X132518Y855741D01*
X131287Y853609D01*
X130650Y851231D01*
Y848769D01*
X127788Y847858D01*
X118350D01*
Y848950D01*
X101650D01*
Y835550D01*
X104392D01*
Y782929D01*
X104819Y780783D01*
X106035Y778964D01*
X106998Y778000D01*
X105756Y775000D01*
X15608D01*
Y1047677D01*
X22323Y1054392D01*
X126892D01*
Y1004584D01*
X125101Y1003842D01*
X122543Y1002133D01*
X120367Y999957D01*
X118658Y997399D01*
X117480Y994556D01*
X116880Y991538D01*
Y988462D01*
X117480Y985444D01*
X118658Y982601D01*
X120367Y980043D01*
X122543Y977867D01*
X125101Y976158D01*
X127944Y974980D01*
X130962Y974380D01*
X134038D01*
X137056Y974980D01*
X139899Y976158D01*
X142457Y977867D01*
X144633Y980043D01*
X146342Y982601D01*
X147520Y985444D01*
X148120Y988462D01*
Y991538D01*
X147520Y994556D01*
X146342Y997399D01*
X144633Y999957D01*
X142457Y1002133D01*
X139899Y1003842D01*
X138108Y1004584D01*
Y1054392D01*
X317677D01*
X324392Y1047677D01*
Y1004584D01*
X322601Y1003842D01*
X320043Y1002133D01*
X317867Y999957D01*
X316158Y997399D01*
X314980Y994556D01*
X314380Y991538D01*
Y988462D01*
X314980Y985444D01*
X316158Y982601D01*
X317867Y980043D01*
X320043Y977867D01*
X322601Y976158D01*
X325444Y974980D01*
X328462Y974380D01*
X331538D01*
X334556Y974980D01*
X337399Y976158D01*
X339957Y977867D01*
X342133Y980043D01*
X343842Y982601D01*
X345020Y985444D01*
X345620Y988462D01*
Y991538D01*
X345020Y994556D01*
X343842Y997399D01*
X342133Y999957D01*
X339957Y1002133D01*
X337399Y1003842D01*
X335608Y1004584D01*
Y1050000D01*
X335181Y1052146D01*
X333965Y1053965D01*
X323965Y1063965D01*
X322146Y1065181D01*
X320000Y1065608D01*
X20000D01*
X17854Y1065181D01*
X16035Y1063965D01*
X8608Y1056538D01*
X5608Y1057781D01*
Y1097300D01*
X5583Y1097426D01*
X5809Y1099146D01*
X6522Y1100867D01*
X7656Y1102345D01*
X9133Y1103478D01*
X10854Y1104191D01*
X12574Y1104417D01*
X12700Y1104392D01*
X70719D01*
X70782Y1104314D01*
X71802Y1101392D01*
X70367Y1099957D01*
X68658Y1097399D01*
X67480Y1094556D01*
X66880Y1091538D01*
Y1088462D01*
X67480Y1085444D01*
X68658Y1082601D01*
X70367Y1080043D01*
X72543Y1077867D01*
X75101Y1076158D01*
X77944Y1074980D01*
X80962Y1074380D01*
X84038D01*
X87056Y1074980D01*
X89899Y1076158D01*
X92457Y1077867D01*
X94633Y1080043D01*
X96342Y1082601D01*
X97520Y1085444D01*
X98120Y1088462D01*
Y1091538D01*
X97520Y1094556D01*
X96342Y1097399D01*
X94633Y1099957D01*
X93198Y1101392D01*
X94218Y1104314D01*
X94281Y1104392D01*
X170719D01*
X170782Y1104314D01*
X171802Y1101392D01*
X170367Y1099957D01*
X168658Y1097399D01*
X167480Y1094556D01*
X166880Y1091538D01*
Y1088462D01*
X167480Y1085444D01*
X168658Y1082601D01*
X170367Y1080043D01*
X172543Y1077867D01*
X175101Y1076158D01*
X177944Y1074980D01*
X180962Y1074380D01*
X184038D01*
X187056Y1074980D01*
X189899Y1076158D01*
X192457Y1077867D01*
X194633Y1080043D01*
X196342Y1082601D01*
X197520Y1085444D01*
X198120Y1088462D01*
Y1091538D01*
X197520Y1094556D01*
X196342Y1097399D01*
X194633Y1099957D01*
X193198Y1101392D01*
X194218Y1104314D01*
X194281Y1104392D01*
X268219D01*
X268282Y1104314D01*
X269302Y1101392D01*
X267867Y1099957D01*
X266158Y1097399D01*
X264980Y1094556D01*
X264380Y1091538D01*
Y1088462D01*
X264980Y1085444D01*
X266158Y1082601D01*
X267867Y1080043D01*
X270043Y1077867D01*
X272601Y1076158D01*
X275444Y1074980D01*
X278462Y1074380D01*
X281538D01*
X284556Y1074980D01*
X287399Y1076158D01*
X289957Y1077867D01*
X292133Y1080043D01*
X293842Y1082601D01*
X295020Y1085444D01*
X295620Y1088462D01*
Y1091538D01*
X295020Y1094556D01*
X293842Y1097399D01*
X292133Y1099957D01*
X290698Y1101392D01*
X291718Y1104314D01*
X291781Y1104392D01*
X368219D01*
X368282Y1104314D01*
X369302Y1101392D01*
X367867Y1099957D01*
X366158Y1097399D01*
X364980Y1094556D01*
X364380Y1091538D01*
Y1088462D01*
X364980Y1085444D01*
X366158Y1082601D01*
X367867Y1080043D01*
X370043Y1077867D01*
X372601Y1076158D01*
X375444Y1074980D01*
X378462Y1074380D01*
X381538D01*
X384556Y1074980D01*
X387399Y1076158D01*
X389957Y1077867D01*
X392133Y1080043D01*
X393842Y1082601D01*
X395020Y1085444D01*
X395620Y1088462D01*
Y1091538D01*
X395020Y1094556D01*
X393842Y1097399D01*
X392133Y1099957D01*
X390698Y1101392D01*
X391718Y1104314D01*
X391781Y1104392D01*
X497300D01*
X497426Y1104417D01*
X499146Y1104191D01*
D02*
G37*
G36*
X290832Y803892D02*
X304372Y790352D01*
X304259Y787482D01*
X302518Y785741D01*
X301287Y783609D01*
X300712Y781461D01*
X299916Y780998D01*
X297650Y780281D01*
X286082Y791849D01*
X286081Y791849D01*
X286081Y791849D01*
X284956Y792974D01*
X284806Y793074D01*
X282724Y794672D01*
X280170Y795730D01*
X280000Y795752D01*
Y796500D01*
X261000D01*
X259000Y798672D01*
Y801328D01*
X261000Y803500D01*
X280000D01*
Y803892D01*
X290832Y803892D01*
D02*
G37*
G36*
X259000Y794000D02*
X261000Y791828D01*
Y784500D01*
X277569D01*
X278151Y783918D01*
X284298Y777772D01*
X283150Y775000D01*
X246673D01*
X245431Y778000D01*
X253465Y786035D01*
X254681Y787854D01*
X255108Y790000D01*
Y794000D01*
X259000D01*
D02*
G37*
G36*
X290000Y767126D02*
X287000Y765327D01*
X285255Y765557D01*
X285000Y765608D01*
X227979D01*
X227107Y766310D01*
X226615Y767000D01*
X228047Y770000D01*
X290000D01*
Y767126D01*
D02*
G37*
G36*
X214400Y767523D02*
X214428Y767000D01*
X212886Y765459D01*
X211716Y763431D01*
X211137Y761270D01*
X220000D01*
Y760000D01*
X221270D01*
Y751137D01*
X223431Y751716D01*
X225459Y752886D01*
X226965Y754392D01*
X284392D01*
Y730000D01*
X284819Y727854D01*
X286035Y726035D01*
X290000Y722069D01*
Y707126D01*
X287000Y705327D01*
X285255Y705557D01*
X285000Y705608D01*
X269250D01*
Y708000D01*
X250750D01*
X250750Y708000D01*
Y708000D01*
X248423Y709507D01*
X242468Y715462D01*
X242252Y715607D01*
X240263Y717133D01*
X237708Y718191D01*
X235667Y718460D01*
X235864Y721460D01*
X244040D01*
Y732730D01*
X220000D01*
X195960D01*
Y721569D01*
X195960Y721460D01*
X195696Y718569D01*
X145033D01*
X144778Y718519D01*
X142292Y718191D01*
X139737Y717133D01*
X137747Y715607D01*
X137532Y715462D01*
X131577Y709507D01*
X129250Y708000D01*
Y708000D01*
X129250Y708000D01*
X110750D01*
Y692000D01*
X113762D01*
Y686819D01*
X112002Y685802D01*
X109768Y683568D01*
X108188Y680832D01*
X107500Y678265D01*
X104500Y678660D01*
Y679000D01*
X67265D01*
X64178Y680278D01*
X59449Y681414D01*
X54701Y681788D01*
X54600Y681808D01*
X52630D01*
Y688200D01*
X28630D01*
Y664200D01*
X33840D01*
X34643Y661200D01*
X33262Y660402D01*
X31028Y658168D01*
X29448Y655432D01*
X28630Y652380D01*
Y649220D01*
X29448Y646168D01*
X31028Y643432D01*
X33262Y641198D01*
X35998Y639618D01*
X36756Y639415D01*
Y636309D01*
X36176Y636153D01*
X33544Y634634D01*
X31396Y632486D01*
X29876Y629854D01*
X29750Y629382D01*
X26750Y629777D01*
Y638000D01*
X18707D01*
X15670Y644908D01*
X15679Y644922D01*
X15679D01*
X15608Y645093D01*
Y770000D01*
X73540D01*
X74400Y767523D01*
X74428Y767000D01*
X72886Y765459D01*
X71716Y763431D01*
X71137Y761270D01*
X88863D01*
X88284Y763431D01*
X87114Y765459D01*
X85572Y767000D01*
X85600Y767523D01*
X86460Y770000D01*
X213540D01*
X214400Y767523D01*
D02*
G37*
G36*
X365918Y734060D02*
X370695Y729283D01*
Y718338D01*
X348215Y695858D01*
X346591Y697482D01*
X344459Y698713D01*
X342081Y699350D01*
X339619D01*
X338608Y699079D01*
X335608Y700953D01*
Y716896D01*
X349186D01*
X349263Y716763D01*
X351004Y715022D01*
X353136Y713791D01*
X355514Y713154D01*
X357976D01*
X360354Y713791D01*
X362486Y715022D01*
X364227Y716763D01*
X365458Y718895D01*
X366095Y721273D01*
Y723735D01*
X365458Y726113D01*
X364227Y728245D01*
X362486Y729986D01*
X362353Y730063D01*
Y733996D01*
X365353Y734906D01*
X365918Y734060D01*
D02*
G37*
G36*
X244583Y697486D02*
X244830Y697321D01*
X246776Y695828D01*
X249330Y694770D01*
X250750Y694583D01*
Y692000D01*
X253762D01*
Y686819D01*
X252002Y685802D01*
X249768Y683568D01*
X248188Y680832D01*
X247500Y678265D01*
X244500Y678660D01*
Y679000D01*
X207265D01*
X204178Y680278D01*
X199449Y681414D01*
X194701Y681788D01*
X194600Y681808D01*
X192630D01*
Y688200D01*
X168630D01*
Y664200D01*
X173840D01*
X174643Y661200D01*
X173262Y660402D01*
X171028Y658168D01*
X169448Y655432D01*
X168630Y652380D01*
Y649220D01*
X169448Y646168D01*
X171028Y643432D01*
X173262Y641198D01*
X175998Y639618D01*
X176756Y639415D01*
Y636309D01*
X176176Y636153D01*
X173544Y634634D01*
X171396Y632486D01*
X169876Y629854D01*
X169090Y626919D01*
Y626670D01*
X192170D01*
Y626919D01*
X191383Y629854D01*
X189864Y632486D01*
X187716Y634634D01*
X185084Y636153D01*
X184504Y636309D01*
Y639415D01*
X185262Y639618D01*
X187998Y641198D01*
X190232Y643432D01*
X191812Y646168D01*
X192630Y649220D01*
Y652380D01*
X191812Y655432D01*
X190232Y658168D01*
X187998Y660402D01*
X186617Y661200D01*
X187420Y664200D01*
X192630D01*
Y664200D01*
X195500Y663886D01*
Y653000D01*
X212408D01*
X214392Y650800D01*
Y579250D01*
X212000D01*
Y560750D01*
X212000D01*
X212000Y559250D01*
X212000D01*
Y540750D01*
X212000D01*
Y539250D01*
X212000D01*
Y520750D01*
X212000D01*
Y519250D01*
X212000D01*
Y500750D01*
X228000D01*
Y519250D01*
X228000D01*
Y520750D01*
X228000D01*
Y539250D01*
X228000D01*
Y540750D01*
X228000D01*
Y559250D01*
X228000D01*
X228000Y560750D01*
X228000D01*
Y579250D01*
X225608D01*
Y650800D01*
X227383Y652844D01*
X227528Y653000D01*
X244500D01*
Y673740D01*
X247500Y674135D01*
X248188Y671568D01*
X249768Y668832D01*
X252002Y666598D01*
X254655Y665066D01*
X254738Y664711D01*
Y662289D01*
X254655Y661934D01*
X252002Y660402D01*
X249768Y658168D01*
X248188Y655432D01*
X247370Y652380D01*
Y649220D01*
X248188Y646168D01*
X249768Y643432D01*
X252002Y641198D01*
X254738Y639618D01*
X255496Y639415D01*
Y636309D01*
X254916Y636153D01*
X252284Y634634D01*
X250136Y632486D01*
X248616Y629854D01*
X247830Y626919D01*
Y626670D01*
X270910D01*
Y626919D01*
X270124Y629854D01*
X268604Y632486D01*
X266456Y634634D01*
X263824Y636153D01*
X263244Y636309D01*
Y639415D01*
X264002Y639618D01*
X266738Y641198D01*
X268972Y643432D01*
X270552Y646168D01*
X271370Y649220D01*
Y652380D01*
X270552Y655432D01*
X268972Y658168D01*
X266738Y660402D01*
X264085Y661934D01*
X264002Y662289D01*
Y664711D01*
X264085Y665066D01*
X266738Y666598D01*
X268972Y668832D01*
X270552Y671568D01*
X271370Y674620D01*
Y677780D01*
X270552Y680832D01*
X268972Y683568D01*
X266738Y685802D01*
X264978Y686819D01*
Y692000D01*
X269250D01*
Y694392D01*
X284392D01*
Y410000D01*
X5608D01*
Y621136D01*
X8250Y622000D01*
Y622000D01*
X26488D01*
X26750Y622000D01*
X29655Y621771D01*
X29876Y620946D01*
X31396Y618314D01*
X31210Y617377D01*
X30051Y615417D01*
X26290D01*
Y617540D01*
X18770D01*
Y610000D01*
Y602460D01*
X26290D01*
Y602460D01*
X26508Y602529D01*
X28008Y601270D01*
X52170D01*
Y601519D01*
X51384Y604454D01*
X49864Y607086D01*
X47716Y609234D01*
X45084Y610754D01*
X43616Y611147D01*
Y614253D01*
X45084Y614646D01*
X47716Y616166D01*
X49864Y618314D01*
X51384Y620946D01*
X52170Y623881D01*
Y624130D01*
X40630D01*
Y626670D01*
X52170D01*
Y626919D01*
X51384Y629854D01*
X49864Y632486D01*
X47716Y634634D01*
X45084Y636153D01*
X44504Y636309D01*
Y639415D01*
X45262Y639618D01*
X47998Y641198D01*
X50232Y643432D01*
X51812Y646168D01*
X52630Y649220D01*
Y652380D01*
X51812Y655432D01*
X50232Y658168D01*
X47998Y660402D01*
X46617Y661200D01*
X47420Y664200D01*
X52630D01*
Y664200D01*
X55500Y663886D01*
Y653000D01*
X72408D01*
X74392Y650800D01*
Y579250D01*
X72000D01*
Y560750D01*
X72000D01*
X72000Y559250D01*
X72000D01*
Y540750D01*
X72000D01*
Y539250D01*
X72000D01*
Y520750D01*
X72000D01*
X72000Y519250D01*
X72000D01*
Y500750D01*
X88000D01*
Y519250D01*
X88000D01*
X88000Y520750D01*
X88000D01*
Y539250D01*
X88000D01*
Y540750D01*
X88000D01*
Y559250D01*
X88000D01*
X88000Y560750D01*
X88000D01*
Y579250D01*
X85608D01*
Y650800D01*
X87383Y652844D01*
X87528Y653000D01*
X104500D01*
Y673740D01*
X107500Y674135D01*
X108188Y671568D01*
X109768Y668832D01*
X112002Y666598D01*
X114655Y665066D01*
X114738Y664711D01*
Y662289D01*
X114655Y661934D01*
X112002Y660402D01*
X109768Y658168D01*
X108188Y655432D01*
X107370Y652380D01*
Y649220D01*
X108188Y646168D01*
X109768Y643432D01*
X112002Y641198D01*
X114738Y639618D01*
X115496Y639415D01*
Y636309D01*
X114916Y636153D01*
X112284Y634634D01*
X110136Y632486D01*
X108616Y629854D01*
X107830Y626919D01*
Y626670D01*
X130910D01*
Y626919D01*
X130124Y629854D01*
X128604Y632486D01*
X126456Y634634D01*
X123824Y636153D01*
X123244Y636309D01*
Y639415D01*
X124002Y639618D01*
X126738Y641198D01*
X128972Y643432D01*
X130552Y646168D01*
X131370Y649220D01*
Y652380D01*
X130552Y655432D01*
X128972Y658168D01*
X126738Y660402D01*
X124085Y661934D01*
X124002Y662289D01*
Y664711D01*
X124085Y665066D01*
X126738Y666598D01*
X128972Y668832D01*
X130552Y671568D01*
X131370Y674620D01*
Y677780D01*
X130552Y680832D01*
X128972Y683568D01*
X126738Y685802D01*
X124978Y686819D01*
Y692000D01*
X129250D01*
Y694583D01*
X130670Y694770D01*
X133224Y695828D01*
X135183Y697331D01*
X135408Y697482D01*
X135408Y697482D01*
X135421Y697490D01*
X138110Y700180D01*
X141110Y698937D01*
Y698830D01*
X141716Y696569D01*
X142886Y694541D01*
X144541Y692886D01*
X146569Y691716D01*
X148730Y691137D01*
Y700000D01*
X150000D01*
Y701270D01*
X158863D01*
X158284Y703431D01*
X157752Y704354D01*
X159104Y707162D01*
X159329Y707354D01*
X234715D01*
X244583Y697486D01*
D02*
G37*
G36*
X284392Y202323D02*
X282069Y200000D01*
X277991D01*
X275608Y202929D01*
Y267071D01*
Y307000D01*
X279250D01*
Y323000D01*
X260750D01*
Y307000D01*
X264392D01*
Y275608D01*
X237559D01*
X237482Y275741D01*
X235741Y277482D01*
X233609Y278713D01*
X231231Y279350D01*
X228769D01*
X226391Y278713D01*
X224259Y277482D01*
X222518Y275741D01*
X221287Y273609D01*
X220650Y271231D01*
Y268769D01*
X221287Y266391D01*
X222518Y264259D01*
X224259Y262518D01*
X226391Y261287D01*
X228769Y260650D01*
X231231D01*
X233609Y261287D01*
X235741Y262518D01*
X237482Y264259D01*
X237559Y264392D01*
X264392D01*
Y205608D01*
X142782D01*
X142528Y205557D01*
X140041Y205230D01*
X137487Y204172D01*
X135528Y202669D01*
X135303Y202518D01*
X135303Y202518D01*
X135291Y202510D01*
X132781Y200000D01*
X130000D01*
Y197219D01*
X69600Y136819D01*
X67490Y134709D01*
X67482Y134697D01*
X67482Y134697D01*
X67331Y134472D01*
X65828Y132513D01*
X64770Y129959D01*
X64512Y128000D01*
X63500D01*
X57000Y121500D01*
Y108500D01*
X63500Y102000D01*
X64392D01*
Y70000D01*
X64819Y67854D01*
X66035Y66035D01*
X76035Y56035D01*
X77854Y54819D01*
X80000Y54392D01*
X90250D01*
Y52250D01*
X112750D01*
Y54392D01*
X120750D01*
Y52000D01*
X130000D01*
Y42608D01*
X112750D01*
Y44750D01*
X90250D01*
Y29250D01*
X112750D01*
Y31392D01*
X130000D01*
Y5608D01*
X12700D01*
X12574Y5583D01*
X10854Y5809D01*
X9133Y6522D01*
X7656Y7656D01*
X6522Y9133D01*
X5809Y10854D01*
X5583Y12574D01*
X5608Y12700D01*
Y290000D01*
X60000D01*
Y404777D01*
X267042D01*
X267437Y401777D01*
X266167Y401436D01*
X264035Y400205D01*
X262294Y398465D01*
X261063Y396333D01*
X260426Y393955D01*
Y391493D01*
X261063Y389115D01*
X262294Y386983D01*
X264035Y385242D01*
X264392Y385036D01*
Y343000D01*
X260750D01*
Y327000D01*
X279250D01*
Y343000D01*
X275608D01*
Y385332D01*
X277258Y386983D01*
X278489Y389115D01*
X279126Y391493D01*
Y393955D01*
X278489Y396333D01*
X277258Y398465D01*
X275517Y400205D01*
X273385Y401436D01*
X272115Y401777D01*
X272511Y404777D01*
X284392D01*
Y202323D01*
D02*
G37*
G36*
X294392Y192219D02*
Y179911D01*
X291651Y177540D01*
X291270D01*
Y165000D01*
Y152460D01*
X291651D01*
X294840Y153315D01*
X297700Y154965D01*
X300035Y157300D01*
X301259Y159421D01*
X304259Y158617D01*
Y142204D01*
X304310Y141949D01*
X304637Y139463D01*
X305695Y136909D01*
X307193Y134957D01*
X307355Y134714D01*
X354392Y87677D01*
Y78790D01*
X352460D01*
Y71270D01*
X360000D01*
Y70000D01*
X361270D01*
Y61210D01*
X367540D01*
X368892Y58770D01*
Y41127D01*
X366862Y39954D01*
X364546Y37638D01*
X363667Y36116D01*
X360300Y36228D01*
X359323Y37921D01*
X356921Y40322D01*
X353979Y42021D01*
X352804Y42336D01*
Y42804D01*
X352377Y44950D01*
X351162Y46769D01*
X345608Y52323D01*
Y60750D01*
X348000D01*
Y79250D01*
X332000D01*
Y73238D01*
X331892Y72696D01*
X332000Y72154D01*
Y60750D01*
X334392D01*
Y50000D01*
X334819Y47854D01*
X336035Y46035D01*
X339430Y42639D01*
X339398Y38641D01*
X338677Y37921D01*
X337342Y35608D01*
X295608D01*
Y102000D01*
X296500D01*
X303000Y108500D01*
Y121500D01*
X296500Y128000D01*
X283500D01*
X281715Y126215D01*
X275608Y132323D01*
Y159134D01*
X276695Y159546D01*
X278608Y159652D01*
X279965Y157300D01*
X282300Y154965D01*
X285160Y153315D01*
X288349Y152460D01*
X288730D01*
Y165000D01*
Y177540D01*
X288349D01*
X285160Y176685D01*
X282300Y175035D01*
X279965Y172700D01*
X278608Y170348D01*
X276695Y170454D01*
X275608Y170865D01*
Y177677D01*
X291392Y193462D01*
X294392Y192219D01*
D02*
G37*
G36*
X130000Y177438D02*
Y87540D01*
X121210D01*
Y81270D01*
X130000D01*
Y78730D01*
X121210D01*
Y72460D01*
X130000D01*
Y68000D01*
X120750D01*
Y65608D01*
X112750D01*
Y67750D01*
X90250D01*
Y65608D01*
X82323D01*
X75608Y72323D01*
Y102000D01*
X76500D01*
X83000Y108500D01*
Y121500D01*
X76571Y127929D01*
X127228Y178587D01*
X130000Y177438D01*
D02*
G37*
G36*
X352861Y109443D02*
X353116Y109392D01*
X387000D01*
Y108500D01*
X393500Y102000D01*
X394392D01*
Y79250D01*
X392000D01*
Y60750D01*
X394392D01*
Y42900D01*
X387100D01*
Y39056D01*
X385576Y38239D01*
X384100Y37993D01*
X382138Y39954D01*
X380108Y41127D01*
Y60998D01*
X380320Y61210D01*
X387540D01*
Y68730D01*
X380000D01*
Y70000D01*
X378730D01*
Y78790D01*
X372460D01*
Y75608D01*
X367540D01*
Y78790D01*
X365608D01*
Y90000D01*
X365181Y92146D01*
X363965Y93965D01*
X363965Y93965D01*
X351309Y106621D01*
X352710Y109463D01*
X352861Y109443D01*
D02*
G37*
G36*
X274298Y192228D02*
X266035Y183965D01*
X264819Y182146D01*
X264392Y180000D01*
Y132071D01*
X264443Y131816D01*
X264770Y129330D01*
X265828Y126776D01*
X267331Y124817D01*
X267490Y124579D01*
X277000Y115070D01*
Y108500D01*
X283500Y102000D01*
X284392D01*
Y35608D01*
X253900D01*
Y42900D01*
X246608D01*
Y60750D01*
X248000D01*
Y73208D01*
X248108Y73750D01*
X248000Y74292D01*
Y79250D01*
X243042D01*
X242500Y79358D01*
X241958Y79250D01*
X232000D01*
Y60750D01*
X235392D01*
Y42900D01*
X228100D01*
Y39056D01*
X226576Y38239D01*
X225100Y37993D01*
X223138Y39954D01*
X221108Y41127D01*
Y61210D01*
X227540D01*
Y68730D01*
X220000D01*
Y70000D01*
X218730D01*
Y78790D01*
X212460D01*
Y75608D01*
X207540D01*
Y78790D01*
X201270D01*
Y70000D01*
Y61210D01*
X207540D01*
X209892Y59646D01*
Y41127D01*
X207862Y39954D01*
X205546Y37638D01*
X204667Y36116D01*
X201300Y36228D01*
X200323Y37921D01*
X197921Y40322D01*
X195235Y41873D01*
X195181Y42146D01*
X193965Y43965D01*
X185608Y52323D01*
Y60750D01*
X188000D01*
Y79250D01*
X185608D01*
Y102000D01*
X186500D01*
X193000Y108500D01*
Y121500D01*
X186500Y128000D01*
X173500D01*
X167000Y121500D01*
Y108500D01*
X173500Y102000D01*
X174392D01*
Y79250D01*
X172000D01*
Y69931D01*
X167677Y65608D01*
X159250D01*
Y68000D01*
X140750D01*
Y68000D01*
X139250Y68000D01*
Y68000D01*
X135231D01*
Y72410D01*
X138231Y72460D01*
X141210Y72460D01*
X141790Y72460D01*
X148730D01*
Y80000D01*
Y87540D01*
X141790D01*
X138790Y87540D01*
X138231Y87540D01*
X135231Y87590D01*
Y186589D01*
X143034Y194392D01*
X267071D01*
X269217Y194819D01*
X269488Y195000D01*
X273150D01*
X274298Y192228D01*
D02*
G37*
%LPC*%
G36*
X472168Y1087540D02*
X471270D01*
Y1061270D01*
X497540D01*
Y1062167D01*
X496862Y1066449D01*
X495522Y1070572D01*
X493554Y1074434D01*
X491006Y1077941D01*
X487941Y1081006D01*
X484434Y1083554D01*
X480572Y1085522D01*
X476449Y1086862D01*
X472168Y1087540D01*
D02*
G37*
G36*
X468730D02*
X467832D01*
X463551Y1086862D01*
X459428Y1085522D01*
X455566Y1083554D01*
X452059Y1081006D01*
X448994Y1077941D01*
X446446Y1074434D01*
X444478Y1070572D01*
X443138Y1066449D01*
X442460Y1062167D01*
Y1061270D01*
X468730D01*
Y1087540D01*
D02*
G37*
G36*
X216290Y1047540D02*
X208770D01*
Y1041270D01*
X216290D01*
Y1047540D01*
D02*
G37*
G36*
X191290D02*
X183770D01*
Y1041270D01*
X191290D01*
Y1047540D01*
D02*
G37*
G36*
X413790D02*
X406270D01*
Y1041270D01*
X413790D01*
Y1047540D01*
D02*
G37*
G36*
X288790D02*
X281270D01*
Y1041270D01*
X288790D01*
Y1047540D01*
D02*
G37*
G36*
X263790D02*
X256270D01*
Y1041270D01*
X263790D01*
Y1047540D01*
D02*
G37*
G36*
X388790D02*
X381270D01*
Y1041270D01*
X388790D01*
Y1047540D01*
D02*
G37*
G36*
X91290D02*
X83770D01*
Y1041270D01*
X91290D01*
Y1047540D01*
D02*
G37*
G36*
X66290D02*
X58770D01*
Y1041270D01*
X66290D01*
Y1047540D01*
D02*
G37*
G36*
X403730D02*
X396210D01*
Y1041270D01*
X403730D01*
Y1047540D01*
D02*
G37*
G36*
X278730D02*
X271210D01*
Y1041270D01*
X278730D01*
Y1047540D01*
D02*
G37*
G36*
X253730D02*
X246210D01*
Y1041270D01*
X253730D01*
Y1047540D01*
D02*
G37*
G36*
X56230D02*
X48710D01*
Y1041270D01*
X56230D01*
Y1047540D01*
D02*
G37*
G36*
X378730D02*
X371210D01*
Y1041270D01*
X378730D01*
Y1047540D01*
D02*
G37*
G36*
X81230D02*
X73710D01*
Y1041270D01*
X81230D01*
Y1047540D01*
D02*
G37*
G36*
X206230D02*
X198710D01*
Y1041270D01*
X206230D01*
Y1047540D01*
D02*
G37*
G36*
X181230D02*
X173710D01*
Y1041270D01*
X181230D01*
Y1047540D01*
D02*
G37*
G36*
X413790Y1038730D02*
X406270D01*
Y1032460D01*
X413790D01*
Y1038730D01*
D02*
G37*
G36*
X403730D02*
X396210D01*
Y1032460D01*
X403730D01*
Y1038730D01*
D02*
G37*
G36*
X388790D02*
X381270D01*
Y1032460D01*
X388790D01*
Y1038730D01*
D02*
G37*
G36*
X378730D02*
X371210D01*
Y1032460D01*
X378730D01*
Y1038730D01*
D02*
G37*
G36*
X288790D02*
X281270D01*
Y1032460D01*
X288790D01*
Y1038730D01*
D02*
G37*
G36*
X278730D02*
X271210D01*
Y1032460D01*
X278730D01*
Y1038730D01*
D02*
G37*
G36*
X263790D02*
X256270D01*
Y1032460D01*
X263790D01*
Y1038730D01*
D02*
G37*
G36*
X253730D02*
X246210D01*
Y1032460D01*
X253730D01*
Y1038730D01*
D02*
G37*
G36*
X216290D02*
X208770D01*
Y1032460D01*
X216290D01*
Y1038730D01*
D02*
G37*
G36*
X206230D02*
X198710D01*
Y1032460D01*
X206230D01*
Y1038730D01*
D02*
G37*
G36*
X191290D02*
X183770D01*
Y1032460D01*
X191290D01*
Y1038730D01*
D02*
G37*
G36*
X181230D02*
X173710D01*
Y1032460D01*
X181230D01*
Y1038730D01*
D02*
G37*
G36*
X91290D02*
X83770D01*
Y1032460D01*
X91290D01*
Y1038730D01*
D02*
G37*
G36*
X81230D02*
X73710D01*
Y1032460D01*
X81230D01*
Y1038730D01*
D02*
G37*
G36*
X66290D02*
X58770D01*
Y1032460D01*
X66290D01*
Y1038730D01*
D02*
G37*
G36*
X56230D02*
X48710D01*
Y1032460D01*
X56230D01*
Y1038730D01*
D02*
G37*
G36*
X497540Y1058730D02*
X471270D01*
Y1032460D01*
X472168D01*
X476449Y1033138D01*
X480572Y1034478D01*
X484434Y1036446D01*
X487941Y1038994D01*
X491006Y1042059D01*
X493554Y1045566D01*
X495522Y1049428D01*
X496862Y1053551D01*
X497540Y1057832D01*
Y1058730D01*
D02*
G37*
G36*
X468730D02*
X442460D01*
Y1057832D01*
X443138Y1053551D01*
X444478Y1049428D01*
X446446Y1045566D01*
X448994Y1042059D01*
X452059Y1038994D01*
X455566Y1036446D01*
X459428Y1034478D01*
X463551Y1033138D01*
X467832Y1032460D01*
X468730D01*
Y1058730D01*
D02*
G37*
G36*
X289250Y1028000D02*
X270750D01*
Y1012000D01*
X289250D01*
Y1028000D01*
D02*
G37*
G36*
X414250D02*
X395750D01*
Y1012000D01*
X399392D01*
Y1004584D01*
X397601Y1003842D01*
X395043Y1002133D01*
X392867Y999957D01*
X391158Y997399D01*
X389980Y994556D01*
X389380Y991538D01*
Y988462D01*
X389980Y985444D01*
X391158Y982601D01*
X392867Y980043D01*
X395043Y977867D01*
X397601Y976158D01*
X400444Y974980D01*
X403462Y974380D01*
X406538D01*
X409556Y974980D01*
X412399Y976158D01*
X414957Y977867D01*
X417133Y980043D01*
X418842Y982601D01*
X420020Y985444D01*
X420620Y988462D01*
Y991538D01*
X420020Y994556D01*
X418842Y997399D01*
X417133Y999957D01*
X414957Y1002133D01*
X412399Y1003842D01*
X410608Y1004584D01*
Y1012000D01*
X414250D01*
Y1028000D01*
D02*
G37*
G36*
X264250D02*
X245750D01*
Y1023539D01*
X244819Y1022146D01*
X244392Y1020000D01*
X244819Y1017854D01*
X245750Y1016461D01*
Y1012000D01*
X249392D01*
Y1004584D01*
X247601Y1003842D01*
X245043Y1002133D01*
X242867Y999957D01*
X241158Y997399D01*
X239980Y994556D01*
X239380Y991538D01*
Y988462D01*
X239980Y985444D01*
X241158Y982601D01*
X242867Y980043D01*
X245043Y977867D01*
X247601Y976158D01*
X250444Y974980D01*
X253462Y974380D01*
X256538D01*
X259556Y974980D01*
X262399Y976158D01*
X264957Y977867D01*
X267133Y980043D01*
X268842Y982601D01*
X270020Y985444D01*
X270620Y988462D01*
Y991538D01*
X270020Y994556D01*
X268842Y997399D01*
X267133Y999957D01*
X264957Y1002133D01*
X262399Y1003842D01*
X260608Y1004584D01*
Y1012000D01*
X264250D01*
Y1028000D01*
D02*
G37*
G36*
X216750D02*
X198250D01*
Y1012000D01*
X201892D01*
Y1004584D01*
X200101Y1003842D01*
X197543Y1002133D01*
X195367Y999957D01*
X193658Y997399D01*
X192480Y994556D01*
X191880Y991538D01*
Y988462D01*
X192480Y985444D01*
X193658Y982601D01*
X195367Y980043D01*
X197543Y977867D01*
X200101Y976158D01*
X202944Y974980D01*
X205962Y974380D01*
X209038D01*
X212056Y974980D01*
X214899Y976158D01*
X217457Y977867D01*
X219633Y980043D01*
X221342Y982601D01*
X222520Y985444D01*
X223120Y988462D01*
Y991538D01*
X222520Y994556D01*
X221342Y997399D01*
X219633Y999957D01*
X217457Y1002133D01*
X214899Y1003842D01*
X213108Y1004584D01*
Y1012000D01*
X216750D01*
Y1028000D01*
D02*
G37*
G36*
X66750D02*
X48250D01*
Y1012000D01*
X51892D01*
Y1004584D01*
X50101Y1003842D01*
X47543Y1002133D01*
X45367Y999957D01*
X43658Y997399D01*
X42480Y994556D01*
X41880Y991538D01*
Y988462D01*
X42480Y985444D01*
X43658Y982601D01*
X45367Y980043D01*
X47543Y977867D01*
X50101Y976158D01*
X52944Y974980D01*
X55962Y974380D01*
X59038D01*
X62056Y974980D01*
X64899Y976158D01*
X67457Y977867D01*
X69633Y980043D01*
X71342Y982601D01*
X72520Y985444D01*
X73120Y988462D01*
Y991538D01*
X72520Y994556D01*
X71342Y997399D01*
X69633Y999957D01*
X67457Y1002133D01*
X64899Y1003842D01*
X63108Y1004584D01*
Y1012000D01*
X66750D01*
Y1016958D01*
X66858Y1017500D01*
X66750Y1018042D01*
Y1028000D01*
D02*
G37*
G36*
X281538Y980620D02*
X278462D01*
X275444Y980020D01*
X272601Y978842D01*
X270043Y977133D01*
X267867Y974957D01*
X266158Y972399D01*
X264980Y969556D01*
X264588Y967585D01*
X261594Y966336D01*
X260078Y967852D01*
X258259Y969068D01*
X256113Y969495D01*
X231387D01*
X229241Y969068D01*
X227422Y967852D01*
X213847Y954278D01*
X212056Y955020D01*
X209038Y955620D01*
X205962D01*
X202944Y955020D01*
X200101Y953842D01*
X197543Y952133D01*
X195367Y949957D01*
X193658Y947399D01*
X192480Y944556D01*
X192192Y943108D01*
X181750D01*
Y945500D01*
X163250D01*
Y929500D01*
X181750D01*
Y931892D01*
X194131D01*
X195367Y930043D01*
X197543Y927867D01*
X200101Y926158D01*
X202944Y924980D01*
X205962Y924380D01*
X209038D01*
X212056Y924980D01*
X214899Y926158D01*
X217457Y927867D01*
X219633Y930043D01*
X221342Y932601D01*
X222520Y935444D01*
X223120Y938462D01*
Y941538D01*
X222520Y944556D01*
X221778Y946347D01*
X233710Y958279D01*
X251453D01*
X251748Y955279D01*
X250444Y955020D01*
X247601Y953842D01*
X245043Y952133D01*
X242867Y949957D01*
X241158Y947399D01*
X239980Y944556D01*
X239380Y941538D01*
Y938462D01*
X239980Y935444D01*
X241158Y932601D01*
X242867Y930043D01*
X245043Y927867D01*
X247601Y926158D01*
X249392Y925416D01*
Y915608D01*
X181750D01*
Y925500D01*
X163250D01*
Y915608D01*
X89823D01*
X71778Y933653D01*
X72520Y935444D01*
X73120Y938462D01*
Y941538D01*
X72520Y944556D01*
X71342Y947399D01*
X69633Y949957D01*
X67457Y952133D01*
X64899Y953842D01*
X62056Y955020D01*
X59038Y955620D01*
X55962D01*
X52944Y955020D01*
X50101Y953842D01*
X47543Y952133D01*
X45367Y949957D01*
X43658Y947399D01*
X42480Y944556D01*
X41880Y941538D01*
Y938462D01*
X42480Y935444D01*
X43658Y932601D01*
X45367Y930043D01*
X47543Y927867D01*
X50101Y926158D01*
X52944Y924980D01*
X55962Y924380D01*
X59038D01*
X62056Y924980D01*
X63847Y925722D01*
X83535Y906035D01*
X85354Y904819D01*
X87500Y904392D01*
X344392D01*
Y882929D01*
X344819Y880783D01*
X346035Y878964D01*
X348964Y876035D01*
X350783Y874819D01*
X352929Y874392D01*
X360750D01*
Y872000D01*
X379250D01*
Y888000D01*
X360750D01*
Y885608D01*
X355608D01*
Y904392D01*
X362000D01*
Y900750D01*
X378000D01*
Y919250D01*
X362000D01*
Y915608D01*
X260608D01*
Y925416D01*
X262399Y926158D01*
X264957Y927867D01*
X267133Y930043D01*
X268842Y932601D01*
X270020Y935444D01*
X270412Y937415D01*
X273406Y938664D01*
X276035Y936035D01*
X277854Y934819D01*
X280000Y934392D01*
X293549D01*
X295695Y934819D01*
X297514Y936035D01*
X320513Y959034D01*
X343036D01*
X366035Y936035D01*
X367854Y934819D01*
X370000Y934392D01*
X390416D01*
X391158Y932601D01*
X392867Y930043D01*
X395043Y927867D01*
X397601Y926158D01*
X400351Y925019D01*
Y920817D01*
X398000Y919250D01*
X382000D01*
Y900750D01*
X398000D01*
X400351Y899183D01*
Y887142D01*
X396247D01*
Y871142D01*
X401835D01*
X403804Y870750D01*
X405774Y871142D01*
X414747D01*
Y887142D01*
X411566D01*
Y925813D01*
X412399Y926158D01*
X414957Y927867D01*
X417133Y930043D01*
X418842Y932601D01*
X420020Y935444D01*
X420620Y938462D01*
Y941538D01*
X420020Y944556D01*
X418842Y947399D01*
X417133Y949957D01*
X414957Y952133D01*
X412399Y953842D01*
X409556Y955020D01*
X406538Y955620D01*
X403462D01*
X400444Y955020D01*
X397601Y953842D01*
X395043Y952133D01*
X392867Y949957D01*
X391158Y947399D01*
X390416Y945608D01*
X372323D01*
X349324Y968606D01*
X347505Y969822D01*
X345359Y970249D01*
X318190D01*
X316044Y969822D01*
X314225Y968606D01*
X291226Y945608D01*
X284175D01*
X283421Y946696D01*
X284532Y949910D01*
X284741Y950057D01*
X287399Y951158D01*
X289957Y952867D01*
X292133Y955043D01*
X293842Y957601D01*
X295020Y960444D01*
X295620Y963462D01*
Y966538D01*
X295020Y969556D01*
X293842Y972399D01*
X292133Y974957D01*
X289957Y977133D01*
X287399Y978842D01*
X284556Y980020D01*
X281538Y980620D01*
D02*
G37*
G36*
X389250Y1028000D02*
X370750D01*
Y1012000D01*
X374392D01*
Y979584D01*
X372601Y978842D01*
X370043Y977133D01*
X367867Y974957D01*
X366158Y972399D01*
X364980Y969556D01*
X364380Y966538D01*
Y963462D01*
X364980Y960444D01*
X366158Y957601D01*
X367867Y955043D01*
X370043Y952867D01*
X372601Y951158D01*
X375444Y949980D01*
X378462Y949380D01*
X381538D01*
X384556Y949980D01*
X387399Y951158D01*
X389957Y952867D01*
X392133Y955043D01*
X393842Y957601D01*
X395020Y960444D01*
X395620Y963462D01*
Y966538D01*
X395020Y969556D01*
X393842Y972399D01*
X392133Y974957D01*
X389957Y977133D01*
X387399Y978842D01*
X385608Y979584D01*
Y1012000D01*
X389250D01*
Y1028000D01*
D02*
G37*
G36*
X191750D02*
X173250D01*
Y1012000D01*
X176892D01*
Y979584D01*
X175101Y978842D01*
X172543Y977133D01*
X170367Y974957D01*
X168658Y972399D01*
X167480Y969556D01*
X166880Y966538D01*
Y963462D01*
X167480Y960444D01*
X168658Y957601D01*
X170367Y955043D01*
X172543Y952867D01*
X175101Y951158D01*
X177944Y949980D01*
X180962Y949380D01*
X184038D01*
X187056Y949980D01*
X189899Y951158D01*
X192457Y952867D01*
X194633Y955043D01*
X196342Y957601D01*
X197520Y960444D01*
X198120Y963462D01*
Y966538D01*
X197520Y969556D01*
X196342Y972399D01*
X194633Y974957D01*
X192457Y977133D01*
X189899Y978842D01*
X188108Y979584D01*
Y1012000D01*
X191750D01*
Y1028000D01*
D02*
G37*
G36*
X91750D02*
X73250D01*
Y1012000D01*
X76892D01*
Y979584D01*
X75101Y978842D01*
X72543Y977133D01*
X70367Y974957D01*
X68658Y972399D01*
X67480Y969556D01*
X66880Y966538D01*
Y963462D01*
X67480Y960444D01*
X68658Y957601D01*
X70367Y955043D01*
X72543Y952867D01*
X75101Y951158D01*
X77944Y949980D01*
X80962Y949380D01*
X84038D01*
X87056Y949980D01*
X89899Y951158D01*
X92457Y952867D01*
X94633Y955043D01*
X96342Y957601D01*
X97520Y960444D01*
X98120Y963462D01*
Y966538D01*
X97520Y969556D01*
X96342Y972399D01*
X94633Y974957D01*
X92457Y977133D01*
X89899Y978842D01*
X88108Y979584D01*
Y1012000D01*
X91750D01*
Y1028000D01*
D02*
G37*
G36*
X331538Y955620D02*
X328462D01*
X325444Y955020D01*
X322601Y953842D01*
X320043Y952133D01*
X317867Y949957D01*
X316158Y947399D01*
X314980Y944556D01*
X314380Y941538D01*
Y938462D01*
X314980Y935444D01*
X316158Y932601D01*
X317867Y930043D01*
X320043Y927867D01*
X322601Y926158D01*
X325444Y924980D01*
X328462Y924380D01*
X331538D01*
X334556Y924980D01*
X337399Y926158D01*
X339957Y927867D01*
X342133Y930043D01*
X343842Y932601D01*
X345020Y935444D01*
X345620Y938462D01*
Y941538D01*
X345020Y944556D01*
X343842Y947399D01*
X342133Y949957D01*
X339957Y952133D01*
X337399Y953842D01*
X334556Y955020D01*
X331538Y955620D01*
D02*
G37*
G36*
X134038D02*
X130962D01*
X127944Y955020D01*
X125101Y953842D01*
X122543Y952133D01*
X120367Y949957D01*
X118658Y947399D01*
X117480Y944556D01*
X116880Y941538D01*
Y938462D01*
X117480Y935444D01*
X118658Y932601D01*
X120367Y930043D01*
X122543Y927867D01*
X125101Y926158D01*
X127944Y924980D01*
X130962Y924380D01*
X134038D01*
X137056Y924980D01*
X139899Y926158D01*
X142457Y927867D01*
X144633Y930043D01*
X146342Y932601D01*
X147520Y935444D01*
X148120Y938462D01*
Y941538D01*
X147520Y944556D01*
X146342Y947399D01*
X144633Y949957D01*
X142457Y952133D01*
X139899Y953842D01*
X137056Y955020D01*
X134038Y955620D01*
D02*
G37*
G36*
X281231Y859350D02*
X278769D01*
X276391Y858713D01*
X274259Y857482D01*
X272518Y855741D01*
X272441Y855608D01*
X170000D01*
X167854Y855181D01*
X166035Y853965D01*
X147805Y835735D01*
X147235Y835888D01*
X144774D01*
X142395Y835251D01*
X140263Y834020D01*
X138523Y832279D01*
X137292Y830147D01*
X136654Y827769D01*
Y825307D01*
X137292Y822929D01*
X138523Y820797D01*
X140263Y819056D01*
X142395Y817825D01*
X144774Y817188D01*
X147235D01*
X149613Y817825D01*
X151746Y819056D01*
X153486Y820797D01*
X154717Y822929D01*
X155354Y825307D01*
Y827424D01*
X172323Y844392D01*
X272441D01*
X272518Y844259D01*
X274259Y842518D01*
X276391Y841287D01*
X278769Y840650D01*
X281231D01*
X283609Y841287D01*
X285741Y842518D01*
X287482Y844259D01*
X288713Y846391D01*
X289350Y848769D01*
Y851231D01*
X288713Y853609D01*
X287482Y855741D01*
X285741Y857482D01*
X283609Y858713D01*
X281231Y859350D01*
D02*
G37*
G36*
X428790Y837540D02*
X421270D01*
Y831270D01*
X428790D01*
Y837540D01*
D02*
G37*
G36*
X418730D02*
X411210D01*
Y831270D01*
X418730D01*
Y837540D01*
D02*
G37*
G36*
X428790Y828730D02*
X421270D01*
Y822460D01*
X428790D01*
Y828730D01*
D02*
G37*
G36*
X418730D02*
X411210D01*
Y822460D01*
X418730D01*
Y828730D01*
D02*
G37*
G36*
X355913Y821032D02*
X351393D01*
Y812137D01*
X355913D01*
Y821032D01*
D02*
G37*
G36*
Y809597D02*
X351393D01*
Y800702D01*
X355913D01*
Y809597D01*
D02*
G37*
G36*
X379250Y868000D02*
X360750D01*
Y852000D01*
X364392D01*
Y840471D01*
X364275Y839883D01*
Y823493D01*
X363177Y821417D01*
X360824Y821032D01*
X358453D01*
Y810867D01*
Y800702D01*
X360824D01*
X363633Y800242D01*
X365783Y800242D01*
X373333D01*
X376133Y800242D01*
X379133Y800242D01*
X386033D01*
X388833Y800242D01*
Y800242D01*
X389033D01*
Y800242D01*
X401533D01*
Y805259D01*
X410750D01*
Y802000D01*
X429250D01*
Y804392D01*
X454392D01*
Y787559D01*
X454259Y787482D01*
X452518Y785741D01*
X451287Y783609D01*
X450650Y781231D01*
Y778769D01*
X451287Y776391D01*
X452518Y774259D01*
X454259Y772518D01*
X456391Y771287D01*
X458769Y770650D01*
X461231D01*
X463609Y771287D01*
X465741Y772518D01*
X467482Y774259D01*
X468713Y776391D01*
X469350Y778769D01*
Y781231D01*
X468713Y783609D01*
X467482Y785741D01*
X465741Y787482D01*
X465608Y787559D01*
Y807071D01*
X465181Y809217D01*
X463965Y811036D01*
X461036Y813965D01*
X459217Y815181D01*
X457071Y815608D01*
X429250D01*
Y818000D01*
X416939D01*
X416214Y818144D01*
X415489Y818000D01*
X410750D01*
Y816475D01*
X401533D01*
Y821492D01*
X393342D01*
X392194Y824264D01*
X409684Y841753D01*
X410900Y843573D01*
X411326Y845719D01*
Y851142D01*
X414747D01*
Y867142D01*
X396247D01*
Y851142D01*
X400111D01*
Y848041D01*
X378618Y826548D01*
X378491Y826358D01*
X375491Y827268D01*
Y839413D01*
X375608Y840000D01*
Y852000D01*
X379250D01*
Y868000D01*
D02*
G37*
G36*
X471712Y749200D02*
X468288D01*
X464982Y748314D01*
X462018Y746603D01*
X459597Y744182D01*
X457886Y741218D01*
X457000Y737912D01*
Y734489D01*
X457886Y731182D01*
X459597Y728218D01*
X462018Y725797D01*
X463457Y724967D01*
X463457Y721502D01*
X462300Y720835D01*
X459966Y718500D01*
X458315Y715640D01*
X457460Y712451D01*
Y712070D01*
X470000D01*
X482540D01*
Y712451D01*
X481685Y715640D01*
X480034Y718500D01*
X477700Y720835D01*
X476543Y721502D01*
X476543Y724967D01*
X477982Y725797D01*
X480403Y728218D01*
X482114Y731182D01*
X483000Y734489D01*
Y737912D01*
X482114Y741218D01*
X480403Y744182D01*
X477982Y746603D01*
X475018Y748314D01*
X471712Y749200D01*
D02*
G37*
G36*
X441270Y678863D02*
Y671270D01*
X448863D01*
X448284Y673431D01*
X447114Y675459D01*
X445459Y677114D01*
X443431Y678284D01*
X441270Y678863D01*
D02*
G37*
G36*
X438730D02*
X436569Y678284D01*
X434541Y677114D01*
X432886Y675459D01*
X431716Y673431D01*
X431137Y671270D01*
X438730D01*
Y678863D01*
D02*
G37*
G36*
X482540Y709530D02*
X470000D01*
X457460D01*
Y709149D01*
X458315Y705960D01*
X459966Y703100D01*
X462300Y700766D01*
X463457Y700098D01*
X463457Y696634D01*
X462018Y695803D01*
X459597Y693382D01*
X457886Y690418D01*
X457000Y687112D01*
Y683689D01*
X457886Y680382D01*
X459597Y677418D01*
X462018Y674997D01*
X462997Y674432D01*
Y670968D01*
X462018Y670403D01*
X459597Y667982D01*
X457886Y665018D01*
X457000Y661712D01*
Y658288D01*
X454613Y655608D01*
X442323D01*
X439821Y658110D01*
X441063Y661110D01*
X441170D01*
X443431Y661716D01*
X445459Y662886D01*
X447114Y664541D01*
X448284Y666569D01*
X448863Y668730D01*
X431137D01*
X431231Y668378D01*
X430893Y667567D01*
X429001Y665553D01*
X414566D01*
Y669196D01*
X398566D01*
Y650696D01*
X414566D01*
Y652937D01*
X415213Y653370D01*
X415860Y654338D01*
X427732D01*
X436035Y646035D01*
X437854Y644819D01*
X440000Y644392D01*
X457347D01*
X457442Y644316D01*
X458910Y641392D01*
X457886Y639618D01*
X457000Y636311D01*
Y632888D01*
X457886Y629582D01*
X459597Y626618D01*
X461015Y625200D01*
X459773Y622200D01*
X457000D01*
Y596200D01*
X483000D01*
Y622200D01*
X480227D01*
X478985Y625200D01*
X480403Y626618D01*
X482114Y629582D01*
X483000Y632888D01*
Y636311D01*
X482114Y639618D01*
X480403Y642582D01*
X477982Y645003D01*
X477003Y645568D01*
Y649032D01*
X477982Y649597D01*
X480403Y652018D01*
X482114Y654982D01*
X483000Y658288D01*
Y661712D01*
X482114Y665018D01*
X480403Y667982D01*
X477982Y670403D01*
X477003Y670968D01*
Y674432D01*
X477982Y674997D01*
X480403Y677418D01*
X482114Y680382D01*
X483000Y683689D01*
Y687112D01*
X482114Y690418D01*
X480403Y693382D01*
X477982Y695803D01*
X476543Y696634D01*
X476543Y700098D01*
X477700Y700766D01*
X480034Y703100D01*
X481685Y705960D01*
X482540Y709149D01*
Y709530D01*
D02*
G37*
G36*
X441270Y608863D02*
Y601270D01*
X448863D01*
X448284Y603431D01*
X447114Y605459D01*
X445459Y607114D01*
X443431Y608284D01*
X441270Y608863D01*
D02*
G37*
G36*
X438730D02*
X436569Y608284D01*
X434541Y607114D01*
X432886Y605459D01*
X431716Y603431D01*
X431137Y601270D01*
X438730D01*
Y608863D01*
D02*
G37*
G36*
X448863Y598730D02*
X441270D01*
Y591137D01*
X443431Y591716D01*
X445459Y592886D01*
X447114Y594541D01*
X448284Y596569D01*
X448863Y598730D01*
D02*
G37*
G36*
X438730D02*
X431137D01*
X431716Y596569D01*
X432886Y594541D01*
X434541Y592886D01*
X436569Y591716D01*
X438730Y591137D01*
Y598730D01*
D02*
G37*
G36*
X400046Y622071D02*
X397584D01*
X395206Y621434D01*
X393074Y620203D01*
X391333Y618462D01*
X390102Y616330D01*
X389465Y613952D01*
Y611490D01*
X390102Y609112D01*
X391333Y606980D01*
X393074Y605239D01*
X393207Y605162D01*
Y412129D01*
X393634Y409983D01*
X394849Y408164D01*
X397778Y405235D01*
X399598Y404019D01*
X401744Y403592D01*
X433981D01*
X434998Y401832D01*
X437232Y399598D01*
X439968Y398018D01*
X443020Y397200D01*
X446180D01*
X449232Y398018D01*
X451968Y399598D01*
X454202Y401832D01*
X455782Y404568D01*
X455985Y405326D01*
X459091D01*
X459246Y404746D01*
X460766Y402114D01*
X462914Y399966D01*
X465546Y398446D01*
X468481Y397660D01*
X468730D01*
Y409200D01*
X470000D01*
Y410470D01*
X481540D01*
Y410719D01*
X480754Y413654D01*
X479234Y416286D01*
X477086Y418434D01*
X474454Y419953D01*
X473874Y420109D01*
Y423215D01*
X474632Y423418D01*
X477368Y424998D01*
X479602Y427232D01*
X481182Y429968D01*
X482000Y433020D01*
Y436180D01*
X481182Y439232D01*
X479602Y441968D01*
X477368Y444202D01*
X474715Y445734D01*
X474632Y446089D01*
Y448511D01*
X474715Y448866D01*
X477368Y450398D01*
X479602Y452632D01*
X481182Y455368D01*
X482000Y458420D01*
Y461580D01*
X481182Y464632D01*
X479602Y467368D01*
X477368Y469602D01*
X475608Y470619D01*
Y489000D01*
X478500D01*
Y507500D01*
X463659D01*
X462116Y507500D01*
X461379Y507838D01*
Y507838D01*
X460930Y508044D01*
X460898Y508075D01*
X460898Y508187D01*
Y511813D01*
X460898Y511925D01*
X460930Y511956D01*
X461379Y512162D01*
X461379D01*
X462116Y512500D01*
X463390Y512500D01*
X478500D01*
Y531000D01*
X475608D01*
Y542000D01*
X479250D01*
Y558000D01*
X460750D01*
Y542000D01*
X464392D01*
Y531000D01*
X461500D01*
Y515954D01*
X461022Y515608D01*
X457482Y515741D01*
X455741Y517482D01*
X455608Y517559D01*
Y564392D01*
X460750D01*
Y562000D01*
X479250D01*
Y578000D01*
X460750D01*
Y575608D01*
X452929D01*
X450783Y575181D01*
X448964Y573965D01*
X446035Y571036D01*
X444819Y569217D01*
X444392Y567071D01*
Y517559D01*
X444259Y517482D01*
X442518Y515741D01*
X441287Y513609D01*
X440650Y511231D01*
Y508769D01*
X441287Y506391D01*
X442518Y504259D01*
X444259Y502518D01*
X444392Y502441D01*
Y492323D01*
X416035Y463965D01*
X414819Y462146D01*
X414392Y460000D01*
Y437529D01*
X414819Y435383D01*
X416035Y433564D01*
X418964Y430635D01*
X420783Y429419D01*
X422929Y428992D01*
X433981D01*
X434998Y427232D01*
X437232Y424998D01*
X439885Y423466D01*
X439968Y423111D01*
Y420689D01*
X439885Y420334D01*
X437232Y418802D01*
X434998Y416568D01*
X433981Y414808D01*
X404422D01*
Y605162D01*
X404556Y605239D01*
X406296Y606980D01*
X407527Y609112D01*
X408165Y611490D01*
Y613952D01*
X407527Y616330D01*
X406296Y618462D01*
X404556Y620203D01*
X402424Y621434D01*
X400046Y622071D01*
D02*
G37*
G36*
X347224Y434539D02*
Y426946D01*
X354818D01*
X354239Y429107D01*
X353068Y431134D01*
X351413Y432789D01*
X349386Y433960D01*
X347224Y434539D01*
D02*
G37*
G36*
X344684D02*
X342523Y433960D01*
X340496Y432789D01*
X338840Y431134D01*
X337670Y429107D01*
X337091Y426946D01*
X344684D01*
Y434539D01*
D02*
G37*
G36*
X354818Y424406D02*
X347224D01*
Y416812D01*
X349386Y417392D01*
X351413Y418562D01*
X353068Y420217D01*
X354239Y422244D01*
X354818Y424406D01*
D02*
G37*
G36*
X344684D02*
X337091D01*
X337670Y422244D01*
X338840Y420217D01*
X340496Y418562D01*
X342523Y417392D01*
X344684Y416812D01*
Y424406D01*
D02*
G37*
G36*
X481540Y407930D02*
X471270D01*
Y397660D01*
X471519D01*
X474454Y398446D01*
X477086Y399966D01*
X479234Y402114D01*
X480754Y404746D01*
X481540Y407681D01*
Y407930D01*
D02*
G37*
G36*
X456651Y332540D02*
X456270D01*
Y321270D01*
X467540D01*
Y321651D01*
X466685Y324840D01*
X465034Y327700D01*
X462700Y330034D01*
X459840Y331685D01*
X456651Y332540D01*
D02*
G37*
G36*
X467540Y318730D02*
X456270D01*
Y307460D01*
X456651D01*
X459840Y308315D01*
X462700Y309965D01*
X465034Y312300D01*
X466685Y315160D01*
X467540Y318349D01*
Y318730D01*
D02*
G37*
G36*
X436500Y333000D02*
X423500D01*
X417000Y326500D01*
Y313500D01*
X423500Y307000D01*
X424392D01*
Y284450D01*
X421650D01*
Y271050D01*
X438350D01*
Y284450D01*
X435608D01*
Y307000D01*
X436500D01*
X441611Y312111D01*
X443798Y312234D01*
X445346Y311920D01*
X447300Y309965D01*
X450160Y308315D01*
X453349Y307460D01*
X453730D01*
Y320000D01*
Y332540D01*
X453349D01*
X450160Y331685D01*
X447300Y330034D01*
X445346Y328080D01*
X443798Y327766D01*
X441611Y327889D01*
X436500Y333000D01*
D02*
G37*
G36*
X468790Y277540D02*
X461270D01*
Y271270D01*
X468790D01*
Y277540D01*
D02*
G37*
G36*
X458730D02*
X451210D01*
Y271270D01*
X458730D01*
Y277540D01*
D02*
G37*
G36*
X468790Y268730D02*
X461270D01*
Y262460D01*
X468790D01*
Y268730D01*
D02*
G37*
G36*
X458730D02*
X451210D01*
Y262460D01*
X458730D01*
Y268730D01*
D02*
G37*
G36*
X401651Y177540D02*
X401270D01*
Y166270D01*
X412540D01*
Y166651D01*
X411685Y169840D01*
X410034Y172700D01*
X407700Y175035D01*
X404840Y176685D01*
X401651Y177540D01*
D02*
G37*
G36*
X398730D02*
X398349D01*
X395160Y176685D01*
X392300Y175035D01*
X389966Y172700D01*
X388315Y169840D01*
X387460Y166651D01*
Y166270D01*
X398730D01*
Y177540D01*
D02*
G37*
G36*
X412540Y163730D02*
X401270D01*
Y152460D01*
X401651D01*
X404840Y153315D01*
X407700Y154965D01*
X410034Y157300D01*
X411685Y160160D01*
X412540Y163349D01*
Y163730D01*
D02*
G37*
G36*
X398730D02*
X387460D01*
Y163349D01*
X388315Y160160D01*
X389966Y157300D01*
X392300Y154965D01*
X395160Y153315D01*
X398349Y152460D01*
X398730D01*
Y163730D01*
D02*
G37*
G36*
X489500Y122315D02*
X429636D01*
Y98000D01*
X489500D01*
Y122315D01*
D02*
G37*
G36*
X472168Y67540D02*
X471270D01*
Y41270D01*
X497540D01*
Y42168D01*
X496862Y46449D01*
X495522Y50572D01*
X493554Y54434D01*
X491006Y57941D01*
X487941Y61006D01*
X484434Y63554D01*
X480572Y65522D01*
X476449Y66862D01*
X472168Y67540D01*
D02*
G37*
G36*
X468730D02*
X467832D01*
X463551Y66862D01*
X459428Y65522D01*
X455566Y63554D01*
X452059Y61006D01*
X448994Y57941D01*
X446446Y54434D01*
X444478Y50572D01*
X443138Y46449D01*
X442460Y42168D01*
Y41270D01*
X468730D01*
Y67540D01*
D02*
G37*
G36*
X497540Y38730D02*
X471270D01*
Y12460D01*
X472168D01*
X476449Y13138D01*
X480572Y14478D01*
X484434Y16446D01*
X487941Y18994D01*
X491006Y22059D01*
X493554Y25566D01*
X495522Y29428D01*
X496862Y33551D01*
X497540Y37833D01*
Y38730D01*
D02*
G37*
G36*
X468730D02*
X442460D01*
Y37833D01*
X443138Y33551D01*
X444478Y29428D01*
X446446Y25566D01*
X448994Y22059D01*
X452059Y18994D01*
X455566Y16446D01*
X459428Y14478D01*
X463551Y13138D01*
X467832Y12460D01*
X468730D01*
Y38730D01*
D02*
G37*
%LPD*%
G36*
X461500Y504046D02*
Y489000D01*
X464392D01*
Y470619D01*
X462632Y469602D01*
X460398Y467368D01*
X459600Y465987D01*
X459234Y465988D01*
X456311Y466289D01*
X450600Y472000D01*
X443850D01*
X442702Y474772D01*
X453965Y486035D01*
X455181Y487854D01*
X455608Y490000D01*
Y502441D01*
X455741Y502518D01*
X457482Y504259D01*
X461022Y504392D01*
X461500Y504046D01*
D02*
G37*
G36*
X432600Y460750D02*
Y454000D01*
X438311Y448289D01*
X438612Y445366D01*
X438613Y445000D01*
X437232Y444202D01*
X434998Y441968D01*
X433981Y440208D01*
X425608D01*
Y457677D01*
X429828Y461898D01*
X432600Y460750D01*
D02*
G37*
G36*
X458866Y429885D02*
X460398Y427232D01*
X462632Y424998D01*
X465368Y423418D01*
X466126Y423215D01*
Y420109D01*
X465546Y419953D01*
X462914Y418434D01*
X460766Y416286D01*
X459246Y413654D01*
X459091Y413074D01*
X455985D01*
X455782Y413832D01*
X454202Y416568D01*
X451968Y418802D01*
X449315Y420334D01*
X449232Y420689D01*
Y423111D01*
X449315Y423466D01*
X451968Y424998D01*
X454202Y427232D01*
X455734Y429885D01*
X456089Y429968D01*
X458511D01*
X458866Y429885D01*
D02*
G37*
%LPC*%
G36*
X218730Y758730D02*
X211137D01*
X211716Y756569D01*
X212886Y754541D01*
X214541Y752886D01*
X216569Y751716D01*
X218730Y751137D01*
Y758730D01*
D02*
G37*
G36*
X88863D02*
X81270D01*
Y751137D01*
X83431Y751716D01*
X85459Y752886D01*
X87114Y754541D01*
X88284Y756569D01*
X88863Y758730D01*
D02*
G37*
G36*
X78730D02*
X71137D01*
X71716Y756569D01*
X72886Y754541D01*
X74541Y752886D01*
X76569Y751716D01*
X78730Y751137D01*
Y758730D01*
D02*
G37*
G36*
X244040Y746540D02*
X221270D01*
Y735270D01*
X244040D01*
Y746540D01*
D02*
G37*
G36*
X218730D02*
X195960D01*
Y735270D01*
X218730D01*
Y746540D01*
D02*
G37*
G36*
X104040D02*
X81270D01*
Y735270D01*
X104040D01*
Y746540D01*
D02*
G37*
G36*
X78730D02*
X55960D01*
Y735270D01*
X78730D01*
Y746540D01*
D02*
G37*
G36*
X104040Y732730D02*
X81270D01*
Y721460D01*
X104040D01*
Y732730D01*
D02*
G37*
G36*
X78730D02*
X55960D01*
Y721460D01*
X78730D01*
Y732730D01*
D02*
G37*
G36*
X268790Y727540D02*
X261270D01*
Y721270D01*
X268790D01*
Y727540D01*
D02*
G37*
G36*
X128790D02*
X121270D01*
Y721270D01*
X128790D01*
Y727540D01*
D02*
G37*
G36*
X258730D02*
X251210D01*
Y721270D01*
X258730D01*
Y727540D01*
D02*
G37*
G36*
X118730D02*
X111210D01*
Y721270D01*
X118730D01*
Y727540D01*
D02*
G37*
G36*
X268790Y718730D02*
X261270D01*
Y712460D01*
X268790D01*
Y718730D01*
D02*
G37*
G36*
X258730D02*
X251210D01*
Y712460D01*
X258730D01*
Y718730D01*
D02*
G37*
G36*
X128790D02*
X121270D01*
Y712460D01*
X128790D01*
Y718730D01*
D02*
G37*
G36*
X118730D02*
X111210D01*
Y712460D01*
X118730D01*
Y718730D01*
D02*
G37*
G36*
X158863Y698730D02*
X151270D01*
Y691137D01*
X153431Y691716D01*
X155459Y692886D01*
X157114Y694541D01*
X158284Y696569D01*
X158863Y698730D01*
D02*
G37*
G36*
X16230Y617540D02*
X8710D01*
Y611270D01*
X16230D01*
Y617540D01*
D02*
G37*
G36*
Y608730D02*
X8710D01*
Y602460D01*
X16230D01*
Y608730D01*
D02*
G37*
G36*
X270910Y624130D02*
X247830D01*
Y623881D01*
X248616Y620946D01*
X250136Y618314D01*
X252284Y616166D01*
X254916Y614646D01*
X256384Y614253D01*
Y611147D01*
X254916Y610754D01*
X252284Y609234D01*
X250136Y607086D01*
X248616Y604454D01*
X247830Y601519D01*
Y601270D01*
X270910D01*
Y601519D01*
X270124Y604454D01*
X268604Y607086D01*
X266456Y609234D01*
X263824Y610754D01*
X262356Y611147D01*
Y614253D01*
X263824Y614646D01*
X266456Y616166D01*
X268604Y618314D01*
X270124Y620946D01*
X270910Y623881D01*
Y624130D01*
D02*
G37*
G36*
X192170D02*
X169090D01*
Y623881D01*
X169876Y620946D01*
X171396Y618314D01*
X173544Y616166D01*
X176176Y614646D01*
X177644Y614253D01*
Y611147D01*
X176176Y610754D01*
X173544Y609234D01*
X171396Y607086D01*
X169876Y604454D01*
X169090Y601519D01*
Y601270D01*
X192170D01*
Y601519D01*
X191383Y604454D01*
X189864Y607086D01*
X187716Y609234D01*
X185084Y610754D01*
X183616Y611147D01*
Y614253D01*
X185084Y614646D01*
X187716Y616166D01*
X189864Y618314D01*
X191383Y620946D01*
X192170Y623881D01*
Y624130D01*
D02*
G37*
G36*
X130910D02*
X107830D01*
Y623881D01*
X108616Y620946D01*
X110136Y618314D01*
X112284Y616166D01*
X114916Y614646D01*
X116384Y614253D01*
Y611147D01*
X114916Y610754D01*
X112284Y609234D01*
X110136Y607086D01*
X108616Y604454D01*
X107830Y601519D01*
Y601270D01*
X130910D01*
Y601519D01*
X130124Y604454D01*
X128604Y607086D01*
X126456Y609234D01*
X123824Y610754D01*
X122356Y611147D01*
Y614253D01*
X123824Y614646D01*
X126456Y616166D01*
X128604Y618314D01*
X130124Y620946D01*
X130910Y623881D01*
Y624130D01*
D02*
G37*
G36*
X270910Y598730D02*
X247830D01*
Y598481D01*
X248616Y595546D01*
X250136Y592914D01*
X252284Y590766D01*
X254916Y589246D01*
X256384Y588853D01*
Y585747D01*
X254916Y585354D01*
X252284Y583834D01*
X250136Y581686D01*
X248616Y579054D01*
X247830Y576119D01*
Y575870D01*
X270910D01*
Y576119D01*
X270124Y579054D01*
X268604Y581686D01*
X266456Y583834D01*
X263824Y585354D01*
X262356Y585747D01*
Y588853D01*
X263824Y589246D01*
X266456Y590766D01*
X268604Y592914D01*
X270124Y595546D01*
X270910Y598481D01*
Y598730D01*
D02*
G37*
G36*
X130910D02*
X107830D01*
Y598481D01*
X108616Y595546D01*
X110136Y592914D01*
X112284Y590766D01*
X114916Y589246D01*
X116384Y588853D01*
Y585747D01*
X114916Y585354D01*
X112284Y583834D01*
X110136Y581686D01*
X108616Y579054D01*
X107830Y576119D01*
Y575870D01*
X130910D01*
Y576119D01*
X130124Y579054D01*
X128604Y581686D01*
X126456Y583834D01*
X123824Y585354D01*
X122356Y585747D01*
Y588853D01*
X123824Y589246D01*
X126456Y590766D01*
X128604Y592914D01*
X130124Y595546D01*
X130910Y598481D01*
Y598730D01*
D02*
G37*
G36*
X270910Y573330D02*
X247830D01*
Y573081D01*
X248616Y570146D01*
X250136Y567514D01*
X252284Y565366D01*
X254916Y563846D01*
X255496Y563691D01*
Y560585D01*
X254738Y560382D01*
X252002Y558802D01*
X251000Y557800D01*
X248000Y559043D01*
Y559250D01*
X232000D01*
Y542250D01*
X232000Y540000D01*
X232000Y537750D01*
Y520750D01*
X247764D01*
X248188Y519168D01*
X249768Y516432D01*
X252002Y514198D01*
X254738Y512618D01*
X257790Y511800D01*
X260950D01*
X264002Y512618D01*
X266738Y514198D01*
X268972Y516432D01*
X270552Y519168D01*
X271370Y522220D01*
Y525380D01*
X270552Y528432D01*
X268972Y531168D01*
X266738Y533402D01*
X264085Y534934D01*
X264002Y535289D01*
Y537711D01*
X264085Y538066D01*
X266738Y539598D01*
X268972Y541832D01*
X270552Y544568D01*
X271370Y547620D01*
Y550780D01*
X270552Y553832D01*
X268972Y556568D01*
X266738Y558802D01*
X264002Y560382D01*
X263244Y560585D01*
Y563691D01*
X263824Y563846D01*
X266456Y565366D01*
X268604Y567514D01*
X270124Y570146D01*
X270910Y573081D01*
Y573330D01*
D02*
G37*
G36*
X130910D02*
X107830D01*
Y573081D01*
X108616Y570146D01*
X110136Y567514D01*
X112284Y565366D01*
X114916Y563846D01*
X115496Y563691D01*
Y560585D01*
X114738Y560382D01*
X112002Y558802D01*
X111000Y557800D01*
X108000Y559043D01*
Y559250D01*
X92000D01*
Y542250D01*
X92000Y540000D01*
X92000Y537750D01*
Y520750D01*
X107764D01*
X108188Y519168D01*
X109768Y516432D01*
X112002Y514198D01*
X114738Y512618D01*
X117790Y511800D01*
X120950D01*
X124002Y512618D01*
X126738Y514198D01*
X128972Y516432D01*
X130552Y519168D01*
X131370Y522220D01*
Y525380D01*
X130552Y528432D01*
X128972Y531168D01*
X126738Y533402D01*
X124085Y534934D01*
X124002Y535289D01*
Y537711D01*
X124085Y538066D01*
X126738Y539598D01*
X128972Y541832D01*
X130552Y544568D01*
X131370Y547620D01*
Y550780D01*
X130552Y553832D01*
X128972Y556568D01*
X126738Y558802D01*
X124002Y560382D01*
X123244Y560585D01*
Y563691D01*
X123824Y563846D01*
X126456Y565366D01*
X128604Y567514D01*
X130124Y570146D01*
X130910Y573081D01*
Y573330D01*
D02*
G37*
G36*
X192170Y598730D02*
X169090D01*
Y598481D01*
X169876Y595546D01*
X171396Y592914D01*
X173544Y590766D01*
X176176Y589246D01*
X177644Y588853D01*
Y585747D01*
X176176Y585354D01*
X173544Y583834D01*
X171396Y581686D01*
X169876Y579054D01*
X169090Y576119D01*
Y575870D01*
X180630D01*
Y573330D01*
X169090D01*
Y573081D01*
X169876Y570146D01*
X171396Y567514D01*
X173544Y565366D01*
X176176Y563846D01*
X176756Y563691D01*
Y560585D01*
X175998Y560382D01*
X173262Y558802D01*
X171028Y556568D01*
X169448Y553832D01*
X168630Y550780D01*
Y547620D01*
X169448Y544568D01*
X171028Y541832D01*
X173262Y539598D01*
X175915Y538066D01*
X175998Y537711D01*
Y535289D01*
X175915Y534934D01*
X173262Y533402D01*
X171028Y531168D01*
X169448Y528432D01*
X168630Y525380D01*
Y522220D01*
X169448Y519168D01*
X171028Y516432D01*
X173262Y514198D01*
X175998Y512618D01*
X179050Y511800D01*
X179311D01*
X180717Y510087D01*
X183656Y507675D01*
X187008Y505883D01*
X190646Y504779D01*
X192000Y504646D01*
Y500750D01*
X208000D01*
Y519250D01*
X194940D01*
X192630Y522220D01*
Y525380D01*
X191812Y528432D01*
X190232Y531168D01*
X187998Y533402D01*
X185345Y534934D01*
X185262Y535289D01*
Y537711D01*
X185345Y538066D01*
X187998Y539598D01*
X190232Y541832D01*
X191812Y544568D01*
X192369Y546645D01*
X194514Y547791D01*
X198301Y550899D01*
X201409Y554686D01*
X203718Y559007D01*
X204247Y560750D01*
X208000D01*
Y579250D01*
X192000D01*
X190014Y581427D01*
X189864Y581686D01*
X187716Y583834D01*
X185084Y585354D01*
X183616Y585747D01*
Y588853D01*
X185084Y589246D01*
X187716Y590766D01*
X189864Y592914D01*
X191383Y595546D01*
X192170Y598481D01*
Y598730D01*
D02*
G37*
G36*
X52170D02*
X29090D01*
Y598481D01*
X29876Y595546D01*
X31396Y592914D01*
X33544Y590766D01*
X36176Y589246D01*
X37644Y588853D01*
Y585747D01*
X36176Y585354D01*
X33544Y583834D01*
X31396Y581686D01*
X29876Y579054D01*
X29090Y576119D01*
Y575870D01*
X40630D01*
Y573330D01*
X29090D01*
Y573081D01*
X29876Y570146D01*
X31396Y567514D01*
X33544Y565366D01*
X36176Y563846D01*
X36756Y563691D01*
Y560585D01*
X35998Y560382D01*
X33262Y558802D01*
X31028Y556568D01*
X29448Y553832D01*
X28630Y550780D01*
Y547620D01*
X29448Y544568D01*
X31028Y541832D01*
X33262Y539598D01*
X35915Y538066D01*
X35998Y537711D01*
Y535289D01*
X35915Y534934D01*
X33262Y533402D01*
X31028Y531168D01*
X29448Y528432D01*
X28630Y525380D01*
Y522220D01*
X29448Y519168D01*
X31028Y516432D01*
X33262Y514198D01*
X35998Y512618D01*
X39050Y511800D01*
X39311D01*
X40717Y510087D01*
X43656Y507675D01*
X47009Y505883D01*
X50647Y504779D01*
X52000Y504646D01*
Y500750D01*
X68000D01*
Y519250D01*
X54940D01*
X52630Y522220D01*
Y525380D01*
X51812Y528432D01*
X50232Y531168D01*
X47998Y533402D01*
X45345Y534934D01*
X45262Y535289D01*
Y537711D01*
X45345Y538066D01*
X47998Y539598D01*
X50232Y541832D01*
X51812Y544568D01*
X52369Y546645D01*
X54514Y547791D01*
X58301Y550899D01*
X61409Y554686D01*
X63718Y559007D01*
X64247Y560750D01*
X68000D01*
Y579250D01*
X52000D01*
X50013Y581427D01*
X49864Y581686D01*
X47716Y583834D01*
X45084Y585354D01*
X43616Y585747D01*
Y588853D01*
X45084Y589246D01*
X47716Y590766D01*
X49864Y592914D01*
X51384Y595546D01*
X52170Y598481D01*
Y598730D01*
D02*
G37*
G36*
X254984Y390908D02*
X76325D01*
Y367062D01*
X254984D01*
Y390908D01*
D02*
G37*
G36*
X212512Y253000D02*
X209088D01*
X205782Y252114D01*
X202818Y250403D01*
X200397Y247982D01*
X199832Y247003D01*
X196368D01*
X195803Y247982D01*
X193382Y250403D01*
X190418Y252114D01*
X187111Y253000D01*
X183689D01*
X180382Y252114D01*
X177418Y250403D01*
X174997Y247982D01*
X174432Y247003D01*
X170968D01*
X170403Y247982D01*
X167982Y250403D01*
X165018Y252114D01*
X161712Y253000D01*
X158288D01*
X154982Y252114D01*
X152018Y250403D01*
X149597Y247982D01*
X149032Y247003D01*
X145568D01*
X145003Y247982D01*
X142582Y250403D01*
X139618Y252114D01*
X136312Y253000D01*
X132888D01*
X129582Y252114D01*
X126618Y250403D01*
X125200Y248985D01*
X122200Y250227D01*
Y253000D01*
X96200D01*
Y227000D01*
X122200D01*
Y229773D01*
X125200Y231015D01*
X126618Y229597D01*
X129582Y227886D01*
X132888Y227000D01*
X136312D01*
X139618Y227886D01*
X142582Y229597D01*
X145003Y232018D01*
X145568Y232997D01*
X149032D01*
X149597Y232018D01*
X152018Y229597D01*
X154982Y227886D01*
X158288Y227000D01*
X161712D01*
X165018Y227886D01*
X167982Y229597D01*
X170403Y232018D01*
X170968Y232997D01*
X174432D01*
X174997Y232018D01*
X177418Y229597D01*
X180382Y227886D01*
X183689Y227000D01*
X187111D01*
X190418Y227886D01*
X193382Y229597D01*
X195803Y232018D01*
X196368Y232997D01*
X199832D01*
X200397Y232018D01*
X202818Y229597D01*
X205782Y227886D01*
X209088Y227000D01*
X212512D01*
X215818Y227886D01*
X218782Y229597D01*
X221203Y232018D01*
X222034Y233457D01*
X225498Y233457D01*
X226166Y232300D01*
X228500Y229965D01*
X231360Y228315D01*
X234549Y227460D01*
X234930D01*
Y240000D01*
Y252540D01*
X234549D01*
X231360Y251685D01*
X228500Y250035D01*
X226166Y247700D01*
X225498Y246543D01*
X222034Y246543D01*
X221203Y247982D01*
X218782Y250403D01*
X215818Y252114D01*
X212512Y253000D01*
D02*
G37*
G36*
X237851Y252540D02*
X237470D01*
Y241270D01*
X248740D01*
Y241651D01*
X247885Y244840D01*
X246234Y247700D01*
X243900Y250035D01*
X241040Y251685D01*
X237851Y252540D01*
D02*
G37*
G36*
X248740Y238730D02*
X237470D01*
Y227460D01*
X237851D01*
X241040Y228315D01*
X243900Y229965D01*
X246234Y232300D01*
X247885Y235160D01*
X248740Y238349D01*
Y238730D01*
D02*
G37*
G36*
X42168Y247540D02*
X41270D01*
Y221270D01*
X67540D01*
Y222167D01*
X66862Y226449D01*
X65522Y230572D01*
X63554Y234434D01*
X61006Y237941D01*
X57941Y241006D01*
X54434Y243554D01*
X50572Y245522D01*
X46449Y246862D01*
X42168Y247540D01*
D02*
G37*
G36*
X38730D02*
X37833D01*
X33551Y246862D01*
X29428Y245522D01*
X25566Y243554D01*
X22059Y241006D01*
X18994Y237941D01*
X16446Y234434D01*
X14478Y230572D01*
X13138Y226449D01*
X12460Y222167D01*
Y221270D01*
X38730D01*
Y247540D01*
D02*
G37*
G36*
X67540Y218730D02*
X41270D01*
Y192460D01*
X42168D01*
X46449Y193138D01*
X50572Y194478D01*
X54434Y196446D01*
X57941Y198994D01*
X61006Y202059D01*
X63554Y205566D01*
X65522Y209428D01*
X66862Y213551D01*
X67540Y217833D01*
Y218730D01*
D02*
G37*
G36*
X38730D02*
X12460D01*
Y217833D01*
X13138Y213551D01*
X14478Y209428D01*
X16446Y205566D01*
X18994Y202059D01*
X22059Y198994D01*
X25566Y196446D01*
X29428Y194478D01*
X33551Y193138D01*
X37833Y192460D01*
X38730D01*
Y218730D01*
D02*
G37*
G36*
X71651Y177540D02*
X71270D01*
Y166270D01*
X82540D01*
Y166651D01*
X81685Y169840D01*
X80035Y172700D01*
X77700Y175035D01*
X74840Y176685D01*
X71651Y177540D01*
D02*
G37*
G36*
X68730D02*
X68349D01*
X65160Y176685D01*
X62300Y175035D01*
X59966Y172700D01*
X58315Y169840D01*
X57460Y166651D01*
Y166270D01*
X68730D01*
Y177540D01*
D02*
G37*
G36*
X82540Y163730D02*
X71270D01*
Y152460D01*
X71651D01*
X74840Y153315D01*
X77700Y154965D01*
X80035Y157300D01*
X81685Y160160D01*
X82540Y163349D01*
Y163730D01*
D02*
G37*
G36*
X68730D02*
X57460D01*
Y163349D01*
X58315Y160160D01*
X59966Y157300D01*
X62300Y154965D01*
X65160Y153315D01*
X68349Y152460D01*
X68730D01*
Y163730D01*
D02*
G37*
G36*
X49750Y79250D02*
X27250D01*
Y40750D01*
X49750D01*
Y79250D01*
D02*
G37*
%LPD*%
G36*
X129694Y388630D02*
X130165Y388589D01*
X130609Y388519D01*
X131025Y388422D01*
X131414Y388311D01*
X131774Y388186D01*
X132093Y388062D01*
X132398Y387937D01*
X132662Y387798D01*
X132898Y387673D01*
X133092Y387549D01*
X133258Y387438D01*
X133383Y387354D01*
X133480Y387271D01*
X133535Y387230D01*
X133549Y387216D01*
X133841Y386938D01*
X134090Y386633D01*
X134326Y386314D01*
X134520Y385981D01*
X134700Y385635D01*
X134853Y385288D01*
X134978Y384955D01*
X135089Y384622D01*
X135172Y384317D01*
X135241Y384026D01*
X135297Y383763D01*
X135338Y383541D01*
X135380Y383360D01*
X135394Y383222D01*
Y383166D01*
X135408Y383125D01*
Y383111D01*
Y383097D01*
X132981Y382847D01*
X132967Y383180D01*
X132939Y383485D01*
X132884Y383776D01*
X132828Y384054D01*
X132745Y384303D01*
X132662Y384525D01*
X132565Y384747D01*
X132468Y384927D01*
X132384Y385094D01*
X132287Y385246D01*
X132204Y385371D01*
X132121Y385482D01*
X132065Y385551D01*
X132010Y385621D01*
X131982Y385649D01*
X131968Y385662D01*
X131774Y385843D01*
X131552Y385995D01*
X131330Y386134D01*
X131109Y386259D01*
X130873Y386356D01*
X130651Y386439D01*
X130429Y386508D01*
X130221Y386564D01*
X130013Y386605D01*
X129833Y386633D01*
X129666Y386661D01*
X129514Y386675D01*
X129403Y386689D01*
X129236D01*
X128945Y386675D01*
X128668Y386647D01*
X128404Y386605D01*
X128154Y386536D01*
X127933Y386467D01*
X127711Y386384D01*
X127517Y386300D01*
X127336Y386203D01*
X127184Y386120D01*
X127045Y386023D01*
X126920Y385940D01*
X126823Y385871D01*
X126740Y385801D01*
X126685Y385760D01*
X126657Y385732D01*
X126643Y385718D01*
X126463Y385538D01*
X126310Y385344D01*
X126171Y385149D01*
X126060Y384941D01*
X125963Y384747D01*
X125880Y384553D01*
X125811Y384359D01*
X125755Y384179D01*
X125714Y384012D01*
X125686Y383860D01*
X125658Y383721D01*
X125644Y383596D01*
X125631Y383499D01*
Y383430D01*
Y383374D01*
Y383360D01*
X125644Y383111D01*
X125672Y382861D01*
X125728Y382611D01*
X125797Y382362D01*
X125977Y381876D01*
X126088Y381655D01*
X126185Y381446D01*
X126282Y381252D01*
X126393Y381072D01*
X126476Y380919D01*
X126560Y380781D01*
X126643Y380684D01*
X126698Y380601D01*
X126726Y380545D01*
X126740Y380531D01*
X126962Y380240D01*
X127239Y379921D01*
X127530Y379602D01*
X127863Y379269D01*
X128196Y378922D01*
X128557Y378590D01*
X128903Y378257D01*
X129264Y377938D01*
X129597Y377633D01*
X129916Y377355D01*
X130193Y377092D01*
X130457Y376884D01*
X130665Y376703D01*
X130748Y376634D01*
X130817Y376565D01*
X130873Y376523D01*
X130914Y376482D01*
X130942Y376468D01*
X130956Y376454D01*
X131316Y376149D01*
X131663Y375858D01*
X131982Y375580D01*
X132287Y375317D01*
X132565Y375053D01*
X132814Y374817D01*
X133036Y374595D01*
X133244Y374388D01*
X133438Y374207D01*
X133591Y374041D01*
X133730Y373902D01*
X133841Y373777D01*
X133924Y373680D01*
X133979Y373611D01*
X134021Y373569D01*
X134035Y373555D01*
X134409Y373084D01*
X134728Y372626D01*
X134992Y372196D01*
X135117Y372002D01*
X135213Y371808D01*
X135297Y371642D01*
X135380Y371489D01*
X135449Y371350D01*
X135491Y371226D01*
X135533Y371128D01*
X135560Y371059D01*
X135588Y371017D01*
Y371004D01*
X135685Y370712D01*
X135754Y370421D01*
X135796Y370144D01*
X135824Y369908D01*
X135838Y369686D01*
X135851Y369603D01*
Y369520D01*
Y369464D01*
Y369423D01*
Y369395D01*
Y369381D01*
X123176D01*
Y371642D01*
X132579D01*
X132426Y371877D01*
X132260Y372113D01*
X132093Y372321D01*
X131941Y372515D01*
X131802Y372668D01*
X131691Y372793D01*
X131622Y372876D01*
X131594Y372904D01*
X131469Y373042D01*
X131303Y373195D01*
X131122Y373361D01*
X130914Y373555D01*
X130692Y373750D01*
X130471Y373957D01*
X129999Y374360D01*
X129777Y374554D01*
X129569Y374734D01*
X129389Y374901D01*
X129208Y375039D01*
X129070Y375164D01*
X128973Y375247D01*
X128903Y375317D01*
X128876Y375331D01*
X128418Y375719D01*
X127988Y376093D01*
X127600Y376440D01*
X127239Y376759D01*
X126906Y377064D01*
X126615Y377341D01*
X126338Y377591D01*
X126102Y377813D01*
X125894Y378021D01*
X125728Y378201D01*
X125575Y378354D01*
X125450Y378479D01*
X125353Y378576D01*
X125298Y378645D01*
X125256Y378687D01*
X125242Y378700D01*
X125048Y378936D01*
X124854Y379158D01*
X124687Y379380D01*
X124535Y379588D01*
X124257Y379990D01*
X124147Y380171D01*
X124050Y380337D01*
X123952Y380490D01*
X123883Y380628D01*
X123814Y380753D01*
X123772Y380850D01*
X123730Y380933D01*
X123703Y380989D01*
X123675Y381030D01*
Y381044D01*
X123523Y381460D01*
X123398Y381862D01*
X123315Y382251D01*
X123259Y382598D01*
X123245Y382750D01*
X123231Y382889D01*
X123217Y383000D01*
X123203Y383111D01*
Y383194D01*
Y383249D01*
Y383291D01*
Y383305D01*
X123217Y383721D01*
X123273Y384123D01*
X123356Y384497D01*
X123453Y384858D01*
X123578Y385191D01*
X123717Y385510D01*
X123869Y385801D01*
X124008Y386065D01*
X124160Y386300D01*
X124313Y386508D01*
X124452Y386689D01*
X124577Y386827D01*
X124674Y386952D01*
X124757Y387035D01*
X124812Y387091D01*
X124826Y387105D01*
X125145Y387382D01*
X125478Y387618D01*
X125825Y387812D01*
X126185Y387992D01*
X126546Y388145D01*
X126920Y388270D01*
X127267Y388367D01*
X127614Y388450D01*
X127933Y388519D01*
X128238Y388561D01*
X128501Y388603D01*
X128737Y388616D01*
X128931Y388630D01*
X129070Y388644D01*
X129195D01*
X129694Y388630D01*
D02*
G37*
G36*
X176375Y369381D02*
X173920D01*
Y385718D01*
X168387Y369381D01*
X166085D01*
X160496Y385441D01*
Y369381D01*
X158041D01*
Y388575D01*
X161466D01*
X166071Y375220D01*
X166196Y374845D01*
X166320Y374498D01*
X166417Y374179D01*
X166528Y373874D01*
X166612Y373597D01*
X166695Y373347D01*
X166778Y373125D01*
X166847Y372917D01*
X166903Y372737D01*
X166958Y372585D01*
X167000Y372446D01*
X167028Y372335D01*
X167055Y372252D01*
X167083Y372196D01*
X167097Y372155D01*
Y372141D01*
X167153Y372335D01*
X167222Y372529D01*
X167291Y372751D01*
X167360Y372987D01*
X167513Y373458D01*
X167666Y373916D01*
X167735Y374138D01*
X167804Y374332D01*
X167860Y374512D01*
X167915Y374679D01*
X167957Y374804D01*
X167985Y374901D01*
X167998Y374956D01*
X168012Y374984D01*
X172561Y388575D01*
X176375D01*
Y369381D01*
D02*
G37*
G36*
X153922Y377480D02*
X153908Y376925D01*
X153894Y376398D01*
X153853Y375899D01*
X153811Y375442D01*
X153756Y375011D01*
X153700Y374623D01*
X153631Y374263D01*
X153561Y373930D01*
X153492Y373639D01*
X153423Y373389D01*
X153367Y373167D01*
X153312Y372987D01*
X153270Y372848D01*
X153229Y372751D01*
X153215Y372696D01*
X153201Y372668D01*
X153048Y372349D01*
X152882Y372058D01*
X152702Y371766D01*
X152507Y371517D01*
X152313Y371267D01*
X152105Y371059D01*
X151897Y370851D01*
X151703Y370671D01*
X151509Y370518D01*
X151342Y370379D01*
X151176Y370255D01*
X151037Y370158D01*
X150926Y370088D01*
X150829Y370033D01*
X150774Y370005D01*
X150760Y369991D01*
X150427Y369825D01*
X150080Y369686D01*
X149706Y369561D01*
X149345Y369450D01*
X148971Y369367D01*
X148610Y369284D01*
X148250Y369228D01*
X147903Y369173D01*
X147584Y369145D01*
X147279Y369118D01*
X147016Y369090D01*
X146780Y369076D01*
X146600Y369062D01*
X146336D01*
X145823Y369076D01*
X145351Y369104D01*
X144894Y369159D01*
X144464Y369228D01*
X144062Y369312D01*
X143701Y369395D01*
X143368Y369492D01*
X143049Y369589D01*
X142786Y369686D01*
X142536Y369783D01*
X142342Y369866D01*
X142162Y369950D01*
X142037Y370019D01*
X141940Y370074D01*
X141870Y370102D01*
X141856Y370116D01*
X141551Y370324D01*
X141260Y370546D01*
X141011Y370768D01*
X140775Y371004D01*
X140553Y371239D01*
X140359Y371461D01*
X140192Y371683D01*
X140040Y371905D01*
X139901Y372113D01*
X139790Y372293D01*
X139707Y372460D01*
X139624Y372612D01*
X139568Y372723D01*
X139527Y372820D01*
X139513Y372876D01*
X139499Y372890D01*
X139388Y373223D01*
X139277Y373583D01*
X139194Y373944D01*
X139111Y374332D01*
X139000Y375095D01*
X138958Y375469D01*
X138916Y375830D01*
X138889Y376163D01*
X138861Y376482D01*
X138847Y376759D01*
Y377009D01*
X138833Y377203D01*
Y377286D01*
Y377355D01*
Y377411D01*
Y377452D01*
Y377466D01*
Y377480D01*
Y388575D01*
X141371D01*
Y377494D01*
X141385Y376842D01*
X141427Y376246D01*
X141482Y375705D01*
X141551Y375206D01*
X141649Y374762D01*
X141746Y374360D01*
X141856Y374013D01*
X141967Y373708D01*
X142078Y373430D01*
X142189Y373209D01*
X142286Y373014D01*
X142383Y372862D01*
X142453Y372751D01*
X142508Y372668D01*
X142550Y372626D01*
X142564Y372612D01*
X142800Y372390D01*
X143077Y372196D01*
X143368Y372030D01*
X143687Y371877D01*
X144020Y371766D01*
X144353Y371655D01*
X144686Y371572D01*
X145005Y371503D01*
X145324Y371461D01*
X145615Y371420D01*
X145864Y371392D01*
X146100Y371364D01*
X146294D01*
X146433Y371350D01*
X146558D01*
X146863Y371364D01*
X147140Y371378D01*
X147418Y371406D01*
X147681Y371447D01*
X147931Y371503D01*
X148153Y371558D01*
X148361Y371614D01*
X148555Y371669D01*
X148735Y371725D01*
X148888Y371780D01*
X149013Y371836D01*
X149124Y371891D01*
X149221Y371933D01*
X149276Y371960D01*
X149318Y371988D01*
X149332D01*
X149540Y372113D01*
X149720Y372252D01*
X149900Y372390D01*
X150053Y372543D01*
X150205Y372696D01*
X150330Y372848D01*
X150552Y373139D01*
X150718Y373403D01*
X150788Y373514D01*
X150829Y373611D01*
X150871Y373694D01*
X150899Y373750D01*
X150926Y373791D01*
Y373805D01*
X151010Y374041D01*
X151079Y374304D01*
X151135Y374595D01*
X151190Y374887D01*
X151273Y375497D01*
X151301Y375802D01*
X151329Y376093D01*
X151342Y376385D01*
X151356Y376648D01*
X151370Y376884D01*
Y377092D01*
X151384Y377258D01*
Y377383D01*
Y377466D01*
Y377494D01*
Y388575D01*
X153922D01*
Y377480D01*
D02*
G37*
G36*
X244400Y388894D02*
X244857Y388852D01*
X245301Y388797D01*
X245731Y388727D01*
X246133Y388644D01*
X246521Y388533D01*
X246882Y388436D01*
X247215Y388325D01*
X247506Y388214D01*
X247783Y388117D01*
X248019Y388020D01*
X248213Y387923D01*
X248380Y387854D01*
X248491Y387798D01*
X248560Y387757D01*
X248588Y387743D01*
X248976Y387507D01*
X249337Y387257D01*
X249669Y386994D01*
X249988Y386716D01*
X250280Y386439D01*
X250543Y386162D01*
X250793Y385871D01*
X251001Y385607D01*
X251195Y385357D01*
X251375Y385108D01*
X251514Y384900D01*
X251639Y384719D01*
X251722Y384553D01*
X251791Y384442D01*
X251833Y384373D01*
X251847Y384345D01*
X252041Y383915D01*
X252221Y383485D01*
X252374Y383041D01*
X252499Y382598D01*
X252610Y382154D01*
X252707Y381710D01*
X252776Y381294D01*
X252845Y380906D01*
X252887Y380531D01*
X252929Y380185D01*
X252942Y379879D01*
X252970Y379616D01*
Y379408D01*
X252984Y379325D01*
Y379255D01*
Y379200D01*
Y379158D01*
Y379131D01*
Y379117D01*
X252970Y378604D01*
X252942Y378104D01*
X252887Y377619D01*
X252831Y377161D01*
X252748Y376703D01*
X252665Y376287D01*
X252568Y375885D01*
X252471Y375511D01*
X252388Y375178D01*
X252291Y374873D01*
X252207Y374609D01*
X252124Y374388D01*
X252069Y374207D01*
X252013Y374082D01*
X251985Y373999D01*
X251972Y373985D01*
Y373971D01*
X251777Y373541D01*
X251556Y373125D01*
X251320Y372751D01*
X251084Y372390D01*
X250834Y372071D01*
X250585Y371766D01*
X250349Y371503D01*
X250113Y371253D01*
X249891Y371031D01*
X249683Y370851D01*
X249503Y370685D01*
X249337Y370560D01*
X249198Y370463D01*
X249101Y370379D01*
X249045Y370338D01*
X249018Y370324D01*
X248643Y370102D01*
X248241Y369908D01*
X247825Y369742D01*
X247409Y369589D01*
X246993Y369478D01*
X246563Y369367D01*
X246161Y369284D01*
X245759Y369215D01*
X245398Y369173D01*
X245051Y369131D01*
X244746Y369104D01*
X244483Y369076D01*
X244275D01*
X244178Y369062D01*
X243969D01*
X243415Y369076D01*
X242888Y369131D01*
X242388Y369215D01*
X241903Y369312D01*
X241459Y369436D01*
X241043Y369575D01*
X240655Y369728D01*
X240308Y369880D01*
X239989Y370033D01*
X239712Y370185D01*
X239462Y370324D01*
X239268Y370449D01*
X239102Y370546D01*
X238991Y370629D01*
X238921Y370685D01*
X238894Y370699D01*
X238519Y371031D01*
X238172Y371378D01*
X237854Y371753D01*
X237562Y372141D01*
X237299Y372543D01*
X237063Y372931D01*
X236855Y373320D01*
X236675Y373708D01*
X236508Y374068D01*
X236370Y374401D01*
X236259Y374693D01*
X236162Y374956D01*
X236092Y375164D01*
X236065Y375261D01*
X236051Y375331D01*
X236037Y375386D01*
X236023Y375428D01*
X236009Y375455D01*
Y375469D01*
X238547Y376107D01*
X238658Y375663D01*
X238783Y375261D01*
X238921Y374873D01*
X239088Y374526D01*
X239240Y374193D01*
X239421Y373888D01*
X239587Y373625D01*
X239753Y373375D01*
X239906Y373167D01*
X240059Y372973D01*
X240197Y372820D01*
X240322Y372696D01*
X240419Y372585D01*
X240489Y372515D01*
X240544Y372474D01*
X240558Y372460D01*
X240849Y372252D01*
X241140Y372058D01*
X241446Y371891D01*
X241751Y371753D01*
X242056Y371642D01*
X242361Y371544D01*
X242652Y371461D01*
X242929Y371392D01*
X243179Y371336D01*
X243429Y371309D01*
X243637Y371281D01*
X243817Y371253D01*
X243969D01*
X244081Y371239D01*
X244178D01*
X244496Y371253D01*
X244816Y371281D01*
X245121Y371323D01*
X245426Y371378D01*
X245703Y371447D01*
X245980Y371531D01*
X246230Y371600D01*
X246466Y371697D01*
X246674Y371780D01*
X246868Y371850D01*
X247034Y371933D01*
X247173Y372002D01*
X247284Y372058D01*
X247367Y372099D01*
X247423Y372127D01*
X247437Y372141D01*
X247714Y372321D01*
X247964Y372515D01*
X248199Y372723D01*
X248421Y372945D01*
X248615Y373167D01*
X248796Y373403D01*
X248962Y373625D01*
X249115Y373833D01*
X249240Y374041D01*
X249350Y374235D01*
X249448Y374415D01*
X249517Y374568D01*
X249586Y374693D01*
X249628Y374776D01*
X249642Y374845D01*
X249656Y374859D01*
X249780Y375206D01*
X249891Y375566D01*
X249988Y375927D01*
X250058Y376301D01*
X250196Y377009D01*
X250238Y377355D01*
X250280Y377688D01*
X250307Y377979D01*
X250321Y378257D01*
X250335Y378506D01*
X250349Y378714D01*
X250363Y378895D01*
Y379020D01*
Y379103D01*
Y379131D01*
X250349Y379491D01*
X250335Y379838D01*
X250266Y380503D01*
X250224Y380822D01*
X250169Y381128D01*
X250113Y381419D01*
X250058Y381682D01*
X250002Y381932D01*
X249961Y382154D01*
X249905Y382348D01*
X249864Y382514D01*
X249822Y382639D01*
X249794Y382736D01*
X249767Y382806D01*
Y382820D01*
X249642Y383152D01*
X249503Y383457D01*
X249350Y383749D01*
X249184Y384012D01*
X249018Y384276D01*
X248851Y384511D01*
X248671Y384719D01*
X248505Y384914D01*
X248338Y385080D01*
X248186Y385233D01*
X248047Y385357D01*
X247922Y385468D01*
X247825Y385551D01*
X247756Y385621D01*
X247700Y385649D01*
X247686Y385662D01*
X247395Y385857D01*
X247090Y386009D01*
X246785Y386162D01*
X246480Y386287D01*
X246161Y386384D01*
X245856Y386467D01*
X245564Y386536D01*
X245273Y386592D01*
X245010Y386647D01*
X244760Y386675D01*
X244538Y386703D01*
X244344Y386716D01*
X244191Y386730D01*
X243983D01*
X243623Y386716D01*
X243290Y386689D01*
X242971Y386647D01*
X242666Y386578D01*
X242388Y386508D01*
X242125Y386425D01*
X241889Y386342D01*
X241667Y386259D01*
X241473Y386162D01*
X241293Y386078D01*
X241140Y385995D01*
X241016Y385926D01*
X240919Y385857D01*
X240849Y385815D01*
X240807Y385787D01*
X240794Y385773D01*
X240558Y385579D01*
X240336Y385371D01*
X240142Y385135D01*
X239948Y384900D01*
X239767Y384636D01*
X239615Y384387D01*
X239462Y384137D01*
X239338Y383887D01*
X239226Y383652D01*
X239116Y383430D01*
X239032Y383236D01*
X238963Y383069D01*
X238908Y382916D01*
X238866Y382820D01*
X238852Y382750D01*
X238838Y382722D01*
X236342Y383305D01*
X236495Y383790D01*
X236689Y384248D01*
X236883Y384678D01*
X237105Y385080D01*
X237327Y385441D01*
X237549Y385787D01*
X237784Y386092D01*
X238006Y386370D01*
X238228Y386619D01*
X238422Y386827D01*
X238603Y387022D01*
X238769Y387160D01*
X238894Y387285D01*
X239005Y387368D01*
X239060Y387424D01*
X239088Y387438D01*
X239462Y387701D01*
X239851Y387923D01*
X240267Y388117D01*
X240669Y388284D01*
X241071Y388436D01*
X241473Y388547D01*
X241861Y388644D01*
X242236Y388727D01*
X242597Y388783D01*
X242915Y388825D01*
X243193Y388866D01*
X243442Y388880D01*
X243651Y388894D01*
X243734Y388908D01*
X243928D01*
X244400Y388894D01*
D02*
G37*
G36*
X205679D02*
X206136Y388852D01*
X206580Y388797D01*
X207010Y388727D01*
X207412Y388644D01*
X207801Y388533D01*
X208161Y388436D01*
X208494Y388325D01*
X208785Y388214D01*
X209063Y388117D01*
X209298Y388020D01*
X209493Y387923D01*
X209659Y387854D01*
X209770Y387798D01*
X209839Y387757D01*
X209867Y387743D01*
X210256Y387507D01*
X210616Y387257D01*
X210949Y386994D01*
X211268Y386716D01*
X211559Y386439D01*
X211823Y386162D01*
X212072Y385871D01*
X212280Y385607D01*
X212474Y385357D01*
X212655Y385108D01*
X212793Y384900D01*
X212918Y384719D01*
X213001Y384553D01*
X213071Y384442D01*
X213112Y384373D01*
X213126Y384345D01*
X213320Y383915D01*
X213501Y383485D01*
X213653Y383041D01*
X213778Y382598D01*
X213889Y382154D01*
X213986Y381710D01*
X214055Y381294D01*
X214125Y380906D01*
X214166Y380531D01*
X214208Y380185D01*
X214222Y379879D01*
X214250Y379616D01*
Y379408D01*
X214263Y379325D01*
Y379255D01*
Y379200D01*
Y379158D01*
Y379131D01*
Y379117D01*
X214250Y378604D01*
X214222Y378104D01*
X214166Y377619D01*
X214111Y377161D01*
X214028Y376703D01*
X213944Y376287D01*
X213847Y375885D01*
X213750Y375511D01*
X213667Y375178D01*
X213570Y374873D01*
X213487Y374609D01*
X213404Y374388D01*
X213348Y374207D01*
X213293Y374082D01*
X213265Y373999D01*
X213251Y373985D01*
Y373971D01*
X213057Y373541D01*
X212835Y373125D01*
X212599Y372751D01*
X212363Y372390D01*
X212114Y372071D01*
X211864Y371766D01*
X211628Y371503D01*
X211393Y371253D01*
X211171Y371031D01*
X210963Y370851D01*
X210783Y370685D01*
X210616Y370560D01*
X210477Y370463D01*
X210380Y370379D01*
X210325Y370338D01*
X210297Y370324D01*
X209923Y370102D01*
X209520Y369908D01*
X209104Y369742D01*
X208688Y369589D01*
X208272Y369478D01*
X207842Y369367D01*
X207440Y369284D01*
X207038Y369215D01*
X206677Y369173D01*
X206331Y369131D01*
X206026Y369104D01*
X205762Y369076D01*
X205554D01*
X205457Y369062D01*
X205249D01*
X204694Y369076D01*
X204167Y369131D01*
X203668Y369215D01*
X203183Y369312D01*
X202739Y369436D01*
X202323Y369575D01*
X201934Y369728D01*
X201588Y369880D01*
X201269Y370033D01*
X200991Y370185D01*
X200742Y370324D01*
X200548Y370449D01*
X200381Y370546D01*
X200270Y370629D01*
X200201Y370685D01*
X200173Y370699D01*
X199799Y371031D01*
X199452Y371378D01*
X199133Y371753D01*
X198842Y372141D01*
X198578Y372543D01*
X198342Y372931D01*
X198134Y373320D01*
X197954Y373708D01*
X197788Y374068D01*
X197649Y374401D01*
X197538Y374693D01*
X197441Y374956D01*
X197372Y375164D01*
X197344Y375261D01*
X197330Y375331D01*
X197316Y375386D01*
X197302Y375428D01*
X197288Y375455D01*
Y375469D01*
X199826Y376107D01*
X199937Y375663D01*
X200062Y375261D01*
X200201Y374873D01*
X200367Y374526D01*
X200520Y374193D01*
X200700Y373888D01*
X200867Y373625D01*
X201033Y373375D01*
X201185Y373167D01*
X201338Y372973D01*
X201477Y372820D01*
X201602Y372696D01*
X201699Y372585D01*
X201768Y372515D01*
X201824Y372474D01*
X201837Y372460D01*
X202129Y372252D01*
X202420Y372058D01*
X202725Y371891D01*
X203030Y371753D01*
X203335Y371642D01*
X203640Y371544D01*
X203932Y371461D01*
X204209Y371392D01*
X204459Y371336D01*
X204708Y371309D01*
X204916Y371281D01*
X205096Y371253D01*
X205249D01*
X205360Y371239D01*
X205457D01*
X205776Y371253D01*
X206095Y371281D01*
X206400Y371323D01*
X206705Y371378D01*
X206982Y371447D01*
X207260Y371531D01*
X207509Y371600D01*
X207745Y371697D01*
X207953Y371780D01*
X208148Y371850D01*
X208314Y371933D01*
X208453Y372002D01*
X208563Y372058D01*
X208647Y372099D01*
X208702Y372127D01*
X208716Y372141D01*
X208993Y372321D01*
X209243Y372515D01*
X209479Y372723D01*
X209701Y372945D01*
X209895Y373167D01*
X210075Y373403D01*
X210242Y373625D01*
X210394Y373833D01*
X210519Y374041D01*
X210630Y374235D01*
X210727Y374415D01*
X210796Y374568D01*
X210866Y374693D01*
X210907Y374776D01*
X210921Y374845D01*
X210935Y374859D01*
X211060Y375206D01*
X211171Y375566D01*
X211268Y375927D01*
X211337Y376301D01*
X211476Y377009D01*
X211518Y377355D01*
X211559Y377688D01*
X211587Y377979D01*
X211601Y378257D01*
X211615Y378506D01*
X211628Y378714D01*
X211642Y378895D01*
Y379020D01*
Y379103D01*
Y379131D01*
X211628Y379491D01*
X211615Y379838D01*
X211545Y380503D01*
X211504Y380822D01*
X211448Y381128D01*
X211393Y381419D01*
X211337Y381682D01*
X211282Y381932D01*
X211240Y382154D01*
X211185Y382348D01*
X211143Y382514D01*
X211101Y382639D01*
X211074Y382736D01*
X211046Y382806D01*
Y382820D01*
X210921Y383152D01*
X210783Y383457D01*
X210630Y383749D01*
X210464Y384012D01*
X210297Y384276D01*
X210131Y384511D01*
X209950Y384719D01*
X209784Y384914D01*
X209618Y385080D01*
X209465Y385233D01*
X209326Y385357D01*
X209202Y385468D01*
X209104Y385551D01*
X209035Y385621D01*
X208980Y385649D01*
X208966Y385662D01*
X208675Y385857D01*
X208369Y386009D01*
X208064Y386162D01*
X207759Y386287D01*
X207440Y386384D01*
X207135Y386467D01*
X206844Y386536D01*
X206553Y386592D01*
X206289Y386647D01*
X206040Y386675D01*
X205818Y386703D01*
X205623Y386716D01*
X205471Y386730D01*
X205263D01*
X204902Y386716D01*
X204569Y386689D01*
X204250Y386647D01*
X203945Y386578D01*
X203668Y386508D01*
X203405Y386425D01*
X203169Y386342D01*
X202947Y386259D01*
X202753Y386162D01*
X202572Y386078D01*
X202420Y385995D01*
X202295Y385926D01*
X202198Y385857D01*
X202129Y385815D01*
X202087Y385787D01*
X202073Y385773D01*
X201837Y385579D01*
X201615Y385371D01*
X201421Y385135D01*
X201227Y384900D01*
X201047Y384636D01*
X200894Y384387D01*
X200742Y384137D01*
X200617Y383887D01*
X200506Y383652D01*
X200395Y383430D01*
X200312Y383236D01*
X200243Y383069D01*
X200187Y382916D01*
X200145Y382820D01*
X200131Y382750D01*
X200118Y382722D01*
X197621Y383305D01*
X197774Y383790D01*
X197968Y384248D01*
X198162Y384678D01*
X198384Y385080D01*
X198606Y385441D01*
X198828Y385787D01*
X199064Y386092D01*
X199286Y386370D01*
X199507Y386619D01*
X199702Y386827D01*
X199882Y387022D01*
X200048Y387160D01*
X200173Y387285D01*
X200284Y387368D01*
X200340Y387424D01*
X200367Y387438D01*
X200742Y387701D01*
X201130Y387923D01*
X201546Y388117D01*
X201948Y388284D01*
X202351Y388436D01*
X202753Y388547D01*
X203141Y388644D01*
X203515Y388727D01*
X203876Y388783D01*
X204195Y388825D01*
X204472Y388866D01*
X204722Y388880D01*
X204930Y388894D01*
X205013Y388908D01*
X205207D01*
X205679Y388894D01*
D02*
G37*
G36*
X232889Y369381D02*
X225968D01*
X225344Y369395D01*
X225039Y369409D01*
X224762Y369436D01*
X224484Y369450D01*
X224235Y369478D01*
X223999Y369506D01*
X223777Y369547D01*
X223583Y369575D01*
X223403Y369603D01*
X223250Y369631D01*
X223125Y369645D01*
X223028Y369672D01*
X222945Y369686D01*
X222903Y369700D01*
X222890D01*
X222404Y369839D01*
X221960Y369991D01*
X221766Y370074D01*
X221572Y370144D01*
X221406Y370227D01*
X221239Y370310D01*
X221101Y370379D01*
X220976Y370449D01*
X220865Y370504D01*
X220768Y370560D01*
X220698Y370601D01*
X220643Y370629D01*
X220615Y370657D01*
X220601D01*
X220255Y370920D01*
X219922Y371198D01*
X219631Y371489D01*
X219367Y371766D01*
X219159Y372016D01*
X219062Y372127D01*
X218993Y372224D01*
X218937Y372293D01*
X218895Y372363D01*
X218868Y372390D01*
X218854Y372404D01*
X218563Y372848D01*
X218313Y373306D01*
X218077Y373777D01*
X217897Y374221D01*
X217814Y374415D01*
X217744Y374609D01*
X217675Y374776D01*
X217633Y374915D01*
X217592Y375025D01*
X217564Y375122D01*
X217536Y375178D01*
Y375192D01*
X217370Y375844D01*
X217245Y376509D01*
X217148Y377161D01*
X217120Y377480D01*
X217093Y377771D01*
X217065Y378049D01*
X217051Y378298D01*
X217037Y378520D01*
Y378700D01*
X217023Y378867D01*
Y378978D01*
Y379047D01*
Y379075D01*
X217037Y379547D01*
X217051Y380004D01*
X217093Y380448D01*
X217148Y380864D01*
X217204Y381266D01*
X217259Y381641D01*
X217328Y382001D01*
X217398Y382320D01*
X217481Y382611D01*
X217550Y382875D01*
X217606Y383097D01*
X217661Y383291D01*
X217717Y383443D01*
X217758Y383541D01*
X217772Y383610D01*
X217786Y383638D01*
X217939Y383998D01*
X218105Y384359D01*
X218271Y384678D01*
X218452Y384997D01*
X218646Y385288D01*
X218840Y385551D01*
X219020Y385801D01*
X219201Y386037D01*
X219381Y386231D01*
X219533Y386411D01*
X219686Y386564D01*
X219811Y386689D01*
X219908Y386786D01*
X219991Y386869D01*
X220047Y386911D01*
X220060Y386925D01*
X220282Y387105D01*
X220518Y387271D01*
X220990Y387549D01*
X221461Y387798D01*
X221891Y387979D01*
X222099Y388062D01*
X222279Y388117D01*
X222446Y388173D01*
X222584Y388228D01*
X222709Y388256D01*
X222792Y388284D01*
X222848Y388298D01*
X222862D01*
X223098Y388353D01*
X223347Y388395D01*
X223611Y388422D01*
X223888Y388464D01*
X224457Y388506D01*
X225011Y388547D01*
X225275D01*
X225511Y388561D01*
X225733D01*
X225913Y388575D01*
X232889D01*
Y369381D01*
D02*
G37*
G36*
X194113D02*
X179800D01*
Y371642D01*
X191575D01*
Y378173D01*
X180965D01*
Y380434D01*
X191575D01*
Y386314D01*
X180244D01*
Y388575D01*
X194113D01*
Y369381D01*
D02*
G37*
G36*
X114785Y388630D02*
X115146Y388603D01*
X115493Y388547D01*
X115826Y388464D01*
X116131Y388381D01*
X116422Y388284D01*
X116685Y388186D01*
X116921Y388089D01*
X117143Y387979D01*
X117323Y387881D01*
X117490Y387784D01*
X117628Y387701D01*
X117739Y387632D01*
X117809Y387576D01*
X117864Y387535D01*
X117878Y387521D01*
X118128Y387299D01*
X118363Y387063D01*
X118585Y386814D01*
X118793Y386550D01*
X118974Y386287D01*
X119140Y386009D01*
X119306Y385746D01*
X119431Y385496D01*
X119556Y385260D01*
X119667Y385038D01*
X119750Y384830D01*
X119833Y384664D01*
X119889Y384511D01*
X119931Y384414D01*
X119944Y384345D01*
X119958Y384317D01*
X120083Y383915D01*
X120180Y383485D01*
X120277Y383041D01*
X120360Y382584D01*
X120485Y381668D01*
X120527Y381225D01*
X120569Y380795D01*
X120596Y380392D01*
X120610Y380018D01*
X120624Y379685D01*
X120638Y379408D01*
Y379283D01*
X120652Y379172D01*
Y379075D01*
Y378992D01*
Y378922D01*
Y378881D01*
Y378853D01*
Y378839D01*
Y378340D01*
X120624Y377855D01*
X120610Y377397D01*
X120569Y376953D01*
X120527Y376523D01*
X120471Y376107D01*
X120416Y375719D01*
X120360Y375344D01*
X120291Y374970D01*
X120208Y374637D01*
X120139Y374304D01*
X120055Y373999D01*
X119972Y373694D01*
X119889Y373417D01*
X119792Y373153D01*
X119709Y372904D01*
X119626Y372682D01*
X119528Y372460D01*
X119445Y372266D01*
X119362Y372071D01*
X119279Y371905D01*
X119209Y371753D01*
X119126Y371614D01*
X119057Y371489D01*
X119001Y371378D01*
X118946Y371295D01*
X118890Y371212D01*
X118849Y371142D01*
X118807Y371101D01*
X118779Y371059D01*
X118766Y371045D01*
Y371031D01*
X118461Y370685D01*
X118128Y370379D01*
X117781Y370116D01*
X117420Y369894D01*
X117046Y369700D01*
X116685Y369547D01*
X116339Y369409D01*
X115992Y369312D01*
X115659Y369228D01*
X115368Y369173D01*
X115091Y369118D01*
X114855Y369090D01*
X114661Y369076D01*
X114522Y369062D01*
X114397D01*
X114009Y369076D01*
X113648Y369118D01*
X113301Y369173D01*
X112969Y369242D01*
X112663Y369325D01*
X112386Y369423D01*
X112123Y369520D01*
X111873Y369631D01*
X111665Y369728D01*
X111471Y369825D01*
X111318Y369922D01*
X111180Y370005D01*
X111069Y370088D01*
X110999Y370144D01*
X110944Y370172D01*
X110930Y370185D01*
X110680Y370407D01*
X110445Y370643D01*
X110223Y370893D01*
X110015Y371156D01*
X109834Y371433D01*
X109668Y371697D01*
X109501Y371960D01*
X109363Y372210D01*
X109252Y372446D01*
X109141Y372668D01*
X109058Y372876D01*
X108975Y373042D01*
X108919Y373195D01*
X108877Y373292D01*
X108864Y373361D01*
X108850Y373389D01*
X108725Y373791D01*
X108614Y374221D01*
X108517Y374665D01*
X108434Y375122D01*
X108309Y376024D01*
X108267Y376468D01*
X108226Y376898D01*
X108198Y377300D01*
X108184Y377660D01*
X108170Y377993D01*
X108156Y378284D01*
Y378409D01*
X108142Y378520D01*
Y378617D01*
Y378687D01*
Y378756D01*
Y378798D01*
Y378825D01*
Y378839D01*
Y379366D01*
X108156Y379852D01*
X108184Y380323D01*
X108212Y380753D01*
X108239Y381155D01*
X108281Y381530D01*
X108323Y381876D01*
X108364Y382182D01*
X108406Y382459D01*
X108448Y382695D01*
X108489Y382903D01*
X108517Y383069D01*
X108545Y383208D01*
X108572Y383291D01*
X108586Y383360D01*
Y383374D01*
X108669Y383679D01*
X108766Y383984D01*
X108850Y384262D01*
X108947Y384525D01*
X109058Y384775D01*
X109155Y385011D01*
X109252Y385233D01*
X109349Y385427D01*
X109432Y385607D01*
X109515Y385760D01*
X109585Y385898D01*
X109654Y386009D01*
X109710Y386092D01*
X109751Y386162D01*
X109765Y386203D01*
X109779Y386217D01*
X110070Y386633D01*
X110389Y386994D01*
X110708Y387313D01*
X111013Y387562D01*
X111152Y387673D01*
X111291Y387757D01*
X111402Y387840D01*
X111499Y387909D01*
X111582Y387951D01*
X111637Y387992D01*
X111679Y388020D01*
X111693D01*
X111915Y388131D01*
X112136Y388228D01*
X112608Y388381D01*
X113066Y388492D01*
X113482Y388561D01*
X113676Y388589D01*
X113842Y388616D01*
X114009Y388630D01*
X114134D01*
X114244Y388644D01*
X114397D01*
X114785Y388630D01*
D02*
G37*
G36*
X99877D02*
X100237Y388603D01*
X100584Y388547D01*
X100917Y388464D01*
X101222Y388381D01*
X101513Y388284D01*
X101777Y388186D01*
X102013Y388089D01*
X102234Y387979D01*
X102415Y387881D01*
X102581Y387784D01*
X102720Y387701D01*
X102831Y387632D01*
X102900Y387576D01*
X102956Y387535D01*
X102970Y387521D01*
X103219Y387299D01*
X103455Y387063D01*
X103677Y386814D01*
X103885Y386550D01*
X104065Y386287D01*
X104232Y386009D01*
X104398Y385746D01*
X104523Y385496D01*
X104648Y385260D01*
X104759Y385038D01*
X104842Y384830D01*
X104925Y384664D01*
X104980Y384511D01*
X105022Y384414D01*
X105036Y384345D01*
X105050Y384317D01*
X105175Y383915D01*
X105272Y383485D01*
X105369Y383041D01*
X105452Y382584D01*
X105577Y381668D01*
X105618Y381225D01*
X105660Y380795D01*
X105688Y380392D01*
X105702Y380018D01*
X105716Y379685D01*
X105729Y379408D01*
Y379283D01*
X105743Y379172D01*
Y379075D01*
Y378992D01*
Y378922D01*
Y378881D01*
Y378853D01*
Y378839D01*
Y378340D01*
X105716Y377855D01*
X105702Y377397D01*
X105660Y376953D01*
X105618Y376523D01*
X105563Y376107D01*
X105507Y375719D01*
X105452Y375344D01*
X105383Y374970D01*
X105299Y374637D01*
X105230Y374304D01*
X105147Y373999D01*
X105064Y373694D01*
X104980Y373417D01*
X104883Y373153D01*
X104800Y372904D01*
X104717Y372682D01*
X104620Y372460D01*
X104537Y372266D01*
X104453Y372071D01*
X104370Y371905D01*
X104301Y371753D01*
X104218Y371614D01*
X104148Y371489D01*
X104093Y371378D01*
X104037Y371295D01*
X103982Y371212D01*
X103940Y371142D01*
X103899Y371101D01*
X103871Y371059D01*
X103857Y371045D01*
Y371031D01*
X103552Y370685D01*
X103219Y370379D01*
X102872Y370116D01*
X102512Y369894D01*
X102137Y369700D01*
X101777Y369547D01*
X101430Y369409D01*
X101083Y369312D01*
X100751Y369228D01*
X100459Y369173D01*
X100182Y369118D01*
X99946Y369090D01*
X99752Y369076D01*
X99613Y369062D01*
X99488D01*
X99100Y369076D01*
X98740Y369118D01*
X98393Y369173D01*
X98060Y369242D01*
X97755Y369325D01*
X97478Y369423D01*
X97214Y369520D01*
X96965Y369631D01*
X96756Y369728D01*
X96562Y369825D01*
X96410Y369922D01*
X96271Y370005D01*
X96160Y370088D01*
X96091Y370144D01*
X96035Y370172D01*
X96021Y370185D01*
X95772Y370407D01*
X95536Y370643D01*
X95314Y370893D01*
X95106Y371156D01*
X94926Y371433D01*
X94759Y371697D01*
X94593Y371960D01*
X94454Y372210D01*
X94343Y372446D01*
X94232Y372668D01*
X94149Y372876D01*
X94066Y373042D01*
X94010Y373195D01*
X93969Y373292D01*
X93955Y373361D01*
X93941Y373389D01*
X93816Y373791D01*
X93705Y374221D01*
X93608Y374665D01*
X93525Y375122D01*
X93400Y376024D01*
X93359Y376468D01*
X93317Y376898D01*
X93289Y377300D01*
X93275Y377660D01*
X93262Y377993D01*
X93248Y378284D01*
Y378409D01*
X93234Y378520D01*
Y378617D01*
Y378687D01*
Y378756D01*
Y378798D01*
Y378825D01*
Y378839D01*
Y379366D01*
X93248Y379852D01*
X93275Y380323D01*
X93303Y380753D01*
X93331Y381155D01*
X93373Y381530D01*
X93414Y381876D01*
X93456Y382182D01*
X93497Y382459D01*
X93539Y382695D01*
X93581Y382903D01*
X93608Y383069D01*
X93636Y383208D01*
X93664Y383291D01*
X93678Y383360D01*
Y383374D01*
X93761Y383679D01*
X93858Y383984D01*
X93941Y384262D01*
X94038Y384525D01*
X94149Y384775D01*
X94246Y385011D01*
X94343Y385233D01*
X94440Y385427D01*
X94524Y385607D01*
X94607Y385760D01*
X94676Y385898D01*
X94746Y386009D01*
X94801Y386092D01*
X94843Y386162D01*
X94857Y386203D01*
X94870Y386217D01*
X95162Y386633D01*
X95481Y386994D01*
X95800Y387313D01*
X96105Y387562D01*
X96243Y387673D01*
X96382Y387757D01*
X96493Y387840D01*
X96590Y387909D01*
X96673Y387951D01*
X96729Y387992D01*
X96770Y388020D01*
X96784D01*
X97006Y388131D01*
X97228Y388228D01*
X97699Y388381D01*
X98157Y388492D01*
X98573Y388561D01*
X98767Y388589D01*
X98934Y388616D01*
X99100Y388630D01*
X99225D01*
X99336Y388644D01*
X99488D01*
X99877Y388630D01*
D02*
G37*
G36*
X84968D02*
X85329Y388603D01*
X85676Y388547D01*
X86009Y388464D01*
X86314Y388381D01*
X86605Y388284D01*
X86868Y388186D01*
X87104Y388089D01*
X87326Y387979D01*
X87506Y387881D01*
X87673Y387784D01*
X87811Y387701D01*
X87922Y387632D01*
X87992Y387576D01*
X88047Y387535D01*
X88061Y387521D01*
X88311Y387299D01*
X88546Y387063D01*
X88768Y386814D01*
X88976Y386550D01*
X89157Y386287D01*
X89323Y386009D01*
X89489Y385746D01*
X89614Y385496D01*
X89739Y385260D01*
X89850Y385038D01*
X89933Y384830D01*
X90016Y384664D01*
X90072Y384511D01*
X90113Y384414D01*
X90127Y384345D01*
X90141Y384317D01*
X90266Y383915D01*
X90363Y383485D01*
X90460Y383041D01*
X90543Y382584D01*
X90668Y381668D01*
X90710Y381225D01*
X90751Y380795D01*
X90779Y380392D01*
X90793Y380018D01*
X90807Y379685D01*
X90821Y379408D01*
Y379283D01*
X90835Y379172D01*
Y379075D01*
Y378992D01*
Y378922D01*
Y378881D01*
Y378853D01*
Y378839D01*
Y378340D01*
X90807Y377855D01*
X90793Y377397D01*
X90751Y376953D01*
X90710Y376523D01*
X90654Y376107D01*
X90599Y375719D01*
X90543Y375344D01*
X90474Y374970D01*
X90391Y374637D01*
X90322Y374304D01*
X90238Y373999D01*
X90155Y373694D01*
X90072Y373417D01*
X89975Y373153D01*
X89892Y372904D01*
X89808Y372682D01*
X89711Y372460D01*
X89628Y372266D01*
X89545Y372071D01*
X89462Y371905D01*
X89392Y371753D01*
X89309Y371614D01*
X89240Y371489D01*
X89184Y371378D01*
X89129Y371295D01*
X89073Y371212D01*
X89032Y371142D01*
X88990Y371101D01*
X88962Y371059D01*
X88949Y371045D01*
Y371031D01*
X88644Y370685D01*
X88311Y370379D01*
X87964Y370116D01*
X87603Y369894D01*
X87229Y369700D01*
X86868Y369547D01*
X86522Y369409D01*
X86175Y369312D01*
X85842Y369228D01*
X85551Y369173D01*
X85273Y369118D01*
X85038Y369090D01*
X84844Y369076D01*
X84705Y369062D01*
X84580D01*
X84192Y369076D01*
X83831Y369118D01*
X83484Y369173D01*
X83152Y369242D01*
X82846Y369325D01*
X82569Y369423D01*
X82306Y369520D01*
X82056Y369631D01*
X81848Y369728D01*
X81654Y369825D01*
X81501Y369922D01*
X81363Y370005D01*
X81252Y370088D01*
X81182Y370144D01*
X81127Y370172D01*
X81113Y370185D01*
X80863Y370407D01*
X80627Y370643D01*
X80406Y370893D01*
X80198Y371156D01*
X80017Y371433D01*
X79851Y371697D01*
X79685Y371960D01*
X79546Y372210D01*
X79435Y372446D01*
X79324Y372668D01*
X79241Y372876D01*
X79158Y373042D01*
X79102Y373195D01*
X79060Y373292D01*
X79047Y373361D01*
X79033Y373389D01*
X78908Y373791D01*
X78797Y374221D01*
X78700Y374665D01*
X78617Y375122D01*
X78492Y376024D01*
X78450Y376468D01*
X78409Y376898D01*
X78381Y377300D01*
X78367Y377660D01*
X78353Y377993D01*
X78339Y378284D01*
Y378409D01*
X78325Y378520D01*
Y378617D01*
Y378687D01*
Y378756D01*
Y378798D01*
Y378825D01*
Y378839D01*
Y379366D01*
X78339Y379852D01*
X78367Y380323D01*
X78395Y380753D01*
X78422Y381155D01*
X78464Y381530D01*
X78506Y381876D01*
X78547Y382182D01*
X78589Y382459D01*
X78630Y382695D01*
X78672Y382903D01*
X78700Y383069D01*
X78728Y383208D01*
X78755Y383291D01*
X78769Y383360D01*
Y383374D01*
X78852Y383679D01*
X78949Y383984D01*
X79033Y384262D01*
X79130Y384525D01*
X79241Y384775D01*
X79338Y385011D01*
X79435Y385233D01*
X79532Y385427D01*
X79615Y385607D01*
X79698Y385760D01*
X79768Y385898D01*
X79837Y386009D01*
X79893Y386092D01*
X79934Y386162D01*
X79948Y386203D01*
X79962Y386217D01*
X80253Y386633D01*
X80572Y386994D01*
X80891Y387313D01*
X81196Y387562D01*
X81335Y387673D01*
X81474Y387757D01*
X81584Y387840D01*
X81681Y387909D01*
X81765Y387951D01*
X81820Y387992D01*
X81862Y388020D01*
X81876D01*
X82098Y388131D01*
X82319Y388228D01*
X82791Y388381D01*
X83249Y388492D01*
X83665Y388561D01*
X83859Y388589D01*
X84025Y388616D01*
X84192Y388630D01*
X84317D01*
X84427Y388644D01*
X84580D01*
X84968Y388630D01*
D02*
G37*
%LPC*%
G36*
X230351Y386314D02*
X225913D01*
X225538Y386300D01*
X225192Y386273D01*
X224859Y386259D01*
X224568Y386217D01*
X224290Y386189D01*
X224055Y386148D01*
X223833Y386120D01*
X223652Y386078D01*
X223486Y386037D01*
X223347Y386009D01*
X223236Y385981D01*
X223153Y385954D01*
X223084Y385926D01*
X223056Y385912D01*
X223042D01*
X222779Y385801D01*
X222529Y385662D01*
X222293Y385510D01*
X222071Y385344D01*
X221863Y385163D01*
X221655Y384983D01*
X221475Y384803D01*
X221309Y384622D01*
X221156Y384442D01*
X221031Y384276D01*
X220920Y384123D01*
X220823Y383998D01*
X220740Y383887D01*
X220685Y383804D01*
X220657Y383749D01*
X220643Y383735D01*
X220463Y383416D01*
X220310Y383069D01*
X220185Y382709D01*
X220060Y382334D01*
X219963Y381946D01*
X219894Y381571D01*
X219825Y381183D01*
X219769Y380822D01*
X219728Y380476D01*
X219700Y380157D01*
X219672Y379865D01*
X219658Y379616D01*
X219644Y379408D01*
Y379325D01*
Y379255D01*
Y379186D01*
Y379144D01*
Y379131D01*
Y379117D01*
Y378714D01*
X219672Y378326D01*
X219686Y377966D01*
X219728Y377619D01*
X219769Y377300D01*
X219811Y376995D01*
X219852Y376703D01*
X219894Y376454D01*
X219949Y376218D01*
X219991Y376010D01*
X220033Y375830D01*
X220074Y375691D01*
X220116Y375566D01*
X220130Y375483D01*
X220158Y375428D01*
Y375414D01*
X220255Y375136D01*
X220366Y374873D01*
X220476Y374623D01*
X220587Y374388D01*
X220698Y374179D01*
X220823Y373971D01*
X220934Y373791D01*
X221045Y373625D01*
X221156Y373486D01*
X221253Y373347D01*
X221336Y373236D01*
X221406Y373153D01*
X221475Y373084D01*
X221517Y373028D01*
X221544Y373001D01*
X221558Y372987D01*
X221822Y372765D01*
X222099Y372557D01*
X222390Y372390D01*
X222668Y372252D01*
X222917Y372141D01*
X223014Y372085D01*
X223111Y372058D01*
X223181Y372030D01*
X223250Y372002D01*
X223278Y371988D01*
X223292D01*
X223500Y371933D01*
X223722Y371877D01*
X224207Y371794D01*
X224706Y371725D01*
X225178Y371683D01*
X225400Y371669D01*
X225608Y371655D01*
X225788D01*
X225941Y371642D01*
X230351D01*
Y386314D01*
D02*
G37*
G36*
X114494Y386689D02*
X114425D01*
X114120Y386675D01*
X113828Y386619D01*
X113565Y386550D01*
X113301Y386439D01*
X113052Y386328D01*
X112830Y386189D01*
X112622Y386051D01*
X112428Y385912D01*
X112261Y385760D01*
X112109Y385621D01*
X111984Y385482D01*
X111873Y385371D01*
X111790Y385260D01*
X111734Y385191D01*
X111693Y385135D01*
X111679Y385122D01*
X111582Y384969D01*
X111485Y384789D01*
X111402Y384608D01*
X111318Y384400D01*
X111166Y383970D01*
X111041Y383485D01*
X110930Y382972D01*
X110833Y382445D01*
X110764Y381918D01*
X110708Y381405D01*
X110667Y380892D01*
X110625Y380420D01*
X110597Y379990D01*
Y379782D01*
X110583Y379602D01*
Y379436D01*
X110569Y379283D01*
Y379158D01*
Y379047D01*
Y378964D01*
Y378895D01*
Y378853D01*
Y378839D01*
Y378409D01*
X110583Y377993D01*
X110597Y377591D01*
X110611Y377217D01*
X110639Y376856D01*
X110667Y376509D01*
X110708Y376176D01*
X110736Y375871D01*
X110777Y375566D01*
X110833Y375289D01*
X110875Y375025D01*
X110916Y374776D01*
X110972Y374540D01*
X111027Y374332D01*
X111069Y374124D01*
X111124Y373930D01*
X111221Y373583D01*
X111332Y373306D01*
X111415Y373070D01*
X111499Y372876D01*
X111582Y372737D01*
X111637Y372640D01*
X111665Y372571D01*
X111679Y372557D01*
X111887Y372280D01*
X112109Y372044D01*
X112345Y371836D01*
X112566Y371655D01*
X112802Y371503D01*
X113024Y371378D01*
X113246Y371281D01*
X113454Y371198D01*
X113648Y371128D01*
X113828Y371087D01*
X113995Y371045D01*
X114134Y371031D01*
X114244Y371017D01*
X114328Y371004D01*
X114397D01*
X114688Y371017D01*
X114980Y371073D01*
X115257Y371142D01*
X115507Y371253D01*
X115756Y371364D01*
X115978Y371489D01*
X116186Y371642D01*
X116366Y371780D01*
X116547Y371919D01*
X116685Y372071D01*
X116824Y372196D01*
X116935Y372321D01*
X117018Y372418D01*
X117074Y372487D01*
X117115Y372543D01*
X117129Y372557D01*
X117226Y372709D01*
X117323Y372890D01*
X117407Y373070D01*
X117490Y373278D01*
X117642Y373708D01*
X117767Y374193D01*
X117864Y374706D01*
X117961Y375233D01*
X118031Y375760D01*
X118086Y376287D01*
X118128Y376787D01*
X118169Y377258D01*
X118197Y377702D01*
Y377896D01*
X118211Y378077D01*
Y378243D01*
Y378395D01*
X118225Y378520D01*
Y378631D01*
Y378728D01*
Y378784D01*
Y378825D01*
Y378839D01*
Y379269D01*
X118211Y379685D01*
X118197Y380087D01*
X118169Y380476D01*
X118141Y380836D01*
X118114Y381183D01*
X118072Y381516D01*
X118031Y381835D01*
X117989Y382140D01*
X117947Y382431D01*
X117892Y382709D01*
X117836Y382958D01*
X117795Y383208D01*
X117739Y383430D01*
X117684Y383652D01*
X117614Y383846D01*
X117504Y384206D01*
X117393Y384511D01*
X117296Y384761D01*
X117212Y384969D01*
X117129Y385122D01*
X117074Y385233D01*
X117032Y385302D01*
X117018Y385316D01*
X116824Y385551D01*
X116630Y385773D01*
X116422Y385954D01*
X116200Y386106D01*
X115992Y386245D01*
X115770Y386356D01*
X115562Y386439D01*
X115354Y386522D01*
X115160Y386578D01*
X114993Y386619D01*
X114827Y386647D01*
X114688Y386661D01*
X114577Y386675D01*
X114494Y386689D01*
D02*
G37*
G36*
X99586D02*
X99516D01*
X99211Y386675D01*
X98920Y386619D01*
X98656Y386550D01*
X98393Y386439D01*
X98143Y386328D01*
X97921Y386189D01*
X97713Y386051D01*
X97519Y385912D01*
X97353Y385760D01*
X97200Y385621D01*
X97075Y385482D01*
X96965Y385371D01*
X96881Y385260D01*
X96826Y385191D01*
X96784Y385135D01*
X96770Y385122D01*
X96673Y384969D01*
X96576Y384789D01*
X96493Y384608D01*
X96410Y384400D01*
X96257Y383970D01*
X96132Y383485D01*
X96021Y382972D01*
X95924Y382445D01*
X95855Y381918D01*
X95800Y381405D01*
X95758Y380892D01*
X95716Y380420D01*
X95689Y379990D01*
Y379782D01*
X95675Y379602D01*
Y379436D01*
X95661Y379283D01*
Y379158D01*
Y379047D01*
Y378964D01*
Y378895D01*
Y378853D01*
Y378839D01*
Y378409D01*
X95675Y377993D01*
X95689Y377591D01*
X95702Y377217D01*
X95730Y376856D01*
X95758Y376509D01*
X95800Y376176D01*
X95827Y375871D01*
X95869Y375566D01*
X95924Y375289D01*
X95966Y375025D01*
X96008Y374776D01*
X96063Y374540D01*
X96118Y374332D01*
X96160Y374124D01*
X96216Y373930D01*
X96313Y373583D01*
X96424Y373306D01*
X96507Y373070D01*
X96590Y372876D01*
X96673Y372737D01*
X96729Y372640D01*
X96756Y372571D01*
X96770Y372557D01*
X96978Y372280D01*
X97200Y372044D01*
X97436Y371836D01*
X97658Y371655D01*
X97894Y371503D01*
X98116Y371378D01*
X98337Y371281D01*
X98546Y371198D01*
X98740Y371128D01*
X98920Y371087D01*
X99086Y371045D01*
X99225Y371031D01*
X99336Y371017D01*
X99419Y371004D01*
X99488D01*
X99780Y371017D01*
X100071Y371073D01*
X100348Y371142D01*
X100598Y371253D01*
X100848Y371364D01*
X101069Y371489D01*
X101278Y371642D01*
X101458Y371780D01*
X101638Y371919D01*
X101777Y372071D01*
X101916Y372196D01*
X102027Y372321D01*
X102110Y372418D01*
X102165Y372487D01*
X102207Y372543D01*
X102221Y372557D01*
X102318Y372709D01*
X102415Y372890D01*
X102498Y373070D01*
X102581Y373278D01*
X102734Y373708D01*
X102859Y374193D01*
X102956Y374706D01*
X103053Y375233D01*
X103122Y375760D01*
X103177Y376287D01*
X103219Y376787D01*
X103261Y377258D01*
X103288Y377702D01*
Y377896D01*
X103302Y378077D01*
Y378243D01*
Y378395D01*
X103316Y378520D01*
Y378631D01*
Y378728D01*
Y378784D01*
Y378825D01*
Y378839D01*
Y379269D01*
X103302Y379685D01*
X103288Y380087D01*
X103261Y380476D01*
X103233Y380836D01*
X103205Y381183D01*
X103164Y381516D01*
X103122Y381835D01*
X103081Y382140D01*
X103039Y382431D01*
X102983Y382709D01*
X102928Y382958D01*
X102886Y383208D01*
X102831Y383430D01*
X102775Y383652D01*
X102706Y383846D01*
X102595Y384206D01*
X102484Y384511D01*
X102387Y384761D01*
X102304Y384969D01*
X102221Y385122D01*
X102165Y385233D01*
X102123Y385302D01*
X102110Y385316D01*
X101916Y385551D01*
X101721Y385773D01*
X101513Y385954D01*
X101291Y386106D01*
X101083Y386245D01*
X100862Y386356D01*
X100653Y386439D01*
X100445Y386522D01*
X100251Y386578D01*
X100085Y386619D01*
X99918Y386647D01*
X99780Y386661D01*
X99669Y386675D01*
X99586Y386689D01*
D02*
G37*
G36*
X84677D02*
X84608D01*
X84303Y386675D01*
X84011Y386619D01*
X83748Y386550D01*
X83484Y386439D01*
X83235Y386328D01*
X83013Y386189D01*
X82805Y386051D01*
X82611Y385912D01*
X82444Y385760D01*
X82292Y385621D01*
X82167Y385482D01*
X82056Y385371D01*
X81973Y385260D01*
X81917Y385191D01*
X81876Y385135D01*
X81862Y385122D01*
X81765Y384969D01*
X81668Y384789D01*
X81584Y384608D01*
X81501Y384400D01*
X81349Y383970D01*
X81224Y383485D01*
X81113Y382972D01*
X81016Y382445D01*
X80947Y381918D01*
X80891Y381405D01*
X80849Y380892D01*
X80808Y380420D01*
X80780Y379990D01*
Y379782D01*
X80766Y379602D01*
Y379436D01*
X80752Y379283D01*
Y379158D01*
Y379047D01*
Y378964D01*
Y378895D01*
Y378853D01*
Y378839D01*
Y378409D01*
X80766Y377993D01*
X80780Y377591D01*
X80794Y377217D01*
X80822Y376856D01*
X80849Y376509D01*
X80891Y376176D01*
X80919Y375871D01*
X80960Y375566D01*
X81016Y375289D01*
X81057Y375025D01*
X81099Y374776D01*
X81154Y374540D01*
X81210Y374332D01*
X81252Y374124D01*
X81307Y373930D01*
X81404Y373583D01*
X81515Y373306D01*
X81598Y373070D01*
X81681Y372876D01*
X81765Y372737D01*
X81820Y372640D01*
X81848Y372571D01*
X81862Y372557D01*
X82070Y372280D01*
X82292Y372044D01*
X82528Y371836D01*
X82749Y371655D01*
X82985Y371503D01*
X83207Y371378D01*
X83429Y371281D01*
X83637Y371198D01*
X83831Y371128D01*
X84011Y371087D01*
X84178Y371045D01*
X84317Y371031D01*
X84427Y371017D01*
X84511Y371004D01*
X84580D01*
X84871Y371017D01*
X85162Y371073D01*
X85440Y371142D01*
X85689Y371253D01*
X85939Y371364D01*
X86161Y371489D01*
X86369Y371642D01*
X86549Y371780D01*
X86730Y371919D01*
X86868Y372071D01*
X87007Y372196D01*
X87118Y372321D01*
X87201Y372418D01*
X87257Y372487D01*
X87298Y372543D01*
X87312Y372557D01*
X87409Y372709D01*
X87506Y372890D01*
X87590Y373070D01*
X87673Y373278D01*
X87825Y373708D01*
X87950Y374193D01*
X88047Y374706D01*
X88144Y375233D01*
X88214Y375760D01*
X88269Y376287D01*
X88311Y376787D01*
X88352Y377258D01*
X88380Y377702D01*
Y377896D01*
X88394Y378077D01*
Y378243D01*
Y378395D01*
X88408Y378520D01*
Y378631D01*
Y378728D01*
Y378784D01*
Y378825D01*
Y378839D01*
Y379269D01*
X88394Y379685D01*
X88380Y380087D01*
X88352Y380476D01*
X88324Y380836D01*
X88297Y381183D01*
X88255Y381516D01*
X88214Y381835D01*
X88172Y382140D01*
X88130Y382431D01*
X88075Y382709D01*
X88019Y382958D01*
X87978Y383208D01*
X87922Y383430D01*
X87867Y383652D01*
X87797Y383846D01*
X87687Y384206D01*
X87576Y384511D01*
X87479Y384761D01*
X87395Y384969D01*
X87312Y385122D01*
X87257Y385233D01*
X87215Y385302D01*
X87201Y385316D01*
X87007Y385551D01*
X86813Y385773D01*
X86605Y385954D01*
X86383Y386106D01*
X86175Y386245D01*
X85953Y386356D01*
X85745Y386439D01*
X85537Y386522D01*
X85343Y386578D01*
X85176Y386619D01*
X85010Y386647D01*
X84871Y386661D01*
X84760Y386675D01*
X84677Y386689D01*
D02*
G37*
G36*
X358730Y68730D02*
X352460D01*
Y61210D01*
X358730D01*
Y68730D01*
D02*
G37*
G36*
X112290Y90290D02*
X102770D01*
Y84270D01*
X112290D01*
Y90290D01*
D02*
G37*
G36*
X100230D02*
X90710D01*
Y84270D01*
X100230D01*
Y90290D01*
D02*
G37*
G36*
X112290Y81730D02*
X102770D01*
Y75710D01*
X112290D01*
Y81730D01*
D02*
G37*
G36*
X100230D02*
X90710D01*
Y75710D01*
X100230D01*
Y81730D01*
D02*
G37*
G36*
X387540Y78790D02*
X381270D01*
Y71270D01*
X387540D01*
Y78790D01*
D02*
G37*
G36*
X181651Y177540D02*
X181270D01*
Y166270D01*
X192540D01*
Y166651D01*
X191685Y169840D01*
X190035Y172700D01*
X187700Y175035D01*
X184840Y176685D01*
X181651Y177540D01*
D02*
G37*
G36*
X178730D02*
X178349D01*
X175160Y176685D01*
X172300Y175035D01*
X169965Y172700D01*
X168315Y169840D01*
X167460Y166651D01*
Y166270D01*
X178730D01*
Y177540D01*
D02*
G37*
G36*
X192540Y163730D02*
X181270D01*
Y152460D01*
X181651D01*
X184840Y153315D01*
X187700Y154965D01*
X190035Y157300D01*
X191685Y160160D01*
X192540Y163349D01*
Y163730D01*
D02*
G37*
G36*
X178730D02*
X167460D01*
Y163349D01*
X168315Y160160D01*
X169965Y157300D01*
X172300Y154965D01*
X175160Y153315D01*
X178349Y152460D01*
X178730D01*
Y163730D01*
D02*
G37*
G36*
X151270Y87540D02*
Y81270D01*
X158790D01*
Y87540D01*
X151270D01*
D02*
G37*
G36*
X158790Y78730D02*
X151270D01*
Y72460D01*
X158790D01*
Y78730D01*
D02*
G37*
G36*
X198730Y78790D02*
X192460D01*
Y71270D01*
X198730D01*
Y78790D01*
D02*
G37*
G36*
X227540D02*
X221270D01*
Y71270D01*
X227540D01*
Y78790D01*
D02*
G37*
G36*
X198730Y68730D02*
X192460D01*
Y61210D01*
X198730D01*
Y68730D01*
D02*
G37*
%LPD*%
D32*
X290000Y755000D02*
G03*
X285000Y760000I-5000J0D01*
G01*
X298545Y173545D02*
G03*
X300000Y177071I-3545J3526D01*
G01*
X309867Y142204D02*
G03*
X311320Y138680I5000J0D01*
G01*
X10000Y644922D02*
G03*
X10423Y642909I5000J0D01*
G01*
X348217Y690000D02*
G03*
X351742Y691455I0J5000D01*
G01*
X321455Y756455D02*
G03*
X320000Y752929I3545J-3526D01*
G01*
X328545Y763545D02*
G03*
X330000Y767071I-3545J3526D01*
G01*
X290000Y695000D02*
G03*
X285000Y700000I-5000J0D01*
G01*
X288535Y198535D02*
G03*
X290000Y202071I-3535J3535D01*
G01*
X320000Y148116D02*
G03*
X321465Y144581I5000J0D01*
G01*
X270000Y132071D02*
G03*
X271455Y128545I5000J0D01*
G01*
X349590Y116455D02*
G03*
X353116Y115000I3526J3545D01*
G01*
X330000Y857929D02*
G03*
X328535Y861464I-5000J0D01*
G01*
X280992Y789008D02*
G03*
X277429Y790500I-3563J-3508D01*
G01*
X301294Y766636D02*
G03*
X299838Y770162I-5000J0D01*
G01*
X294619Y808035D02*
G03*
X291084Y809500I-3536J-3536D01*
G01*
X310000Y790584D02*
G03*
X308535Y794119I-5000J0D01*
G01*
X145033Y712962D02*
G03*
X141497Y711497I0J-5000D01*
G01*
X238503Y711497D02*
G03*
X234967Y712962I-3535J-3535D01*
G01*
X248549Y701451D02*
G03*
X252064Y700000I3522J3549D01*
G01*
X127929Y700000D02*
G03*
X131455Y701455I0J5000D01*
G01*
X410978Y657342D02*
G03*
X411247Y657335I270J4993D01*
G01*
X71455Y130744D02*
G03*
X70000Y127218I3545J-3526D01*
G01*
X142782Y200000D02*
G03*
X139256Y198545I0J-5000D01*
G01*
X335000Y722504D02*
G03*
X330000Y717504I0J-5000D01*
G01*
Y664946D02*
G03*
X335000Y659946I5000J0D01*
G01*
X259370Y549200D02*
G03*
X258570Y550000I-800J0D01*
G01*
X119370Y549200D02*
G03*
X118570Y550000I-800J0D01*
G01*
X259370Y523800D02*
G03*
X253170Y530000I-6200J0D01*
G01*
X180630Y523800D02*
G03*
X194430Y510000I13800J0D01*
G01*
X119370Y523800D02*
G03*
X113170Y530000I-6200J0D01*
G01*
X40630Y523800D02*
G03*
X54430Y510000I13800J0D01*
G01*
X80000Y650800D02*
G03*
X54600Y676200I-25400J0D01*
G01*
X180630Y549200D02*
G03*
X200000Y568570I0J19370D01*
G01*
X40630Y549200D02*
G03*
X60000Y568570I0J19370D01*
G01*
X220000Y650800D02*
G03*
X194600Y676200I-25400J0D01*
G01*
X290000Y730000D02*
Y755000D01*
X309867Y142204D02*
Y739476D01*
X290000Y165000D02*
X298545Y173545D01*
X311320Y138680D02*
X311331Y138668D01*
X220000Y760000D02*
X285000D01*
X20000Y610000D02*
X20191Y609809D01*
X30821D01*
X10423Y642909D02*
X15000Y632500D01*
X10000Y644922D02*
Y1050000D01*
X15000Y632500D02*
X17500Y630000D01*
X405000Y990000D02*
Y1020000D01*
X172500Y937500D02*
X205000D01*
X207500Y940000D01*
X220000Y910000D02*
X257929D01*
X87500D02*
X220000D01*
X231387Y963887D02*
X256113D01*
X207500Y940000D02*
X231387Y963887D01*
X57500Y940000D02*
X87500Y910000D01*
X132500Y1060000D02*
X320000D01*
X132500Y990000D02*
Y1060000D01*
X182500Y965000D02*
Y1020000D01*
X57500Y990000D02*
Y1020000D01*
X57500Y990000D02*
X57500Y990000D01*
X82500Y965000D02*
Y1020000D01*
X207500Y990000D02*
Y1020000D01*
X395000Y725000D02*
Y756344D01*
X395283Y756627D01*
X376303Y716015D02*
Y731605D01*
X382583Y737885D01*
X351742Y691455D02*
X376303Y716015D01*
X382583Y737885D02*
Y756627D01*
X340850Y690000D02*
X348217D01*
X335000Y722504D02*
X356745D01*
X270000Y335000D02*
Y392500D01*
X269776Y392724D02*
X270000Y392500D01*
Y267071D02*
Y315000D01*
X330000Y767071D02*
Y857929D01*
X321455Y756455D02*
X328545Y763545D01*
X320000Y148116D02*
Y752929D01*
X180000Y50000D02*
Y68750D01*
X170000Y60000D02*
X176250Y66250D01*
X177500D01*
X180000Y68750D01*
Y70000D01*
X150000Y60000D02*
X170000D01*
X270000Y180000D02*
X288535Y198535D01*
X260000Y700000D02*
X285000D01*
X290000Y202071D02*
Y695000D01*
Y730000D02*
X300000Y720000D01*
Y177071D02*
Y720000D01*
X321465Y144580D02*
X349590Y116455D01*
X311331Y138668D02*
X360000Y90000D01*
X306117Y741976D02*
X309867Y739476D01*
X282500Y117500D02*
X290000Y115000D01*
X271455Y128545D02*
X282500Y117500D01*
X270000Y132071D02*
Y180000D01*
X256250Y700000D02*
X259370Y700000D01*
Y676200D02*
Y700000D01*
X260000D01*
X353116Y115000D02*
X400000D01*
X52196Y880000D02*
X250000D01*
X301294Y765080D02*
Y766636D01*
X282116Y787884D02*
X299838Y770162D01*
X280992Y789008D02*
X282116Y787884D01*
X270500Y790500D02*
X277429D01*
X301294Y765080D02*
X302160Y762580D01*
X259370Y600000D02*
X260000D01*
X294619Y808035D02*
X308535Y794119D01*
X270500Y809500D02*
X291084Y809500D01*
X310000Y780000D02*
Y790584D01*
X239500Y780000D02*
X249500Y790000D01*
Y800000D01*
X110000Y782929D02*
Y842250D01*
X112929Y780000D02*
X239500D01*
X110000Y842250D02*
X132250D01*
X110000Y782929D02*
X112929Y780000D01*
X340000Y70000D02*
Y70196D01*
X337500Y72696D02*
X340000Y70196D01*
X240000Y70000D02*
Y71250D01*
X242500Y73750D01*
X360000Y70000D02*
Y90000D01*
Y70000D02*
X360000Y70000D01*
X301817Y742733D02*
X304317Y740233D01*
X145033Y712962D02*
X234967D01*
X131455Y701455D02*
X141497Y711497D01*
X238503Y711497D02*
X248549Y701451D01*
X252064Y700000D02*
X256250D01*
X120000Y700000D02*
X127929D01*
X459571Y650000D02*
X469571Y660000D01*
X409066Y657446D02*
X410978Y657342D01*
X469571Y660000D02*
X470000D01*
X440000Y650000D02*
X459571D01*
X430054Y659946D02*
X440000Y650000D01*
X406566Y659946D02*
X430054D01*
X406566D02*
X409066Y657446D01*
X30821Y609809D02*
X40630Y600000D01*
X20000Y1060000D02*
X132500D01*
X330000Y990000D02*
Y1050000D01*
X320000Y1060000D02*
X330000Y1050000D01*
X10000Y1050000D02*
X20000Y1060000D01*
X71455Y130744D02*
X139256Y198545D01*
X70000Y70000D02*
Y127218D01*
X142782Y200000D02*
X267071D01*
X452929Y570000D02*
X470000D01*
X450000Y510000D02*
Y567071D01*
X452929Y570000D01*
X470000Y521750D02*
Y550000D01*
Y498250D02*
X470000Y498250D01*
Y460000D02*
Y498250D01*
X310000Y880000D02*
X328535Y861464D01*
X148145Y800431D02*
X177714Y830000D01*
X310000D01*
X250000Y880000D02*
X310000D01*
X335000Y659946D02*
X386566D01*
X330000Y664946D02*
Y717504D01*
X230000Y270000D02*
X267071D01*
X270000Y202929D02*
Y267071D01*
X267071Y270000D02*
X270000Y267071D01*
X267071Y200000D02*
X270000Y202929D01*
X80000Y60000D02*
X101500D01*
X70000Y70000D02*
X80000Y60000D01*
X190000Y30000D02*
X190000Y30000D01*
X190000Y30000D02*
Y40000D01*
X180000Y50000D02*
X190000Y40000D01*
X101500Y37000D02*
X147000D01*
X150000Y40000D02*
Y60000D01*
X147000Y37000D02*
X150000Y40000D01*
X430000Y145000D02*
Y242250D01*
X400000Y115000D02*
X430000Y145000D01*
Y242250D02*
X452250D01*
X456250Y246250D01*
Y247500D01*
X458750Y250000D01*
X460000D01*
X430000Y277750D02*
Y320000D01*
X430000Y320000D01*
X290000Y30000D02*
X349000D01*
X241000D02*
X290000D01*
Y115000D01*
X180000Y70000D02*
Y115000D01*
X180000Y115000D01*
X400000Y70000D02*
Y115000D01*
X400000Y115000D01*
X215500Y30000D02*
Y64250D01*
X241000Y30000D02*
Y69000D01*
X340000Y50000D02*
X347196Y42804D01*
Y31804D02*
X349000Y30000D01*
X347196Y31804D02*
Y42804D01*
X374500Y30000D02*
Y63321D01*
X400000Y30000D02*
Y70000D01*
X380000Y68750D02*
Y70000D01*
X377500Y66250D02*
X380000Y68750D01*
X377429Y66250D02*
X377500D01*
X360000Y70000D02*
X380000D01*
X374500Y63321D02*
X377429Y66250D01*
X340000Y50000D02*
Y70000D01*
X240000D02*
X241000Y69000D01*
X220000Y68750D02*
Y70000D01*
X200000D02*
X220000D01*
X215500Y64250D02*
X220000Y68750D01*
X119370Y697500D02*
X120000Y700000D01*
X119370Y676200D02*
Y697500D01*
X240000Y550000D02*
X258570D01*
X100000D02*
X118570D01*
X80000Y510000D02*
Y570000D01*
Y650800D01*
X40630Y676200D02*
X54600D01*
X240000Y530000D02*
X253170D01*
X200000Y568570D02*
Y570000D01*
X194430Y510000D02*
X200000D01*
X54430D02*
X60000D01*
Y568570D02*
Y570000D01*
X100000Y530000D02*
X113170D01*
X220000Y570000D02*
Y650800D01*
X180630Y676200D02*
X194600D01*
X220000Y550000D02*
Y565792D01*
X219632D02*
Y569632D01*
X220000Y570000D01*
X220000Y530000D02*
Y550000D01*
Y510000D02*
Y530000D01*
X197500Y567500D02*
X200000Y570000D01*
X197500Y566070D02*
Y567500D01*
X101500Y60000D02*
X130000D01*
X470000Y570000D02*
X470000Y570000D01*
X255000Y990000D02*
Y1014571D01*
X253750Y1015821D02*
X255000Y1014571D01*
X253750Y1015821D02*
Y1017500D01*
X251250Y1020000D02*
X253750Y1017500D01*
X250000Y1020000D02*
X251250D01*
X58750D02*
X61250Y1017500D01*
X57500Y1020000D02*
X58750D01*
X460000Y780000D02*
Y807071D01*
X420000Y810000D02*
X457071D01*
X460000Y807071D01*
X414544Y810867D02*
X416214Y812536D01*
X130000Y840000D02*
X132250Y842250D01*
X140000Y850000D01*
X450000Y490000D02*
Y510000D01*
X422929Y434600D02*
X444600D01*
X420000Y437529D02*
X422929Y434600D01*
X420000Y437529D02*
Y460000D01*
X450000Y490000D01*
X398815Y412129D02*
X401744Y409200D01*
X444600D01*
X398815Y412129D02*
Y612721D01*
X369883Y738025D02*
X376303Y731605D01*
X369883Y738025D02*
Y756627D01*
X356745Y722504D02*
Y756189D01*
X357183Y756627D01*
X395283Y810867D02*
X414544D01*
X405719Y845719D02*
Y859023D01*
X382583Y822583D02*
X405719Y845719D01*
X382583Y810867D02*
Y822583D01*
X370000Y840000D02*
Y860000D01*
X369883Y810867D02*
Y839883D01*
X370000Y840000D01*
X405497Y859142D02*
X405564Y859075D01*
X405959Y878512D02*
Y939042D01*
X403804Y876358D02*
X405959Y878512D01*
X350000Y910000D02*
X370000D01*
X257929D02*
X350000D01*
Y882929D02*
X352929Y880000D01*
X350000Y882929D02*
Y910000D01*
X352929Y880000D02*
X370000D01*
X390000Y910000D02*
X404912D01*
X255000Y912929D02*
Y940000D01*
Y912929D02*
X257929Y910000D01*
X405000Y940000D02*
X405959Y939042D01*
X280000Y965000D02*
Y968049D01*
X380000Y965000D02*
Y1020000D01*
Y965000D02*
X380000Y965000D01*
X405000Y990000D02*
Y995477D01*
X280000Y940000D02*
X293549D01*
X318190Y964641D01*
X256113Y963887D02*
X280000Y940000D01*
X170000Y850000D02*
X280000D01*
X146538Y826538D02*
X170000Y850000D01*
X146004Y826538D02*
X146538D01*
X144765Y794225D02*
Y796309D01*
X148145Y799689D02*
Y800431D01*
X144765Y796309D02*
X148145Y799689D01*
X318190Y964641D02*
X345359D01*
X370000Y940000D01*
X405000D01*
D33*
X340000Y70000D02*
D03*
X360000D02*
D03*
X180000D02*
D03*
X200000D02*
D03*
X240000D02*
D03*
X220000D02*
D03*
X400000D02*
D03*
X380000D02*
D03*
X100000Y550000D02*
D03*
X80000D02*
D03*
X60000Y570000D02*
D03*
X80000D02*
D03*
X60000Y510000D02*
D03*
X80000D02*
D03*
X80000Y530000D02*
D03*
X100000D02*
D03*
X240000Y550000D02*
D03*
X220000D02*
D03*
Y530000D02*
D03*
X240000D02*
D03*
X200000Y510000D02*
D03*
X220000D02*
D03*
X200000Y570000D02*
D03*
X220000D02*
D03*
X406566Y659946D02*
D03*
X386566D02*
D03*
X370000Y910000D02*
D03*
X390000D02*
D03*
D34*
X270000Y315000D02*
D03*
Y335000D02*
D03*
X17500Y610000D02*
D03*
Y630000D02*
D03*
X460000Y270000D02*
D03*
Y250000D02*
D03*
X120000Y720000D02*
D03*
Y700000D02*
D03*
X260000D02*
D03*
Y720000D02*
D03*
X130000Y60000D02*
D03*
Y80000D02*
D03*
X150000Y80000D02*
D03*
Y60000D02*
D03*
X470000Y550000D02*
D03*
Y570000D02*
D03*
X306117Y761976D02*
D03*
Y741976D02*
D03*
X405000Y1040000D02*
D03*
Y1020000D02*
D03*
X405497Y879142D02*
D03*
Y859142D02*
D03*
X420000Y810000D02*
D03*
Y830000D02*
D03*
X370000Y880000D02*
D03*
Y860000D02*
D03*
X280000Y1040000D02*
D03*
Y1020000D02*
D03*
X380000D02*
D03*
Y1040000D02*
D03*
X255000Y1020000D02*
D03*
Y1040000D02*
D03*
X172500Y917500D02*
D03*
Y937500D02*
D03*
X182500Y1020000D02*
D03*
Y1040000D02*
D03*
X82500Y1020000D02*
D03*
Y1040000D02*
D03*
X207500Y1020000D02*
D03*
Y1040000D02*
D03*
X57500Y1020000D02*
D03*
Y1040000D02*
D03*
D38*
X430000Y277750D02*
D03*
Y242250D02*
D03*
X110000Y842250D02*
D03*
Y877750D02*
D03*
D42*
X57500Y940000D02*
D03*
X207500D02*
D03*
X132500D02*
D03*
X57500Y990000D02*
D03*
X207500D02*
D03*
X132500D02*
D03*
X82500Y965000D02*
D03*
X182500D02*
D03*
Y1090000D02*
D03*
X82500D02*
D03*
X255000Y940000D02*
D03*
X405000D02*
D03*
X330000D02*
D03*
X255000Y990000D02*
D03*
X405000D02*
D03*
X330000D02*
D03*
X280000Y965000D02*
D03*
X380000D02*
D03*
Y1090000D02*
D03*
X280000D02*
D03*
D43*
X40000Y220000D02*
D03*
X470000Y40000D02*
D03*
Y1060000D02*
D03*
D44*
X349000Y30000D02*
D03*
X374500D02*
D03*
X190000D02*
D03*
X215500D02*
D03*
D45*
X400000D02*
D03*
X241000D02*
D03*
D46*
X70000Y165000D02*
D03*
X400000D02*
D03*
X210800Y240000D02*
D03*
X185400D02*
D03*
X134600D02*
D03*
X160000D02*
D03*
X236200D02*
D03*
X290000Y165000D02*
D03*
X470000Y736200D02*
D03*
Y660000D02*
D03*
Y634600D02*
D03*
Y685400D02*
D03*
Y710800D02*
D03*
X455000Y320000D02*
D03*
X180000Y165000D02*
D03*
D47*
X70000Y115000D02*
D03*
X400000D02*
D03*
X290000D02*
D03*
X180000D02*
D03*
D48*
X109200Y240000D02*
D03*
D49*
X180630Y676200D02*
D03*
X40630D02*
D03*
D50*
X180630Y650800D02*
D03*
Y625400D02*
D03*
Y600000D02*
D03*
Y574600D02*
D03*
Y549200D02*
D03*
Y523800D02*
D03*
X259370D02*
D03*
Y549200D02*
D03*
Y574600D02*
D03*
Y600000D02*
D03*
Y625400D02*
D03*
Y650800D02*
D03*
Y676200D02*
D03*
X40630Y650800D02*
D03*
Y625400D02*
D03*
Y600000D02*
D03*
Y574600D02*
D03*
Y549200D02*
D03*
Y523800D02*
D03*
X119370D02*
D03*
Y549200D02*
D03*
Y574600D02*
D03*
Y600000D02*
D03*
Y625400D02*
D03*
Y650800D02*
D03*
Y676200D02*
D03*
X470000Y460000D02*
D03*
Y409200D02*
D03*
Y434600D02*
D03*
X444600D02*
D03*
Y409200D02*
D03*
D51*
X470000Y609200D02*
D03*
D52*
X430000Y320000D02*
D03*
D53*
X444600Y460000D02*
D03*
D54*
X395000Y725000D02*
D03*
X356745Y722504D02*
D03*
X269776Y392724D02*
D03*
X310000Y780000D02*
D03*
X220000Y760000D02*
D03*
X440000Y600000D02*
D03*
X80000Y760000D02*
D03*
X150000Y700000D02*
D03*
X440000Y670000D02*
D03*
X345954Y425676D02*
D03*
X310000Y830000D02*
D03*
X340850Y690000D02*
D03*
X230000Y270000D02*
D03*
X140000Y850000D02*
D03*
X250000Y880000D02*
D03*
X50000D02*
D03*
X460000Y780000D02*
D03*
X450000Y510000D02*
D03*
X398815Y612721D02*
D03*
X280000Y850000D02*
D03*
X146004Y826538D02*
D03*
X144765Y794225D02*
D03*
D55*
X220000Y666000D02*
D03*
Y734000D02*
D03*
X80000Y666000D02*
D03*
Y734000D02*
D03*
D56*
X38500Y60000D02*
D03*
D57*
X101500Y37000D02*
D03*
Y60000D02*
D03*
Y83000D02*
D03*
D58*
X470000Y498250D02*
D03*
Y521750D02*
D03*
D59*
X270500Y809500D02*
D03*
Y790500D02*
D03*
X249500Y800000D02*
D03*
D60*
X395283Y756627D02*
D03*
X382583D02*
D03*
X369883D02*
D03*
X357183D02*
D03*
Y810867D02*
D03*
X369883D02*
D03*
X382583D02*
D03*
X395283D02*
D03*
D61*
X484960Y117775D02*
Y102540D01*
Y110157D01*
X474803D01*
Y117775D01*
Y102540D01*
X469725Y117775D02*
Y102540D01*
X464647Y107618D01*
X459568Y102540D01*
Y117775D01*
X454490Y115236D02*
X451951Y117775D01*
X446872D01*
X444333Y115236D01*
Y105079D01*
X446872Y102540D01*
X451951D01*
X454490Y105079D01*
Y115236D01*
X439255Y102540D02*
X434176D01*
X436716D01*
Y117775D01*
X439255Y115236D01*
M02*
