G04*
G04 #@! TF.GenerationSoftware,Altium Limited,Altium Designer,24.1.2 (44)*
G04*
G04 Layer_Color=8388736*
%FSLAX44Y44*%
%MOMM*%
G71*
G04*
G04 #@! TF.SameCoordinates,0FEA824A-C204-488D-A695-D1978D76774C*
G04*
G04*
G04 #@! TF.FilePolarity,Negative*
G04*
G01*
G75*
%ADD10R,1.3000X1.5500*%
%ADD11R,1.5500X1.3000*%
%ADD12R,1.4000X1.5000*%
%ADD13R,0.8016X1.6016*%
%ADD14R,1.6016X0.8016*%
%ADD15R,1.3700X1.0400*%
%ADD16R,0.9000X1.7750*%
%ADD17R,1.7750X0.9000*%
%ADD18R,2.3000X1.1000*%
%ADD19C,2.8240*%
%ADD20C,5.3000*%
%ADD21C,2.2800*%
%ADD22R,2.2800X2.2800*%
%ADD23C,2.3000*%
G04:AMPARAMS|DCode=24|XSize=2.3mm|YSize=2.3mm|CornerRadius=0mm|HoleSize=0mm|Usage=FLASHONLY|Rotation=90.000|XOffset=0mm|YOffset=0mm|HoleType=Round|Shape=Octagon|*
%AMOCTAGOND24*
4,1,8,0.5750,1.1500,-0.5750,1.1500,-1.1500,0.5750,-1.1500,-0.5750,-0.5750,-1.1500,0.5750,-1.1500,1.1500,-0.5750,1.1500,0.5750,0.5750,1.1500,0.0*
%
%ADD24OCTAGOND24*%

%ADD25R,2.3000X2.3000*%
%ADD26R,2.1000X2.1000*%
%ADD27C,2.1000*%
%ADD28R,2.3000X2.3000*%
G04:AMPARAMS|DCode=29|XSize=2.3mm|YSize=2.3mm|CornerRadius=0mm|HoleSize=0mm|Usage=FLASHONLY|Rotation=0.000|XOffset=0mm|YOffset=0mm|HoleType=Round|Shape=Octagon|*
%AMOCTAGOND29*
4,1,8,1.1500,-0.5750,1.1500,0.5750,0.5750,1.1500,-0.5750,1.1500,-1.1500,0.5750,-1.1500,-0.5750,-0.5750,-1.1500,0.5750,-1.1500,1.1500,-0.5750,0.0*
%
%ADD29OCTAGOND29*%

G04:AMPARAMS|DCode=30|XSize=2.1mm|YSize=2.1mm|CornerRadius=0mm|HoleSize=0mm|Usage=FLASHONLY|Rotation=270.000|XOffset=0mm|YOffset=0mm|HoleType=Round|Shape=Octagon|*
%AMOCTAGOND30*
4,1,8,-0.5250,-1.0500,0.5250,-1.0500,1.0500,-0.5250,1.0500,0.5250,0.5250,1.0500,-0.5250,1.0500,-1.0500,0.5250,-1.0500,-0.5250,-0.5250,-1.0500,0.0*
%
%ADD30OCTAGOND30*%

%ADD31C,1.5700*%
D10*
X406757Y705918D02*
D03*
X386757D02*
D03*
X310000Y390000D02*
D03*
X330000D02*
D03*
Y370000D02*
D03*
X310000D02*
D03*
X330000Y350000D02*
D03*
X310000D02*
D03*
X330000Y330000D02*
D03*
X310000D02*
D03*
X330000Y310000D02*
D03*
X310000D02*
D03*
X386747Y660047D02*
D03*
X406747D02*
D03*
X386000Y634750D02*
D03*
X406000D02*
D03*
X386747Y684992D02*
D03*
X406747D02*
D03*
X306509Y465800D02*
D03*
X326509D02*
D03*
D11*
X30000Y470000D02*
D03*
Y490000D02*
D03*
X50000D02*
D03*
Y470000D02*
D03*
X190000Y490000D02*
D03*
Y470000D02*
D03*
X110000Y490000D02*
D03*
Y470000D02*
D03*
X250000Y490000D02*
D03*
Y470000D02*
D03*
X20000Y620000D02*
D03*
Y600000D02*
D03*
X280000Y620000D02*
D03*
Y600000D02*
D03*
X160000Y620000D02*
D03*
Y600000D02*
D03*
X140000Y620000D02*
D03*
Y600000D02*
D03*
X100000Y720000D02*
D03*
Y740000D02*
D03*
X60000Y720000D02*
D03*
Y740000D02*
D03*
X240000D02*
D03*
Y720000D02*
D03*
X200000Y740000D02*
D03*
Y720000D02*
D03*
X280000D02*
D03*
Y740000D02*
D03*
X160000Y720000D02*
D03*
Y740000D02*
D03*
X140000Y720000D02*
D03*
Y740000D02*
D03*
X20000Y720000D02*
D03*
Y740000D02*
D03*
X260000D02*
D03*
Y720000D02*
D03*
X180000D02*
D03*
Y740000D02*
D03*
X120000D02*
D03*
Y720000D02*
D03*
X40000D02*
D03*
Y740000D02*
D03*
X230000Y470000D02*
D03*
Y490000D02*
D03*
X210000Y470000D02*
D03*
Y490000D02*
D03*
X90000Y470000D02*
D03*
Y490000D02*
D03*
X70000Y470000D02*
D03*
Y490000D02*
D03*
X270000Y490000D02*
D03*
Y470000D02*
D03*
X130000Y490000D02*
D03*
Y470000D02*
D03*
X170000Y490000D02*
D03*
Y470000D02*
D03*
X470000Y530000D02*
D03*
Y550000D02*
D03*
X327453Y425679D02*
D03*
Y445679D02*
D03*
X306723Y425641D02*
D03*
Y445641D02*
D03*
X430155Y653782D02*
D03*
Y633782D02*
D03*
X310000Y610000D02*
D03*
Y630000D02*
D03*
Y540000D02*
D03*
Y560000D02*
D03*
X250000Y270000D02*
D03*
Y290000D02*
D03*
D12*
X324000Y510000D02*
D03*
Y493000D02*
D03*
X310000D02*
D03*
Y510000D02*
D03*
D13*
X217850Y285230D02*
D03*
X205150D02*
D03*
X192450D02*
D03*
X179750D02*
D03*
X167050D02*
D03*
X154350D02*
D03*
X141650D02*
D03*
X128950D02*
D03*
X116250D02*
D03*
X103550D02*
D03*
X90850D02*
D03*
X78150D02*
D03*
X65450D02*
D03*
Y414770D02*
D03*
X78150D02*
D03*
X90850D02*
D03*
X103550D02*
D03*
X116250D02*
D03*
X128950D02*
D03*
X141650D02*
D03*
X154350D02*
D03*
X167050D02*
D03*
X179750D02*
D03*
X192450D02*
D03*
X205150D02*
D03*
X217850D02*
D03*
D14*
X222930Y305550D02*
D03*
Y318250D02*
D03*
Y330950D02*
D03*
Y343650D02*
D03*
Y356350D02*
D03*
Y369050D02*
D03*
Y381750D02*
D03*
Y394450D02*
D03*
D15*
X430000Y740000D02*
D03*
Y775500D02*
D03*
D16*
X362000Y592380D02*
D03*
X370000D02*
D03*
X378000D02*
D03*
X386000D02*
D03*
X394000D02*
D03*
X402000D02*
D03*
X410000D02*
D03*
X418000D02*
D03*
Y507620D02*
D03*
X410000D02*
D03*
X402000D02*
D03*
X394000D02*
D03*
X386000D02*
D03*
X378000D02*
D03*
X370000D02*
D03*
X362000D02*
D03*
D17*
X432380Y578000D02*
D03*
Y570000D02*
D03*
Y562000D02*
D03*
Y554000D02*
D03*
Y546000D02*
D03*
Y538000D02*
D03*
Y530000D02*
D03*
Y522000D02*
D03*
X347620D02*
D03*
Y530000D02*
D03*
Y538000D02*
D03*
Y546000D02*
D03*
Y554000D02*
D03*
Y562000D02*
D03*
Y570000D02*
D03*
Y578000D02*
D03*
D18*
X250000Y848000D02*
D03*
Y816000D02*
D03*
Y794000D02*
D03*
Y772000D02*
D03*
X190000D02*
D03*
Y794000D02*
D03*
Y816000D02*
D03*
Y848000D02*
D03*
X110000D02*
D03*
Y816000D02*
D03*
Y794000D02*
D03*
Y772000D02*
D03*
X50000D02*
D03*
Y794000D02*
D03*
Y816000D02*
D03*
Y848000D02*
D03*
D19*
X57500Y940000D02*
D03*
X207500D02*
D03*
X132500D02*
D03*
X57500Y990000D02*
D03*
X207500D02*
D03*
X132500D02*
D03*
X82500Y965000D02*
D03*
X182500D02*
D03*
Y1090000D02*
D03*
X82500D02*
D03*
X255000Y940000D02*
D03*
X405000D02*
D03*
X330000D02*
D03*
X255000Y990000D02*
D03*
X405000D02*
D03*
X330000D02*
D03*
X280000Y965000D02*
D03*
X380000D02*
D03*
Y1090000D02*
D03*
X280000D02*
D03*
D20*
X40000Y220000D02*
D03*
X470000Y40000D02*
D03*
Y1060000D02*
D03*
D21*
X349000Y30000D02*
D03*
X374500D02*
D03*
X190000D02*
D03*
X215500D02*
D03*
D22*
X400000D02*
D03*
X241000D02*
D03*
D23*
X70000Y165000D02*
D03*
X400000D02*
D03*
X210800Y240000D02*
D03*
X185400D02*
D03*
X134600D02*
D03*
X160000D02*
D03*
X236200D02*
D03*
X290000Y165000D02*
D03*
X470000Y736200D02*
D03*
Y660000D02*
D03*
Y634600D02*
D03*
Y685400D02*
D03*
Y710800D02*
D03*
X455000Y320000D02*
D03*
X180000Y165000D02*
D03*
D24*
X70000Y115000D02*
D03*
X400000D02*
D03*
X290000D02*
D03*
X180000D02*
D03*
D25*
X109200Y240000D02*
D03*
D26*
X180630Y676200D02*
D03*
X40630D02*
D03*
D27*
X180630Y650800D02*
D03*
Y625400D02*
D03*
Y600000D02*
D03*
Y574600D02*
D03*
Y549200D02*
D03*
Y523800D02*
D03*
X259370D02*
D03*
Y549200D02*
D03*
Y574600D02*
D03*
Y600000D02*
D03*
Y625400D02*
D03*
Y650800D02*
D03*
Y676200D02*
D03*
X40630Y650800D02*
D03*
Y625400D02*
D03*
Y600000D02*
D03*
Y574600D02*
D03*
Y549200D02*
D03*
Y523800D02*
D03*
X119370D02*
D03*
Y549200D02*
D03*
Y574600D02*
D03*
Y600000D02*
D03*
Y625400D02*
D03*
Y650800D02*
D03*
Y676200D02*
D03*
X470000Y460000D02*
D03*
Y409200D02*
D03*
Y434600D02*
D03*
X444600D02*
D03*
Y409200D02*
D03*
D28*
X470000Y609200D02*
D03*
D29*
X430000Y320000D02*
D03*
D30*
X444600Y460000D02*
D03*
D31*
X395000Y725000D02*
D03*
X356745Y722504D02*
D03*
X269776Y392724D02*
D03*
X310000Y780000D02*
D03*
X220000Y760000D02*
D03*
X440000Y600000D02*
D03*
X80000Y760000D02*
D03*
X150000Y700000D02*
D03*
X440000Y670000D02*
D03*
X345954Y425676D02*
D03*
X310000Y830000D02*
D03*
X340850Y690000D02*
D03*
X230000Y270000D02*
D03*
X140000Y850000D02*
D03*
X250000Y880000D02*
D03*
X50000D02*
D03*
X460000Y780000D02*
D03*
X450000Y510000D02*
D03*
X398815Y612721D02*
D03*
X280000Y850000D02*
D03*
X146004Y826538D02*
D03*
X144765Y794225D02*
D03*
M02*
