G04*
G04 #@! TF.GenerationSoftware,Altium Limited,Altium Designer,24.1.2 (44)*
G04*
G04 Layer_Color=16711935*
%FSLAX44Y44*%
%MOMM*%
G71*
G04*
G04 #@! TF.SameCoordinates,0FEA824A-C204-488D-A695-D1978D76774C*
G04*
G04*
G04 #@! TF.FilePolarity,Negative*
G04*
G01*
G75*
%ADD10R,1.3000X1.5500*%
%ADD11R,1.5500X1.3000*%
%ADD15R,1.3700X1.0400*%
%ADD19C,2.8240*%
%ADD20C,5.3000*%
%ADD21C,2.2800*%
%ADD22R,2.2800X2.2800*%
%ADD23C,2.3000*%
G04:AMPARAMS|DCode=24|XSize=2.3mm|YSize=2.3mm|CornerRadius=0mm|HoleSize=0mm|Usage=FLASHONLY|Rotation=90.000|XOffset=0mm|YOffset=0mm|HoleType=Round|Shape=Octagon|*
%AMOCTAGOND24*
4,1,8,0.5750,1.1500,-0.5750,1.1500,-1.1500,0.5750,-1.1500,-0.5750,-0.5750,-1.1500,0.5750,-1.1500,1.1500,-0.5750,1.1500,0.5750,0.5750,1.1500,0.0*
%
%ADD24OCTAGOND24*%

%ADD25R,2.3000X2.3000*%
%ADD26R,2.1000X2.1000*%
%ADD27C,2.1000*%
%ADD28R,2.3000X2.3000*%
G04:AMPARAMS|DCode=29|XSize=2.3mm|YSize=2.3mm|CornerRadius=0mm|HoleSize=0mm|Usage=FLASHONLY|Rotation=0.000|XOffset=0mm|YOffset=0mm|HoleType=Round|Shape=Octagon|*
%AMOCTAGOND29*
4,1,8,1.1500,-0.5750,1.1500,0.5750,0.5750,1.1500,-0.5750,1.1500,-1.1500,0.5750,-1.1500,-0.5750,-0.5750,-1.1500,0.5750,-1.1500,1.1500,-0.5750,0.0*
%
%ADD29OCTAGOND29*%

G04:AMPARAMS|DCode=30|XSize=2.1mm|YSize=2.1mm|CornerRadius=0mm|HoleSize=0mm|Usage=FLASHONLY|Rotation=270.000|XOffset=0mm|YOffset=0mm|HoleType=Round|Shape=Octagon|*
%AMOCTAGOND30*
4,1,8,-0.5250,-1.0500,0.5250,-1.0500,1.0500,-0.5250,1.0500,0.5250,0.5250,1.0500,-0.5250,1.0500,-1.0500,0.5250,-1.0500,-0.5250,-0.5250,-1.0500,0.0*
%
%ADD30OCTAGOND30*%

%ADD31C,1.5700*%
%ADD62R,4.6000X2.3000*%
%ADD63R,1.9500X3.5500*%
%ADD64R,1.9500X1.2500*%
%ADD65R,1.4000X1.5500*%
%ADD66R,1.6000X0.9000*%
%ADD67R,0.9500X1.8250*%
D10*
X340000Y70000D02*
D03*
X360000D02*
D03*
X180000D02*
D03*
X200000D02*
D03*
X240000D02*
D03*
X220000D02*
D03*
X400000D02*
D03*
X380000D02*
D03*
X100000Y550000D02*
D03*
X80000D02*
D03*
X60000Y570000D02*
D03*
X80000D02*
D03*
X60000Y510000D02*
D03*
X80000D02*
D03*
X80000Y530000D02*
D03*
X100000D02*
D03*
X240000Y550000D02*
D03*
X220000D02*
D03*
Y530000D02*
D03*
X240000D02*
D03*
X200000Y510000D02*
D03*
X220000D02*
D03*
X200000Y570000D02*
D03*
X220000D02*
D03*
X406566Y659946D02*
D03*
X386566D02*
D03*
X370000Y910000D02*
D03*
X390000D02*
D03*
D11*
X270000Y315000D02*
D03*
Y335000D02*
D03*
X17500Y610000D02*
D03*
Y630000D02*
D03*
X460000Y270000D02*
D03*
Y250000D02*
D03*
X120000Y720000D02*
D03*
Y700000D02*
D03*
X260000D02*
D03*
Y720000D02*
D03*
X130000Y60000D02*
D03*
Y80000D02*
D03*
X150000Y80000D02*
D03*
Y60000D02*
D03*
X470000Y550000D02*
D03*
Y570000D02*
D03*
X306117Y761976D02*
D03*
Y741976D02*
D03*
X405000Y1040000D02*
D03*
Y1020000D02*
D03*
X405497Y879142D02*
D03*
Y859142D02*
D03*
X420000Y810000D02*
D03*
Y830000D02*
D03*
X370000Y880000D02*
D03*
Y860000D02*
D03*
X280000Y1040000D02*
D03*
Y1020000D02*
D03*
X380000D02*
D03*
Y1040000D02*
D03*
X255000Y1020000D02*
D03*
Y1040000D02*
D03*
X172500Y917500D02*
D03*
Y937500D02*
D03*
X182500Y1020000D02*
D03*
Y1040000D02*
D03*
X82500Y1020000D02*
D03*
Y1040000D02*
D03*
X207500Y1020000D02*
D03*
Y1040000D02*
D03*
X57500Y1020000D02*
D03*
Y1040000D02*
D03*
D15*
X430000Y277750D02*
D03*
Y242250D02*
D03*
X110000Y842250D02*
D03*
Y877750D02*
D03*
D19*
X57500Y940000D02*
D03*
X207500D02*
D03*
X132500D02*
D03*
X57500Y990000D02*
D03*
X207500D02*
D03*
X132500D02*
D03*
X82500Y965000D02*
D03*
X182500D02*
D03*
Y1090000D02*
D03*
X82500D02*
D03*
X255000Y940000D02*
D03*
X405000D02*
D03*
X330000D02*
D03*
X255000Y990000D02*
D03*
X405000D02*
D03*
X330000D02*
D03*
X280000Y965000D02*
D03*
X380000D02*
D03*
Y1090000D02*
D03*
X280000D02*
D03*
D20*
X40000Y220000D02*
D03*
X470000Y40000D02*
D03*
Y1060000D02*
D03*
D21*
X349000Y30000D02*
D03*
X374500D02*
D03*
X190000D02*
D03*
X215500D02*
D03*
D22*
X400000D02*
D03*
X241000D02*
D03*
D23*
X70000Y165000D02*
D03*
X400000D02*
D03*
X210800Y240000D02*
D03*
X185400D02*
D03*
X134600D02*
D03*
X160000D02*
D03*
X236200D02*
D03*
X290000Y165000D02*
D03*
X470000Y736200D02*
D03*
Y660000D02*
D03*
Y634600D02*
D03*
Y685400D02*
D03*
Y710800D02*
D03*
X455000Y320000D02*
D03*
X180000Y165000D02*
D03*
D24*
X70000Y115000D02*
D03*
X400000D02*
D03*
X290000D02*
D03*
X180000D02*
D03*
D25*
X109200Y240000D02*
D03*
D26*
X180630Y676200D02*
D03*
X40630D02*
D03*
D27*
X180630Y650800D02*
D03*
Y625400D02*
D03*
Y600000D02*
D03*
Y574600D02*
D03*
Y549200D02*
D03*
Y523800D02*
D03*
X259370D02*
D03*
Y549200D02*
D03*
Y574600D02*
D03*
Y600000D02*
D03*
Y625400D02*
D03*
Y650800D02*
D03*
Y676200D02*
D03*
X40630Y650800D02*
D03*
Y625400D02*
D03*
Y600000D02*
D03*
Y574600D02*
D03*
Y549200D02*
D03*
Y523800D02*
D03*
X119370D02*
D03*
Y549200D02*
D03*
Y574600D02*
D03*
Y600000D02*
D03*
Y625400D02*
D03*
Y650800D02*
D03*
Y676200D02*
D03*
X470000Y460000D02*
D03*
Y409200D02*
D03*
Y434600D02*
D03*
X444600D02*
D03*
Y409200D02*
D03*
D28*
X470000Y609200D02*
D03*
D29*
X430000Y320000D02*
D03*
D30*
X444600Y460000D02*
D03*
D31*
X395000Y725000D02*
D03*
X356745Y722504D02*
D03*
X269776Y392724D02*
D03*
X310000Y780000D02*
D03*
X220000Y760000D02*
D03*
X440000Y600000D02*
D03*
X80000Y760000D02*
D03*
X150000Y700000D02*
D03*
X440000Y670000D02*
D03*
X345954Y425676D02*
D03*
X310000Y830000D02*
D03*
X340850Y690000D02*
D03*
X230000Y270000D02*
D03*
X140000Y850000D02*
D03*
X250000Y880000D02*
D03*
X50000D02*
D03*
X460000Y780000D02*
D03*
X450000Y510000D02*
D03*
X398815Y612721D02*
D03*
X280000Y850000D02*
D03*
X146004Y826538D02*
D03*
X144765Y794225D02*
D03*
D62*
X220000Y666000D02*
D03*
Y734000D02*
D03*
X80000Y666000D02*
D03*
Y734000D02*
D03*
D63*
X38500Y60000D02*
D03*
D64*
X101500Y37000D02*
D03*
Y60000D02*
D03*
Y83000D02*
D03*
D65*
X470000Y498250D02*
D03*
Y521750D02*
D03*
D66*
X270500Y809500D02*
D03*
Y790500D02*
D03*
X249500Y800000D02*
D03*
D67*
X395283Y756627D02*
D03*
X382583D02*
D03*
X369883D02*
D03*
X357183D02*
D03*
Y810867D02*
D03*
X369883D02*
D03*
X382583D02*
D03*
X395283D02*
D03*
M02*
