G04*
G04 #@! TF.GenerationSoftware,Altium Limited,Altium Designer,24.1.2 (44)*
G04*
G04 Layer_Physical_Order=1*
G04 Layer_Color=255*
%FSLAX44Y44*%
%MOMM*%
G71*
G04*
G04 #@! TF.SameCoordinates,0FEA824A-C204-488D-A695-D1978D76774C*
G04*
G04*
G04 #@! TF.FilePolarity,Positive*
G04*
G01*
G75*
%ADD32C,0.5000*%
%ADD33R,1.0000X1.2500*%
%ADD34R,1.2500X1.0000*%
%ADD35R,1.1000X1.2000*%
%ADD36R,0.7000X1.5000*%
%ADD37R,1.5000X0.7000*%
%ADD38R,1.0700X0.7400*%
%ADD39R,0.6000X1.4750*%
%ADD40R,1.4750X0.6000*%
%ADD41R,2.0000X0.8000*%
%ADD42C,2.5240*%
%ADD43C,5.0000*%
%ADD44C,1.9800*%
%ADD45R,1.9800X1.9800*%
%ADD46C,2.0000*%
G04:AMPARAMS|DCode=47|XSize=2mm|YSize=2mm|CornerRadius=0mm|HoleSize=0mm|Usage=FLASHONLY|Rotation=90.000|XOffset=0mm|YOffset=0mm|HoleType=Round|Shape=Octagon|*
%AMOCTAGOND47*
4,1,8,0.5000,1.0000,-0.5000,1.0000,-1.0000,0.5000,-1.0000,-0.5000,-0.5000,-1.0000,0.5000,-1.0000,1.0000,-0.5000,1.0000,0.5000,0.5000,1.0000,0.0*
%
%ADD47OCTAGOND47*%

%ADD48R,2.0000X2.0000*%
%ADD49R,1.8000X1.8000*%
%ADD50C,1.8000*%
%ADD51R,2.0000X2.0000*%
G04:AMPARAMS|DCode=52|XSize=2mm|YSize=2mm|CornerRadius=0mm|HoleSize=0mm|Usage=FLASHONLY|Rotation=0.000|XOffset=0mm|YOffset=0mm|HoleType=Round|Shape=Octagon|*
%AMOCTAGOND52*
4,1,8,1.0000,-0.5000,1.0000,0.5000,0.5000,1.0000,-0.5000,1.0000,-1.0000,0.5000,-1.0000,-0.5000,-0.5000,-1.0000,0.5000,-1.0000,1.0000,-0.5000,0.0*
%
%ADD52OCTAGOND52*%

G04:AMPARAMS|DCode=53|XSize=1.8mm|YSize=1.8mm|CornerRadius=0mm|HoleSize=0mm|Usage=FLASHONLY|Rotation=270.000|XOffset=0mm|YOffset=0mm|HoleType=Round|Shape=Octagon|*
%AMOCTAGOND53*
4,1,8,-0.4500,-0.9000,0.4500,-0.9000,0.9000,-0.4500,0.9000,0.4500,0.4500,0.9000,-0.4500,0.9000,-0.9000,0.4500,-0.9000,-0.4500,-0.4500,-0.9000,0.0*
%
%ADD53OCTAGOND53*%

%ADD54C,1.2700*%
G36*
X499146Y1104191D02*
X500867Y1103478D01*
X502345Y1102345D01*
X503478Y1100867D01*
X504191Y1099146D01*
X504417Y1097426D01*
X504392Y1097300D01*
Y777781D01*
X501392Y776538D01*
X493965Y783965D01*
X492146Y785181D01*
X490000Y785608D01*
X467559D01*
X467482Y785741D01*
X465741Y787482D01*
X463609Y788713D01*
X461231Y789350D01*
X458769D01*
X456391Y788713D01*
X454259Y787482D01*
X452518Y785741D01*
X451287Y783609D01*
X450650Y781231D01*
Y781108D01*
X438350D01*
Y782200D01*
X421650D01*
Y768800D01*
X438350D01*
Y769892D01*
X453416D01*
X455562Y770319D01*
X456834Y771169D01*
X458769Y770650D01*
X461231D01*
X463609Y771287D01*
X465741Y772518D01*
X467482Y774259D01*
X467559Y774392D01*
X487677D01*
X494392Y767677D01*
Y465608D01*
X480619D01*
X479602Y467368D01*
X477368Y469602D01*
X475608Y470619D01*
Y522000D01*
X479250D01*
Y538000D01*
X460750D01*
Y535608D01*
X442755D01*
Y540000D01*
Y552000D01*
X442295D01*
Y552730D01*
X422465D01*
Y552000D01*
X422005D01*
Y540000D01*
Y535608D01*
X402323D01*
X395965Y541965D01*
X379965Y557965D01*
X378146Y559181D01*
X376000Y559608D01*
X357995D01*
Y560000D01*
X357535D01*
Y560730D01*
X337705D01*
Y560000D01*
X337245D01*
Y548000D01*
X337705D01*
Y547270D01*
X347620D01*
Y544730D01*
X337705D01*
Y544000D01*
X337245D01*
Y543608D01*
X319250D01*
Y548000D01*
X300750D01*
Y532000D01*
X311882D01*
X312956Y529000D01*
X311882Y528119D01*
X308695Y524236D01*
X306327Y519806D01*
X306083Y519000D01*
X301500D01*
Y501000D01*
Y484000D01*
X304392D01*
Y475050D01*
X298509D01*
Y456550D01*
X298509D01*
X298504Y456485D01*
X298000Y456203D01*
X295000Y457963D01*
Y775000D01*
X263000D01*
Y779000D01*
X237000D01*
Y775000D01*
X203000D01*
Y779000D01*
X177000D01*
Y775000D01*
X123000D01*
Y779000D01*
X97000D01*
Y775000D01*
X63000D01*
Y779000D01*
X37000D01*
Y775000D01*
X5608D01*
Y1097300D01*
X5583Y1097426D01*
X5809Y1099146D01*
X6522Y1100867D01*
X7656Y1102345D01*
X9133Y1103478D01*
X10854Y1104191D01*
X12574Y1104417D01*
X12700Y1104392D01*
X70719D01*
X70782Y1104314D01*
X71802Y1101392D01*
X70367Y1099957D01*
X68658Y1097399D01*
X67480Y1094556D01*
X66880Y1091538D01*
Y1088462D01*
X67480Y1085444D01*
X68658Y1082601D01*
X70367Y1080043D01*
X72543Y1077867D01*
X75101Y1076158D01*
X77944Y1074980D01*
X80962Y1074380D01*
X84038D01*
X87056Y1074980D01*
X89899Y1076158D01*
X92457Y1077867D01*
X94633Y1080043D01*
X96342Y1082601D01*
X97520Y1085444D01*
X98120Y1088462D01*
Y1091538D01*
X97520Y1094556D01*
X96342Y1097399D01*
X94633Y1099957D01*
X93198Y1101392D01*
X94218Y1104314D01*
X94281Y1104392D01*
X170719D01*
X170782Y1104314D01*
X171802Y1101392D01*
X170367Y1099957D01*
X168658Y1097399D01*
X167480Y1094556D01*
X166880Y1091538D01*
Y1088462D01*
X167480Y1085444D01*
X168658Y1082601D01*
X170367Y1080043D01*
X172543Y1077867D01*
X175101Y1076158D01*
X177944Y1074980D01*
X180962Y1074380D01*
X184038D01*
X187056Y1074980D01*
X189899Y1076158D01*
X192457Y1077867D01*
X194633Y1080043D01*
X196342Y1082601D01*
X197520Y1085444D01*
X198120Y1088462D01*
Y1091538D01*
X197520Y1094556D01*
X196342Y1097399D01*
X194633Y1099957D01*
X193198Y1101392D01*
X194218Y1104314D01*
X194281Y1104392D01*
X268219D01*
X268282Y1104314D01*
X269302Y1101392D01*
X267867Y1099957D01*
X266158Y1097399D01*
X264980Y1094556D01*
X264380Y1091538D01*
Y1088462D01*
X264980Y1085444D01*
X266158Y1082601D01*
X267867Y1080043D01*
X270043Y1077867D01*
X272601Y1076158D01*
X275444Y1074980D01*
X278462Y1074380D01*
X281538D01*
X284556Y1074980D01*
X287399Y1076158D01*
X289957Y1077867D01*
X292133Y1080043D01*
X293842Y1082601D01*
X295020Y1085444D01*
X295620Y1088462D01*
Y1091538D01*
X295020Y1094556D01*
X293842Y1097399D01*
X292133Y1099957D01*
X290698Y1101392D01*
X291718Y1104314D01*
X291781Y1104392D01*
X368219D01*
X368282Y1104314D01*
X369302Y1101392D01*
X367867Y1099957D01*
X366158Y1097399D01*
X364980Y1094556D01*
X364380Y1091538D01*
Y1088462D01*
X364980Y1085444D01*
X366158Y1082601D01*
X367867Y1080043D01*
X370043Y1077867D01*
X372601Y1076158D01*
X375444Y1074980D01*
X378462Y1074380D01*
X381538D01*
X384556Y1074980D01*
X387399Y1076158D01*
X389957Y1077867D01*
X392133Y1080043D01*
X393842Y1082601D01*
X395020Y1085444D01*
X395620Y1088462D01*
Y1091538D01*
X395020Y1094556D01*
X393842Y1097399D01*
X392133Y1099957D01*
X390698Y1101392D01*
X391718Y1104314D01*
X391781Y1104392D01*
X497300D01*
X497426Y1104417D01*
X499146Y1104191D01*
D02*
G37*
G36*
X237000Y765000D02*
X243613D01*
X244069Y762000D01*
X236035Y753965D01*
X234819Y752146D01*
X234392Y750000D01*
Y748000D01*
X230750D01*
Y732000D01*
X247750D01*
X250000Y732000D01*
X252250Y732000D01*
X269250D01*
Y732000D01*
X270750D01*
Y732000D01*
X288088Y732000D01*
X289047Y730070D01*
X287431Y727540D01*
X281270D01*
Y720000D01*
Y712460D01*
X287000D01*
X288790Y712460D01*
X290000Y709961D01*
Y630689D01*
X289844Y630128D01*
X286483Y629246D01*
X285608Y630121D01*
Y650000D01*
Y680000D01*
X285181Y682146D01*
X283965Y683965D01*
X265608Y702323D01*
Y709879D01*
X267729Y712000D01*
X269250D01*
X272059Y712460D01*
X272250D01*
X278730D01*
Y720000D01*
Y727540D01*
X272059D01*
X269250Y728000D01*
X268400Y728000D01*
X250750D01*
Y728000D01*
X249250D01*
Y728000D01*
X230750D01*
Y712000D01*
X249250D01*
Y712000D01*
X250750D01*
Y712000D01*
X254392D01*
Y700000D01*
X254819Y697854D01*
X256035Y696035D01*
X260870Y691200D01*
X259627Y688200D01*
X257790D01*
X254738Y687382D01*
X252002Y685802D01*
X249768Y683568D01*
X248188Y680832D01*
X247370Y677780D01*
Y674620D01*
X248188Y671568D01*
X249768Y668832D01*
X252002Y666598D01*
X254655Y665066D01*
X254738Y664711D01*
Y662289D01*
X254655Y661934D01*
X252002Y660402D01*
X249768Y658168D01*
X248188Y655432D01*
X247370Y652380D01*
Y649220D01*
X248188Y646168D01*
X249768Y643432D01*
X252002Y641198D01*
X254738Y639618D01*
X255496Y639415D01*
Y636309D01*
X254916Y636153D01*
X252284Y634634D01*
X250136Y632486D01*
X248616Y629854D01*
X247830Y626919D01*
Y626670D01*
X259370D01*
Y624130D01*
X247830D01*
Y623881D01*
X248616Y620946D01*
X250136Y618314D01*
X252284Y616166D01*
X254916Y614646D01*
X256384Y614253D01*
Y611147D01*
X254916Y610754D01*
X252284Y609234D01*
X250136Y607086D01*
X248616Y604454D01*
X247830Y601519D01*
Y601270D01*
X259370D01*
Y598730D01*
X247830D01*
Y598481D01*
X248616Y595546D01*
X250136Y592914D01*
X252284Y590766D01*
X254916Y589246D01*
X256384Y588853D01*
Y585747D01*
X254916Y585354D01*
X252284Y583834D01*
X250136Y581686D01*
X248616Y579054D01*
X247830Y576119D01*
Y575870D01*
X270910D01*
Y576119D01*
X270124Y579054D01*
X268604Y581686D01*
X266456Y583834D01*
X263824Y585354D01*
X262356Y585747D01*
Y588853D01*
X263824Y589246D01*
X266456Y590766D01*
X267750Y592060D01*
X270750Y592000D01*
Y592000D01*
X274392D01*
Y544430D01*
X274428Y544251D01*
X274156Y541489D01*
X273298Y538661D01*
X271905Y536054D01*
X270234Y534018D01*
X267481Y532660D01*
X266738Y533402D01*
X264085Y534934D01*
X264002Y535289D01*
Y537711D01*
X264085Y538066D01*
X266738Y539598D01*
X268972Y541832D01*
X270552Y544568D01*
X271370Y547620D01*
Y550780D01*
X270552Y553832D01*
X268972Y556568D01*
X266738Y558802D01*
X264002Y560382D01*
X263244Y560585D01*
Y563691D01*
X263824Y563846D01*
X266456Y565366D01*
X268604Y567514D01*
X270124Y570146D01*
X270910Y573081D01*
Y573330D01*
X247830D01*
Y573081D01*
X248616Y570146D01*
X250136Y567514D01*
X252284Y565366D01*
X254916Y563846D01*
X255496Y563691D01*
Y560585D01*
X254738Y560382D01*
X252002Y558802D01*
X249768Y556568D01*
X248751Y554808D01*
X235000D01*
X234745Y554757D01*
X232259Y554430D01*
X229705Y553372D01*
X227511Y551689D01*
X225828Y549495D01*
X224770Y546941D01*
X224443Y544455D01*
X224392Y544200D01*
Y500121D01*
X222271Y498000D01*
X217729D01*
X215608Y500121D01*
Y544200D01*
X215557Y544455D01*
X215230Y546941D01*
X214172Y549495D01*
X212489Y551689D01*
X210295Y553372D01*
X207741Y554430D01*
X205255Y554757D01*
X205000Y554808D01*
X191249D01*
X190232Y556568D01*
X187998Y558802D01*
X185262Y560382D01*
X184504Y560585D01*
Y563691D01*
X185084Y563846D01*
X187716Y565366D01*
X189864Y567514D01*
X191383Y570146D01*
X192170Y573081D01*
Y573330D01*
X169090D01*
Y573081D01*
X169876Y570146D01*
X171396Y567514D01*
X173544Y565366D01*
X176176Y563846D01*
X176756Y563691D01*
Y560585D01*
X175998Y560382D01*
X173262Y558802D01*
X171028Y556568D01*
X169448Y553832D01*
X168630Y550780D01*
Y547620D01*
X169448Y544568D01*
X171028Y541832D01*
X173262Y539598D01*
X175915Y538066D01*
X175998Y537711D01*
Y535289D01*
X175915Y534934D01*
X173262Y533402D01*
X172519Y532660D01*
X169766Y534018D01*
X168095Y536054D01*
X166702Y538661D01*
X165844Y541489D01*
X165572Y544251D01*
X165608Y544430D01*
Y592000D01*
X169250D01*
X169250Y592000D01*
X172250Y592060D01*
X173544Y590766D01*
X176176Y589246D01*
X177644Y588853D01*
Y585747D01*
X176176Y585354D01*
X173544Y583834D01*
X171396Y581686D01*
X169876Y579054D01*
X169090Y576119D01*
Y575870D01*
X192170D01*
Y576119D01*
X191383Y579054D01*
X189864Y581686D01*
X187716Y583834D01*
X185084Y585354D01*
X183616Y585747D01*
Y588853D01*
X185084Y589246D01*
X187716Y590766D01*
X189864Y592914D01*
X191383Y595546D01*
X192170Y598481D01*
Y598730D01*
X180630D01*
Y601270D01*
X192170D01*
Y601519D01*
X191383Y604454D01*
X189864Y607086D01*
X187716Y609234D01*
X185084Y610754D01*
X183616Y611147D01*
Y614253D01*
X185084Y614646D01*
X187716Y616166D01*
X189864Y618314D01*
X191383Y620946D01*
X192170Y623881D01*
Y624130D01*
X180630D01*
Y626670D01*
X192170D01*
Y626919D01*
X191383Y629854D01*
X189864Y632486D01*
X187716Y634634D01*
X185084Y636153D01*
X184504Y636309D01*
Y639415D01*
X185262Y639618D01*
X187998Y641198D01*
X190232Y643432D01*
X191812Y646168D01*
X192630Y649220D01*
Y652380D01*
X191812Y655432D01*
X190232Y658168D01*
X187998Y660402D01*
X186617Y661200D01*
X187420Y664200D01*
X192630D01*
Y688200D01*
X177550D01*
X176402Y690972D01*
X180400Y694969D01*
X182510Y697079D01*
X182518Y697092D01*
X182518Y697092D01*
X182669Y697317D01*
X184172Y699276D01*
X185230Y701830D01*
X185557Y704316D01*
X185608Y704571D01*
Y712000D01*
X189250D01*
Y712000D01*
X190750D01*
Y712000D01*
X209250D01*
Y728000D01*
X190750D01*
Y728000D01*
X189250D01*
Y728000D01*
X171600D01*
X170750Y728000D01*
X167941Y727540D01*
X161270D01*
Y720000D01*
Y712460D01*
X167941D01*
X170750Y712000D01*
X171392Y712000D01*
X174392Y711500D01*
Y704823D01*
X159600Y690031D01*
X157490Y687921D01*
X157482Y687908D01*
X157482Y687908D01*
X157331Y687683D01*
X155828Y685724D01*
X154770Y683170D01*
X154443Y680684D01*
X154392Y680429D01*
Y650000D01*
Y630121D01*
X152271Y628000D01*
X147729D01*
X145608Y630121D01*
Y650000D01*
Y680429D01*
X145557Y680684D01*
X145230Y683170D01*
X144172Y685724D01*
X142669Y687683D01*
X142518Y687908D01*
X142518Y687908D01*
X142510Y687921D01*
X142510Y687921D01*
X140401Y690030D01*
X125608Y704823D01*
Y709879D01*
X127729Y712000D01*
X129250D01*
X132059Y712460D01*
X138730D01*
Y720000D01*
Y727540D01*
X132059D01*
X129250Y728000D01*
X128400Y728000D01*
X110750D01*
Y728000D01*
X109250D01*
Y728000D01*
X90750D01*
Y712000D01*
X109250D01*
Y712000D01*
X110750D01*
Y712000D01*
X114392D01*
Y704571D01*
X114443Y704316D01*
X114770Y701830D01*
X115828Y699276D01*
X117331Y697317D01*
X117482Y697092D01*
X117482Y697092D01*
X117490Y697079D01*
X119600Y694969D01*
X124110Y690459D01*
X122558Y687769D01*
X120950Y688200D01*
X117790D01*
X114738Y687382D01*
X112002Y685802D01*
X109768Y683568D01*
X108188Y680832D01*
X107370Y677780D01*
Y674620D01*
X108188Y671568D01*
X109768Y668832D01*
X112002Y666598D01*
X114655Y665066D01*
X114738Y664711D01*
Y662289D01*
X114655Y661934D01*
X112002Y660402D01*
X109768Y658168D01*
X108188Y655432D01*
X107370Y652380D01*
Y649220D01*
X108188Y646168D01*
X109768Y643432D01*
X112002Y641198D01*
X114738Y639618D01*
X115496Y639415D01*
Y636309D01*
X114916Y636153D01*
X112284Y634634D01*
X110136Y632486D01*
X108616Y629854D01*
X107830Y626919D01*
Y626670D01*
X119370D01*
Y624130D01*
X107830D01*
Y623881D01*
X108616Y620946D01*
X110136Y618314D01*
X112284Y616166D01*
X114916Y614646D01*
X116384Y614253D01*
Y611147D01*
X114916Y610754D01*
X112284Y609234D01*
X110136Y607086D01*
X108616Y604454D01*
X107830Y601519D01*
Y601270D01*
X119370D01*
Y598730D01*
X107830D01*
Y598481D01*
X108616Y595546D01*
X110136Y592914D01*
X112284Y590766D01*
X114916Y589246D01*
X116384Y588853D01*
Y585747D01*
X114916Y585354D01*
X112284Y583834D01*
X110136Y581686D01*
X108616Y579054D01*
X107830Y576119D01*
Y575870D01*
X130910D01*
Y576119D01*
X130124Y579054D01*
X128604Y581686D01*
X126456Y583834D01*
X123824Y585354D01*
X122356Y585747D01*
Y588853D01*
X123824Y589246D01*
X126456Y590766D01*
X127750Y592060D01*
X130750Y592000D01*
Y592000D01*
X134392D01*
Y544430D01*
X134428Y544251D01*
X134156Y541489D01*
X133298Y538661D01*
X131905Y536054D01*
X130234Y534018D01*
X127481Y532660D01*
X126738Y533402D01*
X124085Y534934D01*
X124002Y535289D01*
Y537711D01*
X124085Y538066D01*
X126738Y539598D01*
X128972Y541832D01*
X130552Y544568D01*
X131370Y547620D01*
Y550780D01*
X130552Y553832D01*
X128972Y556568D01*
X126738Y558802D01*
X124002Y560382D01*
X123244Y560585D01*
Y563691D01*
X123824Y563846D01*
X126456Y565366D01*
X128604Y567514D01*
X130124Y570146D01*
X130910Y573081D01*
Y573330D01*
X107830D01*
Y573081D01*
X108616Y570146D01*
X110136Y567514D01*
X112284Y565366D01*
X114916Y563846D01*
X115496Y563691D01*
Y560585D01*
X114738Y560382D01*
X112002Y558802D01*
X109768Y556568D01*
X108751Y554808D01*
X95000D01*
X94745Y554757D01*
X92259Y554430D01*
X89705Y553372D01*
X87511Y551689D01*
X85828Y549495D01*
X84770Y546941D01*
X84443Y544455D01*
X84392Y544200D01*
Y500121D01*
X82271Y498000D01*
X80750D01*
X78608Y498000D01*
X75608Y500071D01*
Y544200D01*
X75557Y544455D01*
X75230Y546941D01*
X74172Y549495D01*
X72489Y551689D01*
X70295Y553372D01*
X67741Y554430D01*
X65255Y554757D01*
X65000Y554808D01*
X51249D01*
X50232Y556568D01*
X47998Y558802D01*
X45262Y560382D01*
X44504Y560585D01*
Y563691D01*
X45084Y563846D01*
X47716Y565366D01*
X49864Y567514D01*
X51384Y570146D01*
X52170Y573081D01*
Y573330D01*
X29090D01*
Y573081D01*
X29876Y570146D01*
X31396Y567514D01*
X33544Y565366D01*
X36176Y563846D01*
X36756Y563691D01*
Y560585D01*
X35998Y560382D01*
X33262Y558802D01*
X31028Y556568D01*
X29448Y553832D01*
X28630Y550780D01*
Y547620D01*
X29448Y544568D01*
X31028Y541832D01*
X33262Y539598D01*
X35915Y538066D01*
X35998Y537711D01*
Y535289D01*
X35915Y534934D01*
X33262Y533402D01*
X32519Y532660D01*
X29766Y534018D01*
X28095Y536054D01*
X26702Y538661D01*
X25844Y541489D01*
X25572Y544251D01*
X25608Y544430D01*
Y592000D01*
X29250D01*
X29250Y592000D01*
X32250Y592060D01*
X33544Y590766D01*
X36176Y589246D01*
X37644Y588853D01*
Y585747D01*
X36176Y585354D01*
X33544Y583834D01*
X31396Y581686D01*
X29876Y579054D01*
X29090Y576119D01*
Y575870D01*
X52170D01*
Y576119D01*
X51384Y579054D01*
X49864Y581686D01*
X47716Y583834D01*
X45084Y585354D01*
X43616Y585747D01*
Y588853D01*
X45084Y589246D01*
X47716Y590766D01*
X49864Y592914D01*
X51384Y595546D01*
X52170Y598481D01*
Y598730D01*
X40630D01*
Y601270D01*
X52170D01*
Y601519D01*
X51384Y604454D01*
X49864Y607086D01*
X47716Y609234D01*
X45084Y610754D01*
X43616Y611147D01*
Y614253D01*
X45084Y614646D01*
X47716Y616166D01*
X49864Y618314D01*
X51384Y620946D01*
X52170Y623881D01*
Y624130D01*
X40630D01*
Y626670D01*
X52170D01*
Y626919D01*
X51384Y629854D01*
X49864Y632486D01*
X47716Y634634D01*
X45084Y636153D01*
X44504Y636309D01*
Y639415D01*
X45262Y639618D01*
X47998Y641198D01*
X50232Y643432D01*
X51812Y646168D01*
X52630Y649220D01*
Y652380D01*
X51812Y655432D01*
X50232Y658168D01*
X47998Y660402D01*
X46617Y661200D01*
X47420Y664200D01*
X52630D01*
Y688200D01*
X35050D01*
X33902Y690972D01*
X40400Y697469D01*
X42510Y699579D01*
X42518Y699592D01*
X42518Y699592D01*
X42669Y699817D01*
X44172Y701776D01*
X45230Y704330D01*
X45557Y706816D01*
X45608Y707071D01*
Y712000D01*
X49250D01*
Y712000D01*
X50750D01*
Y712000D01*
X69250D01*
Y728000D01*
X50750D01*
Y728000D01*
X49250D01*
Y728000D01*
X31600D01*
X30750Y728000D01*
X27941Y727540D01*
X21270D01*
Y720000D01*
Y712460D01*
X27941D01*
X30750Y712000D01*
X31392Y712000D01*
X34392Y711500D01*
Y707323D01*
X19600Y692531D01*
X17490Y690421D01*
X17482Y690408D01*
X17482Y690408D01*
X17331Y690183D01*
X15828Y688224D01*
X14770Y685670D01*
X14443Y683184D01*
X14392Y682929D01*
Y650000D01*
Y628000D01*
X10750D01*
Y612000D01*
X29250D01*
Y616252D01*
X32250Y617460D01*
X33544Y616166D01*
X36176Y614646D01*
X37644Y614253D01*
Y611147D01*
X36176Y610754D01*
X33544Y609234D01*
X32250Y607940D01*
X29250Y608000D01*
Y608000D01*
X10750D01*
Y592000D01*
X14392D01*
Y544430D01*
X14374D01*
X14878Y539308D01*
X16372Y534382D01*
X18799Y529843D01*
X22064Y525864D01*
X26043Y522599D01*
X28944Y521048D01*
X29448Y519168D01*
X31028Y516432D01*
X33262Y514198D01*
X35998Y512618D01*
X39050Y511800D01*
X42210D01*
X45262Y512618D01*
X47998Y514198D01*
X50232Y516432D01*
X51812Y519168D01*
X52630Y522220D01*
Y525380D01*
X51812Y528432D01*
X50232Y531168D01*
X47998Y533402D01*
X45345Y534934D01*
X45262Y535289D01*
Y537711D01*
X45345Y538066D01*
X47998Y539598D01*
X50232Y541832D01*
X51249Y543592D01*
X64392D01*
Y500071D01*
X61392Y498000D01*
X59250Y498000D01*
X57750Y498000D01*
X40750D01*
Y498000D01*
X39250D01*
Y498000D01*
X20750D01*
Y482000D01*
X39250D01*
Y482000D01*
X40750D01*
Y482000D01*
X57750D01*
X60750Y482000D01*
X62250Y482000D01*
X77750D01*
X79250Y482000D01*
X82250Y482000D01*
X97750D01*
X99250Y482000D01*
X102250Y482000D01*
X119250D01*
Y482000D01*
X120750Y482000D01*
Y482000D01*
X139250D01*
Y498000D01*
X120750D01*
Y498000D01*
X119250Y498000D01*
Y498000D01*
X102250D01*
X100750Y498000D01*
X98608Y498000D01*
X95608Y500071D01*
Y543592D01*
X108751D01*
X109768Y541832D01*
X112002Y539598D01*
X114655Y538066D01*
X114738Y537711D01*
Y535289D01*
X114655Y534934D01*
X112002Y533402D01*
X109768Y531168D01*
X108188Y528432D01*
X107370Y525380D01*
Y522220D01*
X108188Y519168D01*
X109768Y516432D01*
X112002Y514198D01*
X114738Y512618D01*
X117790Y511800D01*
X120950D01*
X124002Y512618D01*
X126738Y514198D01*
X128972Y516432D01*
X130552Y519168D01*
X131056Y521048D01*
X133957Y522599D01*
X137936Y525864D01*
X141201Y529843D01*
X143628Y534382D01*
X145122Y539308D01*
X145626Y544430D01*
X145608D01*
Y589879D01*
X147729Y592000D01*
X152271D01*
X154392Y589879D01*
Y544430D01*
X154374D01*
X154878Y539308D01*
X156372Y534382D01*
X158799Y529843D01*
X162064Y525864D01*
X166043Y522599D01*
X168944Y521048D01*
X169448Y519168D01*
X171028Y516432D01*
X173262Y514198D01*
X175998Y512618D01*
X179050Y511800D01*
X182210D01*
X185262Y512618D01*
X187998Y514198D01*
X190232Y516432D01*
X191812Y519168D01*
X192630Y522220D01*
Y525380D01*
X191812Y528432D01*
X190232Y531168D01*
X187998Y533402D01*
X185345Y534934D01*
X185262Y535289D01*
Y537711D01*
X185345Y538066D01*
X187998Y539598D01*
X190232Y541832D01*
X191249Y543592D01*
X204392D01*
Y500121D01*
X202271Y498000D01*
X200000Y498000D01*
X197750Y498000D01*
X180750D01*
Y498000D01*
X179250D01*
Y498000D01*
X160750D01*
Y482000D01*
X179250D01*
Y482000D01*
X180750D01*
Y482000D01*
X197750D01*
X200000Y482000D01*
X202250Y482000D01*
X217750D01*
X220000Y482000D01*
X222250Y482000D01*
X237750D01*
X240000Y482000D01*
X242250Y482000D01*
X259250D01*
Y482000D01*
X260750D01*
Y482000D01*
X279250D01*
Y498000D01*
X260750D01*
Y498000D01*
X259250D01*
Y498000D01*
X242250D01*
X240000Y498000D01*
X237729Y498000D01*
X235608Y500121D01*
Y543592D01*
X248751D01*
X249768Y541832D01*
X252002Y539598D01*
X254655Y538066D01*
X254738Y537711D01*
Y535289D01*
X254655Y534934D01*
X252002Y533402D01*
X249768Y531168D01*
X248188Y528432D01*
X247370Y525380D01*
Y522220D01*
X248188Y519168D01*
X249768Y516432D01*
X252002Y514198D01*
X254738Y512618D01*
X257790Y511800D01*
X260950D01*
X264002Y512618D01*
X266738Y514198D01*
X268972Y516432D01*
X270552Y519168D01*
X271056Y521048D01*
X273957Y522599D01*
X277936Y525864D01*
X281201Y529843D01*
X283628Y534382D01*
X285122Y539308D01*
X285626Y544430D01*
X285608D01*
Y589879D01*
X286483Y590754D01*
X289844Y589872D01*
X290000Y589311D01*
Y410000D01*
X224350D01*
Y425270D01*
X134558D01*
Y430713D01*
X175000D01*
X175255Y430763D01*
X177741Y431091D01*
X180295Y432149D01*
X182489Y433832D01*
X184172Y436025D01*
X185230Y438579D01*
X185557Y441066D01*
X185608Y441320D01*
Y445432D01*
X264576D01*
X264831Y445483D01*
X267318Y445810D01*
X269872Y446868D01*
X272065Y448551D01*
X273748Y450745D01*
X274806Y453299D01*
X275052Y455169D01*
X275179Y455720D01*
X275369Y462000D01*
X279250D01*
Y478000D01*
X262250D01*
X260000Y478000D01*
X257750Y478000D01*
X240750D01*
Y478000D01*
X239250D01*
Y478000D01*
X222250D01*
X220000Y478000D01*
X217750Y478000D01*
X200750D01*
Y478000D01*
X199250D01*
Y478000D01*
X182250D01*
X180000Y478000D01*
X177750Y478000D01*
X160750D01*
Y462000D01*
X164392D01*
Y452476D01*
X136262D01*
X135531Y453247D01*
X134501Y455476D01*
X135230Y457235D01*
X135557Y459721D01*
X135608Y459976D01*
Y462000D01*
X139250D01*
Y478000D01*
X122250D01*
X119250Y478000D01*
X117750Y478000D01*
X100750D01*
Y478000D01*
X99250Y478000D01*
Y478000D01*
X82250D01*
X80750Y478000D01*
X77750Y478000D01*
X60750D01*
Y478000D01*
X59250Y478000D01*
Y478000D01*
X42250D01*
X40000Y478000D01*
X37750Y478000D01*
X20750D01*
Y462000D01*
X24392D01*
Y459897D01*
X24443Y459642D01*
X24770Y457156D01*
X25828Y454602D01*
X27511Y452408D01*
X29705Y450725D01*
X32259Y449667D01*
X34745Y449340D01*
X35000Y449289D01*
X85242D01*
Y427374D01*
X84379Y425270D01*
X84350D01*
X84190Y424810D01*
X79420D01*
Y414770D01*
X76880D01*
Y424810D01*
X72110D01*
X71950Y425270D01*
X58950D01*
Y410000D01*
X5608D01*
Y770000D01*
X37000D01*
Y765000D01*
X44392D01*
Y760000D01*
X44819Y757854D01*
X46035Y756035D01*
X51295Y750774D01*
X50146Y748000D01*
X47750Y748000D01*
X30750D01*
Y748000D01*
X29250D01*
Y748000D01*
X10750D01*
Y732000D01*
X29250D01*
Y732000D01*
X30750D01*
Y732000D01*
X47750D01*
X50000Y732000D01*
X52250Y732000D01*
X69250D01*
Y748000D01*
X65608D01*
Y750000D01*
X65181Y752146D01*
X63965Y753965D01*
X55931Y762000D01*
X56387Y765000D01*
X63000D01*
Y770000D01*
X73540D01*
X74400Y767523D01*
X74428Y767000D01*
X72886Y765459D01*
X71716Y763431D01*
X71137Y761270D01*
X88863D01*
X88284Y763431D01*
X87114Y765459D01*
X85572Y767000D01*
X85600Y767523D01*
X86460Y770000D01*
X97000D01*
Y765000D01*
X103613D01*
X104069Y762000D01*
X96035Y753965D01*
X94819Y752146D01*
X94392Y750000D01*
Y748000D01*
X90750D01*
Y732000D01*
X107750D01*
X110000Y732000D01*
X112250Y732000D01*
X129250D01*
Y732000D01*
X130750D01*
Y732000D01*
X147750D01*
X150000Y732000D01*
X152250Y732000D01*
X169250D01*
Y732000D01*
X170750D01*
Y732000D01*
X187750D01*
X190000Y732000D01*
X192250Y732000D01*
X209250D01*
Y748000D01*
X205608D01*
Y750000D01*
X205181Y752146D01*
X203965Y753965D01*
X195931Y762000D01*
X196387Y765000D01*
X203000D01*
Y770000D01*
X213540D01*
X214400Y767523D01*
X214428Y767000D01*
X212886Y765459D01*
X211716Y763431D01*
X211137Y761270D01*
X228863D01*
X228284Y763431D01*
X227114Y765459D01*
X225572Y767000D01*
X225600Y767523D01*
X226460Y770000D01*
X237000D01*
Y765000D01*
D02*
G37*
G36*
X290000Y750689D02*
X289250Y748000D01*
X287000Y748000D01*
X270750D01*
Y748000D01*
X269250D01*
Y748000D01*
X252250D01*
X249854Y748000D01*
X248705Y750774D01*
X253965Y756035D01*
X255181Y757854D01*
X255608Y760000D01*
Y762438D01*
X257303Y764892D01*
X257845Y765000D01*
X263000D01*
Y770000D01*
X290000D01*
Y750689D01*
D02*
G37*
G36*
X177000Y765000D02*
X184392D01*
Y760000D01*
X184819Y757854D01*
X186035Y756035D01*
X191295Y750774D01*
X190146Y748000D01*
X187750Y748000D01*
X170750D01*
Y748000D01*
X169250D01*
Y748000D01*
X152250D01*
X150000Y748000D01*
X147750Y748000D01*
X130750D01*
Y748000D01*
X129250D01*
Y748000D01*
X112250D01*
X109854Y748000D01*
X108705Y750774D01*
X113965Y756035D01*
X115181Y757854D01*
X115608Y760000D01*
Y765000D01*
X123000D01*
Y770000D01*
X177000D01*
Y765000D01*
D02*
G37*
G36*
X130750Y616252D02*
Y612000D01*
X147750D01*
X150000Y612000D01*
X152250Y612000D01*
X169250D01*
Y616252D01*
X172250Y617460D01*
X173544Y616166D01*
X176176Y614646D01*
X177644Y614253D01*
Y611147D01*
X176176Y610754D01*
X173544Y609234D01*
X172250Y607940D01*
X169250Y608000D01*
Y608000D01*
X152250D01*
X150000Y608000D01*
X147750Y608000D01*
X130750D01*
X130750Y608000D01*
X127750Y607940D01*
X126456Y609234D01*
X123824Y610754D01*
X122356Y611147D01*
Y614253D01*
X123824Y614646D01*
X126456Y616166D01*
X127750Y617460D01*
X130750Y616252D01*
D02*
G37*
G36*
X396035Y526035D02*
X397854Y524819D01*
X400000Y524392D01*
X422005D01*
Y524000D01*
Y517995D01*
X357995D01*
Y524000D01*
Y532000D01*
Y532392D01*
X389677D01*
X396035Y526035D01*
D02*
G37*
G36*
X460750Y522000D02*
X464392D01*
Y470619D01*
X462632Y469602D01*
X460398Y467368D01*
X459600Y465987D01*
X459234Y465988D01*
X456311Y466289D01*
X450600Y472000D01*
X438600D01*
X432600Y466000D01*
Y465608D01*
X423608D01*
Y497245D01*
X424000D01*
Y516000D01*
X431871D01*
X432074Y514979D01*
X433290Y513160D01*
X438941Y507508D01*
X440761Y506292D01*
X441420Y506161D01*
X442518Y504259D01*
X444259Y502518D01*
X446391Y501287D01*
X448769Y500650D01*
X451231D01*
X453609Y501287D01*
X455741Y502518D01*
X457482Y504259D01*
X458713Y506391D01*
X459350Y508769D01*
Y511231D01*
X458713Y513609D01*
X457482Y515741D01*
X455741Y517482D01*
X453609Y518713D01*
X451231Y519350D01*
X448769D01*
X446391Y518713D01*
X445297Y518081D01*
X442863Y519953D01*
Y521500D01*
X444518Y524392D01*
X460750D01*
Y522000D01*
D02*
G37*
G36*
X239250Y462000D02*
X240750D01*
Y462000D01*
X257750D01*
X259250Y462000D01*
X261994Y462000D01*
X264083Y459847D01*
X263987Y456648D01*
X185000D01*
X184745Y456597D01*
X182259Y456270D01*
X179705Y455212D01*
X178608Y454370D01*
X175608Y455775D01*
Y459879D01*
X177729Y462000D01*
X180000Y462000D01*
X182250Y462000D01*
X199250D01*
Y462000D01*
X200750D01*
Y462000D01*
X217750D01*
X220000Y462000D01*
X222250Y462000D01*
X239250D01*
Y462000D01*
D02*
G37*
G36*
X337245Y516000D02*
Y516000D01*
X356000D01*
Y507467D01*
X355941Y507168D01*
X356000Y506870D01*
Y497245D01*
X356392D01*
Y431377D01*
X353392Y430573D01*
X353068Y431134D01*
X351413Y432789D01*
X349386Y433960D01*
X347224Y434539D01*
Y425676D01*
X344684D01*
Y434539D01*
X342523Y433960D01*
X340496Y432789D01*
X339243Y431537D01*
X337607Y431847D01*
X336243Y432635D01*
Y433219D01*
X328723D01*
Y425679D01*
Y418139D01*
X336243D01*
Y418717D01*
X337607Y419504D01*
X339243Y419815D01*
X340496Y418562D01*
X342523Y417392D01*
X344649Y416822D01*
X344945Y416335D01*
X345855Y413786D01*
X331320Y399250D01*
X322000D01*
Y380750D01*
X322000Y380750D01*
Y379250D01*
X322000D01*
X322000Y377750D01*
Y360750D01*
X322000Y360750D01*
Y359250D01*
X322000D01*
X322000Y357750D01*
Y340750D01*
X322000D01*
X322000Y339250D01*
X322000D01*
X322000Y337750D01*
Y320750D01*
X322000Y320750D01*
Y319250D01*
X322000D01*
X322000Y317750D01*
Y300750D01*
X338000D01*
Y310069D01*
X397965Y370035D01*
X399181Y371854D01*
X399608Y374000D01*
Y497245D01*
X404392D01*
Y390000D01*
X404819Y387854D01*
X406035Y386035D01*
X416035Y376035D01*
X417854Y374819D01*
X420000Y374392D01*
X480000D01*
X482146Y374819D01*
X483965Y376035D01*
X491392Y383462D01*
X494392Y382219D01*
Y144143D01*
X205607D01*
X205352Y144093D01*
X202866Y143765D01*
X200311Y142707D01*
X198321Y141180D01*
X198106Y141036D01*
X185070Y128000D01*
X173500D01*
X167000Y121500D01*
Y108500D01*
X173500Y102000D01*
X186500D01*
X193000Y108500D01*
Y120069D01*
X205858Y132928D01*
X495000D01*
X495255Y132978D01*
X497741Y133306D01*
X500295Y134364D01*
X501392Y135205D01*
X504392Y133801D01*
Y12700D01*
X504417Y12574D01*
X504191Y10854D01*
X503478Y9133D01*
X502345Y7656D01*
X500867Y6522D01*
X499146Y5809D01*
X497426Y5583D01*
X497300Y5608D01*
X135000D01*
Y159392D01*
X168758D01*
X169965Y157300D01*
X172300Y154965D01*
X175160Y153315D01*
X178349Y152460D01*
X178730D01*
Y165000D01*
Y177540D01*
X178349D01*
X175160Y176685D01*
X172300Y175035D01*
X169965Y172700D01*
X168758Y170608D01*
X135000D01*
Y195000D01*
X295000D01*
Y242660D01*
X295230Y243214D01*
X295557Y245700D01*
X295608Y245955D01*
Y298344D01*
X299000Y301736D01*
X302000Y300750D01*
Y300750D01*
X318000D01*
Y319250D01*
X318000D01*
Y320750D01*
X318000D01*
Y339250D01*
X318000D01*
X318000Y340750D01*
X318000D01*
Y359250D01*
X318000D01*
Y360750D01*
X318000D01*
Y379250D01*
X318000D01*
Y380750D01*
X318000D01*
Y399250D01*
X302000D01*
Y396858D01*
X295000D01*
Y417939D01*
X297933Y418101D01*
X298000Y418101D01*
X305453D01*
Y425641D01*
Y433181D01*
X298000D01*
X297933Y433181D01*
X295000Y433343D01*
Y436369D01*
X297473Y437641D01*
X315218D01*
X315973Y437641D01*
Y437641D01*
X318203Y437679D01*
Y437679D01*
X336703D01*
Y453679D01*
X334821D01*
X334509Y456550D01*
X334509D01*
Y475050D01*
X332117D01*
Y484000D01*
X332500D01*
Y501000D01*
Y513909D01*
X335178Y516102D01*
X337245Y516000D01*
D02*
G37*
G36*
X494392Y437781D02*
X491392Y436538D01*
X489365Y438565D01*
X487546Y439781D01*
X485400Y440208D01*
X480619D01*
X479602Y441968D01*
X477368Y444202D01*
X474715Y445734D01*
X474632Y446089D01*
Y448511D01*
X474715Y448866D01*
X477368Y450398D01*
X479602Y452632D01*
X480619Y454392D01*
X494392D01*
Y437781D01*
D02*
G37*
G36*
X458866Y429885D02*
X460398Y427232D01*
X462632Y424998D01*
X465368Y423418D01*
X466126Y423215D01*
Y420109D01*
X465546Y419953D01*
X462914Y418434D01*
X460766Y416286D01*
X459246Y413654D01*
X459091Y413074D01*
X455985D01*
X455782Y413832D01*
X454202Y416568D01*
X451968Y418802D01*
X449315Y420334D01*
X449232Y420689D01*
Y423111D01*
X449315Y423466D01*
X451968Y424998D01*
X454202Y427232D01*
X455734Y429885D01*
X456089Y429968D01*
X458511D01*
X458866Y429885D01*
D02*
G37*
G36*
X267437Y401777D02*
X266167Y401436D01*
X264035Y400205D01*
X263888Y400058D01*
X233430D01*
Y400950D01*
X212430D01*
Y387950D01*
Y375250D01*
Y362550D01*
Y349850D01*
Y337150D01*
Y324450D01*
Y314400D01*
X212430Y311750D01*
X212890Y308941D01*
Y306820D01*
X222930D01*
Y305550D01*
X224200D01*
Y299510D01*
X232970D01*
Y299942D01*
X239767D01*
X241210Y297540D01*
Y291270D01*
X250000D01*
X258790D01*
Y297540D01*
X255608D01*
Y300000D01*
X255181Y302146D01*
X253965Y303965D01*
X248415Y309515D01*
X246596Y310731D01*
X244450Y311158D01*
X236185D01*
X233430Y311750D01*
X233430Y314399D01*
Y324450D01*
Y338042D01*
X283650D01*
X285796Y338469D01*
X287000Y339274D01*
X290000Y338265D01*
Y326933D01*
X276151Y313084D01*
X276007Y312868D01*
X274480Y310879D01*
X273422Y308324D01*
X273095Y305838D01*
X273044Y305583D01*
Y250975D01*
X247677Y225608D01*
X242066D01*
X241654Y226694D01*
X241548Y228608D01*
X243900Y229965D01*
X246234Y232300D01*
X247885Y235160D01*
X248740Y238349D01*
Y238730D01*
X236200D01*
Y240000D01*
X234930D01*
Y252540D01*
X234549D01*
X231360Y251685D01*
X228500Y250035D01*
X226166Y247700D01*
X225498Y246543D01*
X222034Y246543D01*
X221203Y247982D01*
X218782Y250403D01*
X215818Y252114D01*
X212512Y253000D01*
X209088D01*
X208708Y252898D01*
X190176Y271967D01*
X191344Y274730D01*
X200156D01*
Y274237D01*
X200582Y272091D01*
X201798Y270271D01*
X206035Y266035D01*
X207854Y264819D01*
X210000Y264392D01*
X222441D01*
X222518Y264259D01*
X224259Y262518D01*
X226391Y261287D01*
X228769Y260650D01*
X231231D01*
X233609Y261287D01*
X235741Y262518D01*
X237482Y264259D01*
X237559Y264392D01*
X240750D01*
Y262000D01*
X259250D01*
Y278000D01*
X240750D01*
Y275608D01*
X237559D01*
X237482Y275741D01*
X235741Y277482D01*
X233609Y278713D01*
X231231Y279350D01*
X228769D01*
X227350Y278970D01*
X224350Y280640D01*
Y295730D01*
X71650D01*
X71490Y295270D01*
X66720D01*
Y285230D01*
Y275190D01*
X71490D01*
X72384Y272560D01*
Y215000D01*
X72435Y214745D01*
X72762Y212259D01*
X73820Y209705D01*
X75503Y207511D01*
X77697Y205828D01*
X80251Y204770D01*
X82737Y204443D01*
X82992Y204392D01*
X254045D01*
X254300Y204443D01*
X256786Y204770D01*
X259340Y205828D01*
X261299Y207331D01*
X261524Y207482D01*
X261524Y207482D01*
X261536Y207490D01*
X263646Y209600D01*
X287228Y233182D01*
X290000Y232034D01*
Y200000D01*
X130000D01*
Y170608D01*
X81242D01*
X80035Y172700D01*
X77700Y175035D01*
X74840Y176685D01*
X71651Y177540D01*
X71270D01*
Y165000D01*
Y152460D01*
X71651D01*
X74840Y153315D01*
X77700Y154965D01*
X80035Y157300D01*
X81242Y159392D01*
X130000D01*
Y5608D01*
X12700D01*
X12574Y5583D01*
X10854Y5809D01*
X9133Y6522D01*
X7656Y7656D01*
X6522Y9133D01*
X5809Y10854D01*
X5583Y12574D01*
X5608Y12700D01*
Y290000D01*
X59410D01*
Y286500D01*
X64180D01*
Y295270D01*
X60000D01*
Y404270D01*
X71950D01*
X72110Y404730D01*
X84190D01*
X84350Y404270D01*
X224350D01*
Y404777D01*
X267042D01*
X267437Y401777D01*
D02*
G37*
G36*
X418783Y454819D02*
X420929Y454392D01*
X432600D01*
Y454000D01*
X438311Y448289D01*
X438612Y445366D01*
X438613Y445000D01*
X437232Y444202D01*
X434998Y441968D01*
X433418Y439232D01*
X432600Y436180D01*
Y433020D01*
X433418Y429968D01*
X434998Y427232D01*
X437232Y424998D01*
X439885Y423466D01*
X439968Y423111D01*
Y420689D01*
X439885Y420334D01*
X437232Y418802D01*
X434998Y416568D01*
X433418Y413832D01*
X432600Y410780D01*
Y407620D01*
X433418Y404568D01*
X434998Y401832D01*
X437232Y399598D01*
X439968Y398018D01*
X443020Y397200D01*
X446180D01*
X449232Y398018D01*
X451968Y399598D01*
X454202Y401832D01*
X455782Y404568D01*
X455985Y405326D01*
X459091D01*
X459246Y404746D01*
X460766Y402114D01*
X462914Y399966D01*
X465546Y398446D01*
X468481Y397660D01*
X468730D01*
Y409200D01*
X471270D01*
Y397660D01*
X471519D01*
X474454Y398446D01*
X477086Y399966D01*
X479234Y402114D01*
X480754Y404746D01*
X481392Y407130D01*
X484392Y406735D01*
Y392323D01*
X477677Y385608D01*
X422323D01*
X415608Y392323D01*
Y453333D01*
X418608Y454936D01*
X418783Y454819D01*
D02*
G37*
G36*
X262294Y386983D02*
X264035Y385242D01*
X266167Y384011D01*
X268545Y383374D01*
X271007D01*
X273385Y384011D01*
X275517Y385242D01*
X275918Y385642D01*
X290000D01*
Y375608D01*
X287854Y375181D01*
X286035Y373965D01*
X274027Y361958D01*
X233430D01*
Y362550D01*
Y375250D01*
Y387950D01*
Y388842D01*
X261221D01*
X262294Y386983D01*
D02*
G37*
G36*
X117049Y271958D02*
X108800Y263709D01*
X106690Y261599D01*
X106682Y261587D01*
X106682Y261587D01*
X106531Y261362D01*
X105028Y259403D01*
X103970Y256849D01*
X103643Y254362D01*
X103592Y254107D01*
Y253000D01*
X96200D01*
X95873Y255865D01*
Y274730D01*
X115901D01*
X117049Y271958D01*
D02*
G37*
G36*
X135974Y271003D02*
X135889Y253279D01*
X135611Y253000D01*
X132888D01*
X129582Y252114D01*
X126618Y250403D01*
X125200Y248985D01*
X122200Y250227D01*
Y253000D01*
X118195D01*
X116952Y256000D01*
X129350Y268398D01*
X131460Y270508D01*
X131468Y270520D01*
X133451Y272450D01*
X135974Y271003D01*
D02*
G37*
%LPC*%
G36*
X472168Y1087540D02*
X471270D01*
Y1061270D01*
X497540D01*
Y1062167D01*
X496862Y1066449D01*
X495522Y1070572D01*
X493554Y1074434D01*
X491006Y1077941D01*
X487941Y1081006D01*
X484434Y1083554D01*
X480572Y1085522D01*
X476449Y1086862D01*
X472168Y1087540D01*
D02*
G37*
G36*
X468730D02*
X467832D01*
X463551Y1086862D01*
X459428Y1085522D01*
X455566Y1083554D01*
X452059Y1081006D01*
X448994Y1077941D01*
X446446Y1074434D01*
X444478Y1070572D01*
X443138Y1066449D01*
X442460Y1062167D01*
Y1061270D01*
X468730D01*
Y1087540D01*
D02*
G37*
G36*
X497540Y1058730D02*
X471270D01*
Y1032460D01*
X472168D01*
X476449Y1033138D01*
X480572Y1034478D01*
X484434Y1036446D01*
X487941Y1038994D01*
X491006Y1042059D01*
X493554Y1045566D01*
X495522Y1049428D01*
X496862Y1053551D01*
X497540Y1057832D01*
Y1058730D01*
D02*
G37*
G36*
X468730D02*
X442460D01*
Y1057832D01*
X443138Y1053551D01*
X444478Y1049428D01*
X446446Y1045566D01*
X448994Y1042059D01*
X452059Y1038994D01*
X455566Y1036446D01*
X459428Y1034478D01*
X463551Y1033138D01*
X467832Y1032460D01*
X468730D01*
Y1058730D01*
D02*
G37*
G36*
X59038Y1005620D02*
X55962D01*
X52944Y1005020D01*
X50101Y1003842D01*
X47543Y1002133D01*
X45367Y999957D01*
X43658Y997399D01*
X42480Y994556D01*
X41880Y991538D01*
Y988462D01*
X42480Y985444D01*
X43658Y982601D01*
X45367Y980043D01*
X47543Y977867D01*
X50101Y976158D01*
X52944Y974980D01*
X55962Y974380D01*
X59038D01*
X62056Y974980D01*
X64899Y976158D01*
X67457Y977867D01*
X69633Y980043D01*
X71342Y982601D01*
X72084Y984392D01*
X87677D01*
X90037Y982032D01*
X88338Y979489D01*
X87056Y980020D01*
X84038Y980620D01*
X80962D01*
X77944Y980020D01*
X75101Y978842D01*
X72543Y977133D01*
X70367Y974957D01*
X68658Y972399D01*
X67480Y969556D01*
X66880Y966538D01*
Y963462D01*
X67480Y960444D01*
X68658Y957601D01*
X70367Y955043D01*
X72543Y952867D01*
X75101Y951158D01*
X76892Y950416D01*
Y924823D01*
X66035Y913965D01*
X64819Y912146D01*
X64392Y910000D01*
Y857423D01*
X63000Y855000D01*
X61392Y855000D01*
X55608D01*
Y872441D01*
X55741Y872518D01*
X57482Y874259D01*
X58713Y876391D01*
X59350Y878769D01*
Y881231D01*
X58713Y883609D01*
X57482Y885741D01*
X55741Y887482D01*
X53609Y888713D01*
X51231Y889350D01*
X48769D01*
X46391Y888713D01*
X44259Y887482D01*
X42518Y885741D01*
X41287Y883609D01*
X40650Y881231D01*
Y878769D01*
X41287Y876391D01*
X42518Y874259D01*
X44259Y872518D01*
X44392Y872441D01*
Y855000D01*
X37000D01*
Y841000D01*
X61392D01*
X63000Y841000D01*
X64392Y838577D01*
Y825423D01*
X63000Y823000D01*
X37000D01*
Y809000D01*
X63000D01*
Y810392D01*
X66000D01*
X68146Y810819D01*
X69965Y812035D01*
X73965Y816035D01*
X75181Y817854D01*
X75608Y820000D01*
Y907677D01*
X85001Y917070D01*
X85145Y917286D01*
X86672Y919276D01*
X87730Y921830D01*
X88057Y924316D01*
X88108Y924571D01*
Y950416D01*
X89899Y951158D01*
X92457Y952867D01*
X94633Y955043D01*
X96342Y957601D01*
X96392Y957722D01*
X99392Y957125D01*
Y922323D01*
X80404Y903335D01*
X79188Y901515D01*
X78762Y899369D01*
Y835631D01*
X79188Y833485D01*
X80404Y831665D01*
X97000Y815070D01*
Y811220D01*
X83266D01*
X81120Y810793D01*
X79301Y809577D01*
X69331Y799608D01*
X63000D01*
Y801000D01*
X37000D01*
Y787000D01*
X63000D01*
Y788392D01*
X71654D01*
X73800Y788819D01*
X75619Y790035D01*
X85589Y800004D01*
X97000D01*
Y787000D01*
X123000D01*
Y788392D01*
X137374D01*
X139024Y786743D01*
X141156Y785512D01*
X143534Y784875D01*
X145996D01*
X148374Y785512D01*
X150506Y786743D01*
X152247Y788484D01*
X153477Y790616D01*
X154115Y792994D01*
Y795456D01*
X153477Y797834D01*
X152247Y799966D01*
X150506Y801707D01*
X148374Y802938D01*
X145996Y803575D01*
X143534D01*
X141156Y802938D01*
X139024Y801707D01*
X137283Y799966D01*
X137076Y799608D01*
X131247D01*
X130005Y802608D01*
X144625Y817228D01*
X144774Y817188D01*
X147235D01*
X149613Y817825D01*
X151746Y819056D01*
X153486Y820797D01*
X154717Y822929D01*
X155354Y825307D01*
Y827769D01*
X154717Y830147D01*
X153486Y832279D01*
X151746Y834020D01*
X149613Y835251D01*
X147235Y835888D01*
X144774D01*
X142395Y835251D01*
X140263Y834020D01*
X138523Y832279D01*
X137292Y830147D01*
X136654Y827769D01*
Y825307D01*
X136694Y825158D01*
X125772Y814236D01*
X123000Y815384D01*
Y823000D01*
X104931D01*
X89977Y837953D01*
Y897047D01*
X108965Y916035D01*
X110181Y917854D01*
X110608Y920000D01*
Y975000D01*
X110181Y977146D01*
X108965Y978965D01*
X93965Y993965D01*
X92146Y995181D01*
X90000Y995608D01*
X72084D01*
X71342Y997399D01*
X69633Y999957D01*
X67457Y1002133D01*
X64899Y1003842D01*
X62056Y1005020D01*
X59038Y1005620D01*
D02*
G37*
G36*
X355000Y1025608D02*
X162500D01*
X162245Y1025557D01*
X159759Y1025230D01*
X157205Y1024172D01*
X155011Y1022489D01*
X153328Y1020295D01*
X152270Y1017741D01*
X151943Y1015255D01*
X151892Y1015000D01*
Y967323D01*
X138847Y954278D01*
X137056Y955020D01*
X134038Y955620D01*
X130962D01*
X127944Y955020D01*
X125101Y953842D01*
X122543Y952133D01*
X120367Y949957D01*
X118658Y947399D01*
X117480Y944556D01*
X116880Y941538D01*
Y938462D01*
X117480Y935444D01*
X118658Y932601D01*
X120367Y930043D01*
X122543Y927867D01*
X125101Y926158D01*
X127944Y924980D01*
X130962Y924380D01*
X134038D01*
X137056Y924980D01*
X139899Y926158D01*
X142457Y927867D01*
X144633Y930043D01*
X146342Y932601D01*
X147520Y935444D01*
X148120Y938462D01*
Y941538D01*
X147520Y944556D01*
X146778Y946347D01*
X160001Y959570D01*
X160145Y959786D01*
X161672Y961776D01*
X162730Y964330D01*
X163057Y966816D01*
X163108Y967071D01*
Y1014392D01*
X354392D01*
Y952323D01*
X347677Y945608D01*
X344584D01*
X343842Y947399D01*
X342133Y949957D01*
X339957Y952133D01*
X337399Y953842D01*
X334556Y955020D01*
X331538Y955620D01*
X328462D01*
X325444Y955020D01*
X322601Y953842D01*
X320043Y952133D01*
X318608Y950698D01*
X315686Y951718D01*
X315608Y951781D01*
Y977929D01*
X315557Y978184D01*
X315547Y978260D01*
X316076Y978666D01*
X318410Y979500D01*
X320043Y977867D01*
X322601Y976158D01*
X325444Y974980D01*
X328462Y974380D01*
X331538D01*
X334556Y974980D01*
X337399Y976158D01*
X339957Y977867D01*
X342133Y980043D01*
X343842Y982601D01*
X345020Y985444D01*
X345620Y988462D01*
Y991538D01*
X345020Y994556D01*
X343842Y997399D01*
X342133Y999957D01*
X339957Y1002133D01*
X337399Y1003842D01*
X334556Y1005020D01*
X331538Y1005620D01*
X328462D01*
X325444Y1005020D01*
X322601Y1003842D01*
X320043Y1002133D01*
X317867Y999957D01*
X316158Y997399D01*
X314980Y994556D01*
X314380Y991538D01*
Y988462D01*
X314546Y987627D01*
X311781Y986149D01*
X307530Y990401D01*
X305421Y992510D01*
X305421Y992510D01*
X305408Y992518D01*
X305408Y992518D01*
X305183Y992669D01*
X303224Y994172D01*
X300670Y995230D01*
X298184Y995557D01*
X297929Y995608D01*
X269584D01*
X268842Y997399D01*
X267133Y999957D01*
X264957Y1002133D01*
X262399Y1003842D01*
X259556Y1005020D01*
X256538Y1005620D01*
X253462D01*
X250444Y1005020D01*
X247601Y1003842D01*
X245043Y1002133D01*
X242867Y999957D01*
X241158Y997399D01*
X239980Y994556D01*
X239380Y991538D01*
Y988462D01*
X239980Y985444D01*
X241158Y982601D01*
X242867Y980043D01*
X245043Y977867D01*
X247601Y976158D01*
X250444Y974980D01*
X253462Y974380D01*
X256538D01*
X259556Y974980D01*
X262399Y976158D01*
X264957Y977867D01*
X267133Y980043D01*
X268842Y982601D01*
X269584Y984392D01*
X297677D01*
X304392Y977677D01*
Y837559D01*
X304259Y837482D01*
X302518Y835741D01*
X301287Y833609D01*
X300650Y831231D01*
Y828769D01*
X301287Y826391D01*
X302518Y824259D01*
X304259Y822518D01*
X306391Y821287D01*
X308769Y820650D01*
X311231D01*
X313609Y821287D01*
X315741Y822518D01*
X317482Y824259D01*
X318713Y826391D01*
X319350Y828769D01*
Y831231D01*
X318713Y833609D01*
X317482Y835741D01*
X315741Y837482D01*
X315608Y837559D01*
Y928219D01*
X315686Y928282D01*
X318608Y929302D01*
X320043Y927867D01*
X322601Y926158D01*
X325444Y924980D01*
X328462Y924380D01*
X331538D01*
X334556Y924980D01*
X337399Y926158D01*
X339957Y927867D01*
X342133Y930043D01*
X343842Y932601D01*
X344584Y934392D01*
X350000D01*
X352146Y934819D01*
X353965Y936035D01*
X363965Y946035D01*
X365181Y947854D01*
X365608Y950000D01*
Y953219D01*
X365686Y953282D01*
X368608Y954302D01*
X370043Y952867D01*
X372601Y951158D01*
X374392Y950416D01*
Y832323D01*
X352601Y810531D01*
X263000D01*
Y823000D01*
X237000D01*
Y820281D01*
X232365D01*
Y970742D01*
X231938Y972888D01*
X230723Y974708D01*
X221778Y983653D01*
X222520Y985444D01*
X223120Y988462D01*
Y991538D01*
X222520Y994556D01*
X221342Y997399D01*
X219633Y999957D01*
X217457Y1002133D01*
X214899Y1003842D01*
X212056Y1005020D01*
X209038Y1005620D01*
X205962D01*
X202944Y1005020D01*
X200101Y1003842D01*
X197543Y1002133D01*
X195367Y999957D01*
X193658Y997399D01*
X192480Y994556D01*
X191880Y991538D01*
Y988462D01*
X192480Y985444D01*
X193658Y982601D01*
X195367Y980043D01*
X197543Y977867D01*
X200101Y976158D01*
X202944Y974980D01*
X205962Y974380D01*
X209038D01*
X212056Y974980D01*
X213847Y975722D01*
X221150Y968420D01*
Y952683D01*
X218150Y951440D01*
X217457Y952133D01*
X214899Y953842D01*
X212056Y955020D01*
X209038Y955620D01*
X205962D01*
X202944Y955020D01*
X200101Y953842D01*
X197543Y952133D01*
X195367Y949957D01*
X193658Y947399D01*
X192480Y944556D01*
X191880Y941538D01*
Y938462D01*
X192480Y935444D01*
X193658Y932601D01*
X195367Y930043D01*
X197543Y927867D01*
X200101Y926158D01*
X202944Y924980D01*
X205962Y924380D01*
X209038D01*
X212056Y924980D01*
X214899Y926158D01*
X217457Y927867D01*
X218150Y928560D01*
X221150Y927317D01*
Y817602D01*
X221577Y815456D01*
X222792Y813636D01*
X222897Y813531D01*
X222696Y812171D01*
X221787Y810399D01*
X220306Y810105D01*
X218487Y808889D01*
X209206Y799608D01*
X203000D01*
Y801000D01*
X177000D01*
Y787000D01*
X203000D01*
Y788392D01*
X211529D01*
X213675Y788819D01*
X215494Y790035D01*
X224775Y799316D01*
X237000D01*
Y787000D01*
X263000D01*
Y788392D01*
X300927D01*
X301910Y786755D01*
X302317Y785392D01*
X301287Y783609D01*
X300650Y781231D01*
Y778769D01*
X301287Y776391D01*
X302518Y774259D01*
X304259Y772518D01*
X304392Y772441D01*
Y638000D01*
X300750D01*
Y622000D01*
X319250D01*
Y638000D01*
X315608D01*
Y772441D01*
X315741Y772518D01*
X317482Y774259D01*
X318713Y776391D01*
X319350Y778769D01*
Y781231D01*
X318713Y783609D01*
X317683Y785392D01*
X318090Y786755D01*
X319073Y788392D01*
X394000D01*
X396146Y788819D01*
X397965Y790035D01*
X433965Y826035D01*
X435181Y827854D01*
X435608Y830000D01*
Y965000D01*
X435181Y967146D01*
X433965Y968965D01*
X419278Y983653D01*
X420020Y985444D01*
X420620Y988462D01*
Y991538D01*
X420020Y994556D01*
X418842Y997399D01*
X417133Y999957D01*
X414957Y1002133D01*
X412399Y1003842D01*
X409556Y1005020D01*
X406538Y1005620D01*
X403462D01*
X400444Y1005020D01*
X397601Y1003842D01*
X395043Y1002133D01*
X392867Y999957D01*
X391158Y997399D01*
X389980Y994556D01*
X389380Y991538D01*
Y988462D01*
X389980Y985444D01*
X391158Y982601D01*
X392867Y980043D01*
X395043Y977867D01*
X397601Y976158D01*
X400444Y974980D01*
X403462Y974380D01*
X406538D01*
X409556Y974980D01*
X411347Y975722D01*
X424392Y962677D01*
Y832323D01*
X391677Y799608D01*
X361781D01*
X360538Y802608D01*
X383965Y826035D01*
X385181Y827854D01*
X385608Y830000D01*
Y950416D01*
X387399Y951158D01*
X389957Y952867D01*
X392133Y955043D01*
X393842Y957601D01*
X395020Y960444D01*
X395620Y963462D01*
Y966538D01*
X395020Y969556D01*
X393842Y972399D01*
X392133Y974957D01*
X389957Y977133D01*
X387399Y978842D01*
X384556Y980020D01*
X381538Y980620D01*
X378462D01*
X375444Y980020D01*
X372601Y978842D01*
X370043Y977133D01*
X368608Y975698D01*
X365686Y976718D01*
X365608Y976781D01*
Y1017071D01*
X365181Y1019217D01*
X364451Y1020309D01*
X364369Y1020433D01*
X364368Y1020433D01*
X363965Y1021036D01*
X362501Y1022501D01*
X362501Y1022501D01*
X362285Y1022645D01*
X360295Y1024172D01*
X357741Y1025230D01*
X355255Y1025557D01*
X355000Y1025608D01*
D02*
G37*
G36*
X134038Y1005620D02*
X130962D01*
X127944Y1005020D01*
X125101Y1003842D01*
X122543Y1002133D01*
X120367Y999957D01*
X118658Y997399D01*
X117480Y994556D01*
X116880Y991538D01*
Y988462D01*
X117480Y985444D01*
X118658Y982601D01*
X120367Y980043D01*
X122543Y977867D01*
X125101Y976158D01*
X127944Y974980D01*
X130962Y974380D01*
X134038D01*
X137056Y974980D01*
X139899Y976158D01*
X142457Y977867D01*
X144633Y980043D01*
X146342Y982601D01*
X147520Y985444D01*
X148120Y988462D01*
Y991538D01*
X147520Y994556D01*
X146342Y997399D01*
X144633Y999957D01*
X142457Y1002133D01*
X139899Y1003842D01*
X137056Y1005020D01*
X134038Y1005620D01*
D02*
G37*
G36*
X406538Y955620D02*
X403462D01*
X400444Y955020D01*
X397601Y953842D01*
X395043Y952133D01*
X392867Y949957D01*
X391158Y947399D01*
X389980Y944556D01*
X389380Y941538D01*
Y938462D01*
X389980Y935444D01*
X391158Y932601D01*
X392867Y930043D01*
X395043Y927867D01*
X397601Y926158D01*
X400444Y924980D01*
X403462Y924380D01*
X406538D01*
X409556Y924980D01*
X412399Y926158D01*
X414957Y927867D01*
X417133Y930043D01*
X418842Y932601D01*
X420020Y935444D01*
X420620Y938462D01*
Y941538D01*
X420020Y944556D01*
X418842Y947399D01*
X417133Y949957D01*
X414957Y952133D01*
X412399Y953842D01*
X409556Y955020D01*
X406538Y955620D01*
D02*
G37*
G36*
X256538D02*
X253462D01*
X250444Y955020D01*
X247601Y953842D01*
X245043Y952133D01*
X242867Y949957D01*
X241158Y947399D01*
X239980Y944556D01*
X239380Y941538D01*
Y938462D01*
X239980Y935444D01*
X241158Y932601D01*
X242867Y930043D01*
X245043Y927867D01*
X247601Y926158D01*
X250444Y924980D01*
X253462Y924380D01*
X256538D01*
X259556Y924980D01*
X262399Y926158D01*
X264957Y927867D01*
X267133Y930043D01*
X268842Y932601D01*
X270020Y935444D01*
X270620Y938462D01*
Y941538D01*
X270020Y944556D01*
X268842Y947399D01*
X267133Y949957D01*
X264957Y952133D01*
X262399Y953842D01*
X259556Y955020D01*
X256538Y955620D01*
D02*
G37*
G36*
X59038D02*
X55962D01*
X52944Y955020D01*
X50101Y953842D01*
X47543Y952133D01*
X45367Y949957D01*
X43658Y947399D01*
X42480Y944556D01*
X41880Y941538D01*
Y938462D01*
X42480Y935444D01*
X43658Y932601D01*
X45367Y930043D01*
X47543Y927867D01*
X50101Y926158D01*
X52944Y924980D01*
X55962Y924380D01*
X59038D01*
X62056Y924980D01*
X64899Y926158D01*
X67457Y927867D01*
X69633Y930043D01*
X71342Y932601D01*
X72520Y935444D01*
X73120Y938462D01*
Y941538D01*
X72520Y944556D01*
X71342Y947399D01*
X69633Y949957D01*
X67457Y952133D01*
X64899Y953842D01*
X62056Y955020D01*
X59038Y955620D01*
D02*
G37*
G36*
X184038Y980620D02*
X180962D01*
X177944Y980020D01*
X175101Y978842D01*
X172543Y977133D01*
X170367Y974957D01*
X168658Y972399D01*
X167480Y969556D01*
X166880Y966538D01*
Y963462D01*
X167480Y960444D01*
X168658Y957601D01*
X170367Y955043D01*
X172543Y952867D01*
X175101Y951158D01*
X176892Y950416D01*
Y930000D01*
X177319Y927854D01*
X178535Y926035D01*
X204392Y900177D01*
Y857423D01*
X203000Y855000D01*
X201392Y855000D01*
X177000D01*
Y853608D01*
X148713D01*
X148713Y853609D01*
X147482Y855741D01*
X145741Y857482D01*
X143609Y858713D01*
X141231Y859350D01*
X138769D01*
X136391Y858713D01*
X134259Y857482D01*
X132518Y855741D01*
X131287Y853609D01*
X131287Y853608D01*
X123000D01*
Y855000D01*
X97000D01*
Y841000D01*
X123000D01*
Y842392D01*
X134477D01*
X136391Y841287D01*
X138769Y840650D01*
X141231D01*
X143609Y841287D01*
X145523Y842392D01*
X177000D01*
Y841000D01*
X201392D01*
X203000Y841000D01*
X204392Y838577D01*
Y825423D01*
X203000Y823000D01*
X177000D01*
Y809000D01*
X203000D01*
Y810247D01*
X207071D01*
X209217Y810674D01*
X211036Y811889D01*
X213965Y814818D01*
X215181Y816637D01*
X215608Y818783D01*
Y902500D01*
X215181Y904646D01*
X213965Y906465D01*
X188108Y932323D01*
Y950416D01*
X189899Y951158D01*
X192457Y952867D01*
X194633Y955043D01*
X196342Y957601D01*
X197520Y960444D01*
X198120Y963462D01*
Y966538D01*
X197520Y969556D01*
X196342Y972399D01*
X194633Y974957D01*
X192457Y977133D01*
X189899Y978842D01*
X187056Y980020D01*
X184038Y980620D01*
D02*
G37*
G36*
X251231Y889350D02*
X248769D01*
X246391Y888713D01*
X244259Y887482D01*
X242518Y885741D01*
X241287Y883609D01*
X240650Y881231D01*
Y878769D01*
X241287Y876391D01*
X242518Y874259D01*
X244259Y872518D01*
X244392Y872441D01*
Y855000D01*
X237000D01*
Y841000D01*
X263000D01*
Y855000D01*
X255608D01*
Y872441D01*
X255741Y872518D01*
X257482Y874259D01*
X258713Y876391D01*
X259350Y878769D01*
Y881231D01*
X258713Y883609D01*
X257482Y885741D01*
X255741Y887482D01*
X253609Y888713D01*
X251231Y889350D01*
D02*
G37*
G36*
X281538Y980620D02*
X278462D01*
X275444Y980020D01*
X272601Y978842D01*
X270043Y977133D01*
X267867Y974957D01*
X266158Y972399D01*
X264980Y969556D01*
X264380Y966538D01*
Y963462D01*
X264980Y960444D01*
X266158Y957601D01*
X267867Y955043D01*
X270043Y952867D01*
X272601Y951158D01*
X274392Y950416D01*
Y857559D01*
X274259Y857482D01*
X272518Y855741D01*
X271287Y853609D01*
X270650Y851231D01*
Y848769D01*
X271287Y846391D01*
X272518Y844259D01*
X274259Y842518D01*
X276391Y841287D01*
X278769Y840650D01*
X281231D01*
X283609Y841287D01*
X285741Y842518D01*
X287482Y844259D01*
X288713Y846391D01*
X289350Y848769D01*
Y851231D01*
X288713Y853609D01*
X287482Y855741D01*
X285741Y857482D01*
X285608Y857559D01*
Y950416D01*
X287399Y951158D01*
X289957Y952867D01*
X292133Y955043D01*
X293842Y957601D01*
X295020Y960444D01*
X295620Y963462D01*
Y966538D01*
X295020Y969556D01*
X293842Y972399D01*
X292133Y974957D01*
X289957Y977133D01*
X287399Y978842D01*
X284556Y980020D01*
X281538Y980620D01*
D02*
G37*
G36*
X471712Y749200D02*
X468288D01*
X464982Y748314D01*
X462018Y746603D01*
X461023Y745608D01*
X438350D01*
Y746700D01*
X421650D01*
Y733300D01*
X438350D01*
Y734392D01*
X457026D01*
X457886Y731182D01*
X459597Y728218D01*
X462018Y725797D01*
X463457Y724967D01*
X463457Y721502D01*
X462300Y720835D01*
X459966Y718500D01*
X458315Y715640D01*
X457460Y712451D01*
Y712070D01*
X470000D01*
X482540D01*
Y712451D01*
X481685Y715640D01*
X480034Y718500D01*
X477700Y720835D01*
X476543Y721502D01*
X476543Y724967D01*
X477982Y725797D01*
X480403Y728218D01*
X482114Y731182D01*
X483000Y734489D01*
Y737912D01*
X482114Y741218D01*
X480403Y744182D01*
X477982Y746603D01*
X475018Y748314D01*
X471712Y749200D01*
D02*
G37*
G36*
X396231Y734350D02*
X393769D01*
X391391Y733713D01*
X389259Y732482D01*
X387518Y730741D01*
X386287Y728609D01*
X385650Y726231D01*
Y723769D01*
X386287Y721391D01*
X387518Y719259D01*
X388609Y718168D01*
X387780Y715462D01*
X387569Y715168D01*
X378757D01*
Y711526D01*
X375918D01*
X373772Y711099D01*
X371953Y709883D01*
X366035Y703965D01*
X365353Y702944D01*
X362353Y703854D01*
Y714945D01*
X362486Y715022D01*
X364227Y716763D01*
X365458Y718895D01*
X366095Y721273D01*
Y723735D01*
X365458Y726113D01*
X364227Y728245D01*
X362486Y729986D01*
X360354Y731217D01*
X357976Y731854D01*
X355514D01*
X353136Y731217D01*
X351004Y729986D01*
X349263Y728245D01*
X348032Y726113D01*
X347395Y723735D01*
Y721273D01*
X348032Y718895D01*
X349263Y716763D01*
X351004Y715022D01*
X351137Y714945D01*
Y696882D01*
X349007Y696016D01*
X348137Y695936D01*
X346591Y697482D01*
X344459Y698713D01*
X342081Y699350D01*
X339619D01*
X337241Y698713D01*
X335109Y697482D01*
X333368Y695741D01*
X332137Y693609D01*
X331500Y691231D01*
Y688769D01*
X332137Y686391D01*
X333368Y684259D01*
X334392Y683235D01*
Y619295D01*
X334819Y617149D01*
X336035Y615330D01*
X355892Y595472D01*
Y592880D01*
X356000Y592338D01*
Y584000D01*
X337245D01*
Y583608D01*
X324323D01*
X315608Y592323D01*
Y602000D01*
X319250D01*
Y618000D01*
X300750D01*
Y602000D01*
X304392D01*
Y590000D01*
X304819Y587854D01*
X306035Y586035D01*
X318035Y574035D01*
X319854Y572819D01*
X322000Y572392D01*
X337245D01*
Y564000D01*
X337705D01*
Y563270D01*
X357535D01*
Y564000D01*
X357995D01*
Y572000D01*
Y582005D01*
X422005D01*
Y572000D01*
Y564000D01*
Y556000D01*
X422465D01*
Y555270D01*
X442295D01*
Y556000D01*
X442755D01*
Y564000D01*
Y572000D01*
Y584000D01*
X424000D01*
Y602755D01*
X406143D01*
X405591Y603618D01*
X405072Y605755D01*
X406296Y606980D01*
X407527Y609112D01*
X408165Y611490D01*
Y613952D01*
X407527Y616330D01*
X406296Y618462D01*
X404556Y620203D01*
X402424Y621434D01*
X400046Y622071D01*
X397584D01*
X395206Y621434D01*
X394608Y621088D01*
X392163Y622500D01*
X392489Y625500D01*
X394000D01*
Y644000D01*
X391637D01*
Y650797D01*
X394747D01*
Y669297D01*
X378747D01*
Y650797D01*
X380422D01*
Y646121D01*
X379297Y644997D01*
X378267Y644644D01*
X375608Y646451D01*
Y679384D01*
X378747D01*
Y675742D01*
X394747D01*
Y694242D01*
X394747D01*
X394757Y696668D01*
X394757D01*
Y710618D01*
X397757Y712179D01*
X398757Y711479D01*
Y697236D01*
X398747Y694242D01*
X398747Y693672D01*
Y675742D01*
X414747D01*
Y679384D01*
X432780D01*
X433812Y676384D01*
X432886Y675459D01*
X431716Y673431D01*
X431137Y671270D01*
X448863D01*
X448284Y673431D01*
X447114Y675459D01*
X446188Y676384D01*
X447220Y679384D01*
X458462D01*
X459597Y677418D01*
X462018Y674997D01*
X462997Y674432D01*
Y670968D01*
X462018Y670403D01*
X459597Y667982D01*
X457886Y665018D01*
X457000Y661712D01*
Y658288D01*
X457886Y654982D01*
X459597Y652018D01*
X462018Y649597D01*
X462997Y649032D01*
Y645568D01*
X462018Y645003D01*
X459597Y642582D01*
X458227Y640208D01*
X439405D01*
Y641782D01*
X420905D01*
Y640358D01*
X414000D01*
Y644000D01*
X398000D01*
Y625500D01*
X414000D01*
Y629142D01*
X420905D01*
Y625782D01*
X439405D01*
Y628992D01*
X458227D01*
X459597Y626618D01*
X461015Y625200D01*
X459773Y622200D01*
X457000D01*
Y596200D01*
X483000D01*
Y622200D01*
X480227D01*
X478985Y625200D01*
X480403Y626618D01*
X482114Y629582D01*
X483000Y632888D01*
Y636311D01*
X482114Y639618D01*
X480403Y642582D01*
X477982Y645003D01*
X477003Y645568D01*
Y649032D01*
X477982Y649597D01*
X480403Y652018D01*
X482114Y654982D01*
X483000Y658288D01*
Y661712D01*
X482114Y665018D01*
X480403Y667982D01*
X477982Y670403D01*
X477003Y670968D01*
Y674432D01*
X477982Y674997D01*
X480403Y677418D01*
X482114Y680382D01*
X483000Y683689D01*
Y687112D01*
X482114Y690418D01*
X480403Y693382D01*
X477982Y695803D01*
X476543Y696634D01*
X476543Y700098D01*
X477700Y700766D01*
X480034Y703100D01*
X481685Y705960D01*
X482540Y709149D01*
Y709530D01*
X470000D01*
X457460D01*
Y709149D01*
X458315Y705960D01*
X459966Y703100D01*
X462300Y700766D01*
X463457Y700098D01*
X463457Y696634D01*
X462018Y695803D01*
X459597Y693382D01*
X457991Y690600D01*
X414747D01*
Y693674D01*
X414757Y696668D01*
X414757Y697237D01*
Y715168D01*
X410099D01*
Y715509D01*
X409672Y717655D01*
X408456Y719474D01*
X404310Y723620D01*
X404350Y723769D01*
Y726231D01*
X403713Y728609D01*
X402482Y730741D01*
X400741Y732482D01*
X398609Y733713D01*
X396231Y734350D01*
D02*
G37*
G36*
X414287Y668837D02*
X408017D01*
Y661317D01*
X414287D01*
Y668837D01*
D02*
G37*
G36*
X405477D02*
X399207D01*
Y661317D01*
X405477D01*
Y668837D01*
D02*
G37*
G36*
X448863Y668730D02*
X431137D01*
X431716Y666569D01*
X432886Y664541D01*
X433106Y664322D01*
X431863Y661322D01*
X431425D01*
Y655052D01*
X438945D01*
Y658646D01*
X438945Y661110D01*
X441170Y661110D01*
X443431Y661716D01*
X445459Y662886D01*
X447114Y664541D01*
X448284Y666569D01*
X448863Y668730D01*
D02*
G37*
G36*
X428885Y661322D02*
X421365D01*
Y655052D01*
X428885D01*
Y661322D01*
D02*
G37*
G36*
X414287Y658777D02*
X408017D01*
Y651257D01*
X414287D01*
Y658777D01*
D02*
G37*
G36*
X405477D02*
X399207D01*
Y651257D01*
X405477D01*
Y658777D01*
D02*
G37*
G36*
X438945Y652512D02*
X431425D01*
Y646242D01*
X438945D01*
Y652512D01*
D02*
G37*
G36*
X428885D02*
X421365D01*
Y646242D01*
X428885D01*
Y652512D01*
D02*
G37*
G36*
X441270Y608863D02*
Y601270D01*
X448863D01*
X448284Y603431D01*
X447114Y605459D01*
X445459Y607114D01*
X443431Y608284D01*
X441270Y608863D01*
D02*
G37*
G36*
X438730D02*
X436569Y608284D01*
X434541Y607114D01*
X432886Y605459D01*
X431716Y603431D01*
X431137Y601270D01*
X438730D01*
Y608863D01*
D02*
G37*
G36*
X448863Y598730D02*
X441270D01*
Y591137D01*
X443431Y591716D01*
X445459Y592886D01*
X447114Y594541D01*
X448284Y596569D01*
X448863Y598730D01*
D02*
G37*
G36*
X438730D02*
X431137D01*
X431716Y596569D01*
X432886Y594541D01*
X434541Y592886D01*
X436569Y591716D01*
X438730Y591137D01*
Y598730D01*
D02*
G37*
G36*
X318790Y567540D02*
X311270D01*
Y561270D01*
X318790D01*
Y567540D01*
D02*
G37*
G36*
X308730D02*
X301210D01*
Y561270D01*
X308730D01*
Y567540D01*
D02*
G37*
G36*
X318790Y558730D02*
X311270D01*
Y552460D01*
X318790D01*
Y558730D01*
D02*
G37*
G36*
X308730D02*
X301210D01*
Y552460D01*
X308730D01*
Y558730D01*
D02*
G37*
G36*
X478790Y557540D02*
X471270D01*
Y551270D01*
X478790D01*
Y557540D01*
D02*
G37*
G36*
X468730D02*
X461210D01*
Y551270D01*
X468730D01*
Y557540D01*
D02*
G37*
G36*
X478790Y548730D02*
X471270D01*
Y542460D01*
X478790D01*
Y548730D01*
D02*
G37*
G36*
X468730D02*
X461210D01*
Y542460D01*
X468730D01*
Y548730D01*
D02*
G37*
%LPD*%
G36*
X349007Y683984D02*
X351137Y683118D01*
Y620331D01*
X348137Y619089D01*
X345608Y621618D01*
Y681951D01*
X346591Y682518D01*
X348137Y684064D01*
X349007Y683984D01*
D02*
G37*
%LPC*%
G36*
X228863Y758730D02*
X221270D01*
Y751137D01*
X223431Y751716D01*
X225459Y752886D01*
X227114Y754541D01*
X228284Y756569D01*
X228863Y758730D01*
D02*
G37*
G36*
X218730D02*
X211137D01*
X211716Y756569D01*
X212886Y754541D01*
X214541Y752886D01*
X216569Y751716D01*
X218730Y751137D01*
Y758730D01*
D02*
G37*
G36*
X88863D02*
X81270D01*
Y751137D01*
X83431Y751716D01*
X85459Y752886D01*
X87114Y754541D01*
X88284Y756569D01*
X88863Y758730D01*
D02*
G37*
G36*
X78730D02*
X71137D01*
X71716Y756569D01*
X72886Y754541D01*
X74541Y752886D01*
X76569Y751716D01*
X78730Y751137D01*
Y758730D01*
D02*
G37*
G36*
X151210Y727540D02*
X148790D01*
X148210Y727540D01*
X141270D01*
Y720000D01*
Y712460D01*
X148210D01*
X148790Y712460D01*
X151210D01*
X151790Y712460D01*
X158730D01*
Y720000D01*
Y727540D01*
X151790D01*
X151210Y727540D01*
D02*
G37*
G36*
X18730Y727540D02*
X11210D01*
Y721270D01*
X18730D01*
Y727540D01*
D02*
G37*
G36*
Y718730D02*
X11210D01*
Y712460D01*
X18730D01*
Y718730D01*
D02*
G37*
G36*
X151270Y708863D02*
Y701270D01*
X158863D01*
X158284Y703431D01*
X157114Y705459D01*
X155459Y707114D01*
X153431Y708284D01*
X151270Y708863D01*
D02*
G37*
G36*
X148730D02*
X146569Y708284D01*
X144541Y707114D01*
X142886Y705459D01*
X141716Y703431D01*
X141137Y701270D01*
X148730D01*
Y708863D01*
D02*
G37*
G36*
X158863Y698730D02*
X151270D01*
Y691137D01*
X153431Y691716D01*
X155459Y692886D01*
X157114Y694541D01*
X158284Y696569D01*
X158863Y698730D01*
D02*
G37*
G36*
X148730D02*
X141137D01*
X141716Y696569D01*
X142886Y694541D01*
X144541Y692886D01*
X146569Y691716D01*
X148730Y691137D01*
Y698730D01*
D02*
G37*
G36*
X326183Y433219D02*
X318663D01*
Y426949D01*
X326183D01*
Y433219D01*
D02*
G37*
G36*
X307993Y433181D02*
Y426911D01*
X315513D01*
Y433181D01*
X307993D01*
D02*
G37*
G36*
X326183Y424409D02*
X318663D01*
Y418139D01*
X326183D01*
Y424409D01*
D02*
G37*
G36*
X315513Y424371D02*
X307993D01*
Y418101D01*
X315513D01*
Y424371D01*
D02*
G37*
G36*
X456651Y332540D02*
X456270D01*
Y321270D01*
X467540D01*
Y321651D01*
X466685Y324840D01*
X465034Y327700D01*
X462700Y330034D01*
X459840Y331685D01*
X456651Y332540D01*
D02*
G37*
G36*
X467540Y318730D02*
X456270D01*
Y307460D01*
X456651D01*
X459840Y308315D01*
X462700Y309965D01*
X465034Y312300D01*
X466685Y315160D01*
X467540Y318349D01*
Y318730D01*
D02*
G37*
G36*
X436500Y333000D02*
X423500D01*
X417000Y326500D01*
Y313500D01*
X423500Y307000D01*
X436500D01*
X441611Y312111D01*
X443798Y312234D01*
X445346Y311920D01*
X447300Y309965D01*
X450160Y308315D01*
X453349Y307460D01*
X453730D01*
Y320000D01*
Y332540D01*
X453349D01*
X450160Y331685D01*
X447300Y330034D01*
X445346Y328080D01*
X443798Y327766D01*
X441611Y327889D01*
X436500Y333000D01*
D02*
G37*
G36*
X181651Y177540D02*
X181270D01*
Y166270D01*
X192540D01*
Y166651D01*
X191685Y169840D01*
X190035Y172700D01*
X187700Y175035D01*
X184840Y176685D01*
X181651Y177540D01*
D02*
G37*
G36*
X401651D02*
X401270D01*
Y166270D01*
X412540D01*
Y166651D01*
X411685Y169840D01*
X410034Y172700D01*
X407700Y175035D01*
X404840Y176685D01*
X401651Y177540D01*
D02*
G37*
G36*
X291651D02*
X291270D01*
Y166270D01*
X302540D01*
Y166651D01*
X301685Y169840D01*
X300035Y172700D01*
X297700Y175035D01*
X294840Y176685D01*
X291651Y177540D01*
D02*
G37*
G36*
X398730D02*
X398349D01*
X395160Y176685D01*
X392300Y175035D01*
X389966Y172700D01*
X388315Y169840D01*
X387460Y166651D01*
Y166270D01*
X398730D01*
Y177540D01*
D02*
G37*
G36*
X288730D02*
X288349D01*
X285160Y176685D01*
X282300Y175035D01*
X279965Y172700D01*
X278315Y169840D01*
X277460Y166651D01*
Y166270D01*
X288730D01*
Y177540D01*
D02*
G37*
G36*
X412540Y163730D02*
X401270D01*
Y152460D01*
X401651D01*
X404840Y153315D01*
X407700Y154965D01*
X410034Y157300D01*
X411685Y160160D01*
X412540Y163349D01*
Y163730D01*
D02*
G37*
G36*
X398730D02*
X387460D01*
Y163349D01*
X388315Y160160D01*
X389966Y157300D01*
X392300Y154965D01*
X395160Y153315D01*
X398349Y152460D01*
X398730D01*
Y163730D01*
D02*
G37*
G36*
X302540D02*
X291270D01*
Y152460D01*
X291651D01*
X294840Y153315D01*
X297700Y154965D01*
X300035Y157300D01*
X301685Y160160D01*
X302540Y163349D01*
Y163730D01*
D02*
G37*
G36*
X288730D02*
X277460D01*
Y163349D01*
X278315Y160160D01*
X279965Y157300D01*
X282300Y154965D01*
X285160Y153315D01*
X288349Y152460D01*
X288730D01*
Y163730D01*
D02*
G37*
G36*
X192540Y163730D02*
X181270D01*
Y152460D01*
X181651D01*
X184840Y153315D01*
X187700Y154965D01*
X190035Y157300D01*
X191685Y160160D01*
X192540Y163349D01*
Y163730D01*
D02*
G37*
G36*
X406500Y128000D02*
X393500D01*
X387000Y121500D01*
Y108500D01*
X393500Y102000D01*
X406500D01*
X413000Y108500D01*
Y121500D01*
X406500Y128000D01*
D02*
G37*
G36*
X296500D02*
X283500D01*
X277000Y121500D01*
Y108500D01*
X283500Y102000D01*
X296500D01*
X303000Y108500D01*
Y121500D01*
X296500Y128000D01*
D02*
G37*
G36*
X472168Y67540D02*
X471270D01*
Y41270D01*
X497540D01*
Y42168D01*
X496862Y46449D01*
X495522Y50572D01*
X493554Y54434D01*
X491006Y57941D01*
X487941Y61006D01*
X484434Y63554D01*
X480572Y65522D01*
X476449Y66862D01*
X472168Y67540D01*
D02*
G37*
G36*
X468730D02*
X467832D01*
X463551Y66862D01*
X459428Y65522D01*
X455566Y63554D01*
X452059Y61006D01*
X448994Y57941D01*
X446446Y54434D01*
X444478Y50572D01*
X443138Y46449D01*
X442460Y42168D01*
Y41270D01*
X468730D01*
Y67540D01*
D02*
G37*
G36*
X412900Y42900D02*
X387100D01*
Y39056D01*
X385576Y38239D01*
X384100Y37993D01*
X382138Y39954D01*
X379302Y41592D01*
X376138Y42440D01*
X375770D01*
Y30000D01*
Y17560D01*
X376138D01*
X379302Y18408D01*
X382138Y20045D01*
X384100Y22007D01*
X385576Y21760D01*
X387100Y20944D01*
Y17100D01*
X412900D01*
Y42900D01*
D02*
G37*
G36*
X253900D02*
X228100D01*
Y39056D01*
X226576Y38239D01*
X225100Y37993D01*
X223138Y39954D01*
X220302Y41592D01*
X217138Y42440D01*
X216770D01*
Y30000D01*
Y17560D01*
X217138D01*
X220302Y18408D01*
X223138Y20045D01*
X225100Y22007D01*
X226576Y21760D01*
X228100Y20944D01*
Y17100D01*
X253900D01*
Y42900D01*
D02*
G37*
G36*
X350698D02*
X347302D01*
X344021Y42021D01*
X341079Y40322D01*
X338677Y37921D01*
X336979Y34979D01*
X336100Y31698D01*
Y28302D01*
X336979Y25021D01*
X338677Y22079D01*
X341079Y19677D01*
X344021Y17979D01*
X347302Y17100D01*
X350698D01*
X353979Y17979D01*
X356921Y19677D01*
X359323Y22079D01*
X360300Y23772D01*
X363667Y23884D01*
X364546Y22362D01*
X366862Y20045D01*
X369698Y18408D01*
X372862Y17560D01*
X373230D01*
Y30000D01*
Y42440D01*
X372862D01*
X369698Y41592D01*
X366862Y39954D01*
X364546Y37638D01*
X363667Y36116D01*
X360300Y36228D01*
X359323Y37921D01*
X356921Y40322D01*
X353979Y42021D01*
X350698Y42900D01*
D02*
G37*
G36*
X191698D02*
X188302D01*
X185021Y42021D01*
X182079Y40322D01*
X179678Y37921D01*
X177979Y34979D01*
X177100Y31698D01*
Y28302D01*
X177979Y25021D01*
X179678Y22079D01*
X182079Y19677D01*
X185021Y17979D01*
X188302Y17100D01*
X191698D01*
X194979Y17979D01*
X197921Y19677D01*
X200323Y22079D01*
X201300Y23772D01*
X204667Y23884D01*
X205546Y22362D01*
X207862Y20045D01*
X210698Y18408D01*
X213862Y17560D01*
X214230D01*
Y30000D01*
Y42440D01*
X213862D01*
X210698Y41592D01*
X207862Y39954D01*
X205546Y37638D01*
X204667Y36116D01*
X201300Y36228D01*
X200323Y37921D01*
X197921Y40322D01*
X194979Y42021D01*
X191698Y42900D01*
D02*
G37*
G36*
X497540Y38730D02*
X471270D01*
Y12460D01*
X472168D01*
X476449Y13138D01*
X480572Y14478D01*
X484434Y16446D01*
X487941Y18994D01*
X491006Y22059D01*
X493554Y25566D01*
X495522Y29428D01*
X496862Y33551D01*
X497540Y37833D01*
Y38730D01*
D02*
G37*
G36*
X468730D02*
X442460D01*
Y37833D01*
X443138Y33551D01*
X444478Y29428D01*
X446446Y25566D01*
X448994Y22059D01*
X452059Y18994D01*
X455566Y16446D01*
X459428Y14478D01*
X463551Y13138D01*
X467832Y12460D01*
X468730D01*
Y38730D01*
D02*
G37*
G36*
X221660Y304280D02*
X212890D01*
Y299510D01*
X221660D01*
Y304280D01*
D02*
G37*
G36*
X258790Y288730D02*
X251270D01*
Y282460D01*
X258790D01*
Y288730D01*
D02*
G37*
G36*
X248730D02*
X241210D01*
Y282460D01*
X248730D01*
Y288730D01*
D02*
G37*
G36*
X64180Y283960D02*
X59410D01*
Y275190D01*
X64180D01*
Y283960D01*
D02*
G37*
G36*
X237851Y252540D02*
X237470D01*
Y241270D01*
X248740D01*
Y241651D01*
X247885Y244840D01*
X246234Y247700D01*
X243900Y250035D01*
X241040Y251685D01*
X237851Y252540D01*
D02*
G37*
G36*
X42168Y247540D02*
X41270D01*
Y221270D01*
X67540D01*
Y222167D01*
X66862Y226449D01*
X65522Y230572D01*
X63554Y234434D01*
X61006Y237941D01*
X57941Y241006D01*
X54434Y243554D01*
X50572Y245522D01*
X46449Y246862D01*
X42168Y247540D01*
D02*
G37*
G36*
X38730D02*
X37833D01*
X33551Y246862D01*
X29428Y245522D01*
X25566Y243554D01*
X22059Y241006D01*
X18994Y237941D01*
X16446Y234434D01*
X14478Y230572D01*
X13138Y226449D01*
X12460Y222167D01*
Y221270D01*
X38730D01*
Y247540D01*
D02*
G37*
G36*
X67540Y218730D02*
X41270D01*
Y192460D01*
X42168D01*
X46449Y193138D01*
X50572Y194478D01*
X54434Y196446D01*
X57941Y198994D01*
X61006Y202059D01*
X63554Y205566D01*
X65522Y209428D01*
X66862Y213551D01*
X67540Y217833D01*
Y218730D01*
D02*
G37*
G36*
X38730D02*
X12460D01*
Y217833D01*
X13138Y213551D01*
X14478Y209428D01*
X16446Y205566D01*
X18994Y202059D01*
X22059Y198994D01*
X25566Y196446D01*
X29428Y194478D01*
X33551Y193138D01*
X37833Y192460D01*
X38730D01*
Y218730D01*
D02*
G37*
G36*
X68730Y177540D02*
X68349D01*
X65160Y176685D01*
X62300Y175035D01*
X59966Y172700D01*
X58315Y169840D01*
X57460Y166651D01*
Y166270D01*
X68730D01*
Y177540D01*
D02*
G37*
G36*
Y163730D02*
X57460D01*
Y163349D01*
X58315Y160160D01*
X59966Y157300D01*
X62300Y154965D01*
X65160Y153315D01*
X68349Y152460D01*
X68730D01*
Y163730D01*
D02*
G37*
G36*
X76500Y128000D02*
X63500D01*
X57000Y121500D01*
Y108500D01*
X63500Y102000D01*
X76500D01*
X83000Y108500D01*
Y121500D01*
X76500Y128000D01*
D02*
G37*
%LPD*%
D32*
X38545Y703545D02*
G03*
X40000Y707071I-3545J3526D01*
G01*
X21455Y686455D02*
G03*
X20000Y682929I3545J-3526D01*
G01*
X140000Y680429D02*
G03*
X138545Y683955I-5000J0D01*
G01*
X120000Y704571D02*
G03*
X121455Y701045I5000J0D01*
G01*
X161455Y683955D02*
G03*
X160000Y680429I3545J-3526D01*
G01*
X178545Y701045D02*
G03*
X180000Y704571I-3545J3526D01*
G01*
X156035Y963536D02*
G03*
X157500Y967071I-3535J3535D01*
G01*
X162500Y1020000D02*
G03*
X157500Y1015000I0J-5000D01*
G01*
X358535Y1018536D02*
G03*
X355000Y1020000I-3535J-3535D01*
G01*
X81035Y921036D02*
G03*
X82500Y924571I-3535J3535D01*
G01*
X269776Y392724D02*
G03*
X273321Y391250I3545J3526D01*
G01*
X269524Y392976D02*
G03*
X265979Y394450I-3545J-3526D01*
G01*
X340850Y690000D02*
G03*
X340000Y687227I4150J-2789D01*
G01*
X495000Y138535D02*
G03*
X500000Y143535I0J5000D01*
G01*
X205607Y138535D02*
G03*
X202071Y137071I0J-5000D01*
G01*
X110655Y257634D02*
G03*
X109200Y254107I3545J-3526D01*
G01*
X127495Y274473D02*
G03*
X128950Y278000I-3545J3526D01*
G01*
X179834Y276592D02*
G03*
X181248Y273107I5000J0D01*
G01*
X210800Y240669D02*
G03*
X209386Y244154I-5000J0D01*
G01*
X185400Y249085D02*
G03*
X183945Y252611I-5000J0D01*
G01*
X167050Y271577D02*
G03*
X168505Y268050I5000J0D01*
G01*
X160000Y255872D02*
G03*
X158545Y259399I-5000J0D01*
G01*
X154350Y265664D02*
G03*
X155807Y262136I5000J0D01*
G01*
X136055Y245514D02*
G03*
X134600Y241988I3545J-3526D01*
G01*
X140041Y249500D02*
G03*
X141496Y253027I-3545J3526D01*
G01*
X277187Y247187D02*
G03*
X278652Y250723I-3535J3535D01*
G01*
X280116Y309119D02*
G03*
X278652Y305583I3535J-3535D01*
G01*
X303068Y330000D02*
G03*
X299542Y328545I0J-5000D01*
G01*
X301404Y310000D02*
G03*
X297878Y308545I0J-5000D01*
G01*
X291455Y302122D02*
G03*
X290000Y298596I3545J-3526D01*
G01*
X288545Y242429D02*
G03*
X290000Y245955I-3545J3526D01*
G01*
X254045Y210000D02*
G03*
X257571Y211455I0J5000D01*
G01*
X90265Y225000D02*
G03*
X95265Y220000I5000J0D01*
G01*
X77992Y215000D02*
G03*
X82992Y210000I5000J0D01*
G01*
X235000Y549200D02*
G03*
X230000Y544200I0J-5000D01*
G01*
X210000D02*
G03*
X205000Y549200I-5000J0D01*
G01*
X70000Y544200D02*
G03*
X65000Y549200I-5000J0D01*
G01*
X95000D02*
G03*
X90000Y544200I0J-5000D01*
G01*
X264576Y451040D02*
G03*
X269574Y455889I0J5000D01*
G01*
X185000Y451040D02*
G03*
X180000Y446040I0J-5000D01*
G01*
X133950Y436320D02*
G03*
X128950Y431320I0J-5000D01*
G01*
X175000Y436320D02*
G03*
X180000Y441320I0J5000D01*
G01*
X165000Y446868D02*
G03*
X170000Y451868I0J5000D01*
G01*
X121250Y446868D02*
G03*
X116250Y441868I0J-5000D01*
G01*
X90850Y449897D02*
G03*
X85850Y454897I-5000J0D01*
G01*
X30000Y459897D02*
G03*
X35000Y454897I5000J0D01*
G01*
X108550Y454976D02*
G03*
X103550Y449976I0J-5000D01*
G01*
X125000Y454976D02*
G03*
X130000Y459976I0J5000D01*
G01*
X306509Y465800D02*
G03*
X310000Y469290I0J3491D01*
G01*
X306723Y465586D02*
G03*
X306509Y465800I-214J0D01*
G01*
X326509Y446227D02*
G03*
X327394Y445342I885J0D01*
G01*
X330000Y530000D02*
G03*
X310000Y510000I0J-20000D01*
G01*
X336000Y522000D02*
G03*
X324000Y510000I0J-12000D01*
G01*
X326509Y490491D02*
G03*
X324000Y493000I-2509J0D01*
G01*
X20000Y544430D02*
G03*
X40630Y523800I20630J0D01*
G01*
X160000Y544430D02*
G03*
X180630Y523800I20630J0D01*
G01*
X119370D02*
G03*
X140000Y544430I0J20630D01*
G01*
X259370Y523800D02*
G03*
X280000Y544430I0J20630D01*
G01*
X310000Y977929D02*
G03*
X308545Y981455I-5000J0D01*
G01*
X301455Y988545D02*
G03*
X297929Y990000I-3526J-3545D01*
G01*
X21455Y686455D02*
X38545Y703545D01*
X40000Y707071D02*
Y720000D01*
X20000Y650000D02*
Y682929D01*
X120000Y704571D02*
Y720000D01*
X121455Y701045D02*
X138545Y683955D01*
X140000Y650000D02*
Y680429D01*
X161455Y683955D02*
X178545Y701045D01*
X180000Y704571D02*
Y720000D01*
X160000Y650000D02*
Y680429D01*
X157500Y967071D02*
Y1015000D01*
X162500Y1020000D02*
X355000D01*
X132500Y940000D02*
X156035Y963536D01*
X182500Y930000D02*
Y965000D01*
Y930000D02*
X210000Y902500D01*
X207500Y990000D02*
X226758Y970742D01*
Y817602D02*
Y970742D01*
X57500Y990000D02*
X90000D01*
X105000Y975000D01*
Y920000D02*
Y975000D01*
X84369Y899369D02*
X105000Y920000D01*
X84369Y835631D02*
Y899369D01*
X82500Y924571D02*
Y965000D01*
X70000Y910000D02*
X81035Y921036D01*
X70000Y820000D02*
Y910000D01*
X404491Y708184D02*
X406757Y705918D01*
X404491Y708184D02*
Y715509D01*
X395000Y725000D02*
X404491Y715509D01*
X356745Y617916D02*
Y722504D01*
X375918Y705918D02*
X386757D01*
X370000Y700000D02*
X375918Y705918D01*
X222930Y394450D02*
X265979D01*
X273321Y391250D02*
X310000D01*
X269524Y392976D02*
X269776Y392724D01*
X70000Y165000D02*
X180000D01*
X310000Y630000D02*
Y780000D01*
X20000Y740000D02*
X40000D01*
X310000Y560000D02*
X310000Y560000D01*
X468730Y548730D02*
X470000Y550000D01*
X468750D02*
X470000D01*
X310000Y830000D02*
Y977929D01*
X340000Y619295D02*
Y687227D01*
X205607Y138535D02*
X495000D01*
X500000Y143535D02*
Y460000D01*
X180000Y115000D02*
X202071Y137071D01*
X500000Y460000D02*
Y770000D01*
X470000Y460000D02*
X500000D01*
X230000Y270000D02*
X250000D01*
X210000D02*
X230000D01*
X20000Y620000D02*
Y650000D01*
X20800Y650800D01*
X280000Y650000D02*
Y680000D01*
X259370Y650800D02*
X279200D01*
X280000Y650000D01*
X139200Y650800D02*
X140000Y650000D01*
X119370Y650800D02*
X139200D01*
X160000Y650000D02*
X179830D01*
X180630Y650800D01*
X100000Y720000D02*
X120000D01*
X180000D02*
X200000D01*
X160000Y740000D02*
X180000D01*
X260000D02*
X280000D01*
X240000Y720000D02*
X260000D01*
X250000Y760000D02*
Y772000D01*
X240000Y750000D02*
X250000Y760000D01*
X240000Y740000D02*
Y750000D01*
X190000Y760000D02*
Y772000D01*
Y760000D02*
X200000Y750000D01*
Y740000D02*
Y750000D01*
X110000Y760000D02*
Y772000D01*
X100000Y750000D02*
X110000Y760000D01*
X100000Y740000D02*
Y750000D01*
X50000Y772000D02*
X50000Y772000D01*
X50000Y760000D02*
Y772000D01*
X60000Y740000D02*
Y750000D01*
X50000Y760000D02*
X60000Y750000D01*
X40000Y720000D02*
X60000D01*
X120000Y740000D02*
X140000D01*
X280000Y620000D02*
Y650000D01*
X260000Y700000D02*
Y720000D01*
Y700000D02*
X280000Y680000D01*
X140000Y620000D02*
Y650000D01*
X250000Y290000D02*
Y300000D01*
X222930Y305550D02*
X244450D01*
X250000Y300000D01*
X205763Y274237D02*
X210000Y270000D01*
X205150Y285230D02*
X205763Y284617D01*
Y274237D02*
Y284617D01*
X128950Y278000D02*
Y285230D01*
X110655Y257634D02*
X127495Y274473D01*
X109200Y240000D02*
Y254107D01*
X210800Y240000D02*
Y240669D01*
X181248Y273107D02*
X209386Y244154D01*
X179750Y285230D02*
X179834Y280230D01*
Y276592D02*
Y280230D01*
X185400Y240000D02*
Y249085D01*
X168505Y268050D02*
X183945Y252611D01*
X167050Y271577D02*
Y285230D01*
X155807Y262136D02*
X158545Y259399D01*
X154350Y265664D02*
Y285230D01*
X160000Y240000D02*
Y255872D01*
X134600Y240000D02*
Y241988D01*
X136055Y245514D02*
X140041Y249500D01*
X141496Y253027D02*
X141626Y280230D01*
X141650Y285230D01*
X280116Y309119D02*
X299542Y328545D01*
X278652Y250723D02*
Y305583D01*
X250000Y220000D02*
X277187Y247187D01*
X303068Y330000D02*
X310000D01*
X291455Y302122D02*
X297878Y308545D01*
X301404Y310000D02*
X310000D01*
X290000Y245955D02*
Y298596D01*
X257571Y211455D02*
X288545Y242429D01*
X82992Y210000D02*
X254045D01*
X90265Y280230D02*
X90850Y285230D01*
X90265Y225000D02*
Y280230D01*
X95265Y220000D02*
X250000D01*
X77992Y215000D02*
Y285072D01*
X290000Y350000D02*
X310000D01*
X283650Y343650D02*
X290000Y350000D01*
X222930Y343650D02*
X283650D01*
X290000Y370000D02*
X310000D01*
X276350Y356350D02*
X290000Y370000D01*
X222930Y356350D02*
X276350D01*
X333750Y313750D02*
X394000Y374000D01*
X332500Y313750D02*
X333750D01*
X394000Y374000D02*
Y507620D01*
X330000Y311250D02*
X332500Y313750D01*
X330000Y310000D02*
Y311250D01*
X333750Y333750D02*
X386000Y386000D01*
X330000Y330000D02*
Y331250D01*
X386000Y386000D02*
Y507620D01*
X332500Y333750D02*
X333750D01*
X330000Y331250D02*
X332500Y333750D01*
X333750Y353750D02*
X378000Y398000D01*
Y507620D01*
X370000Y410000D02*
Y507620D01*
X333750Y373750D02*
X370000Y410000D01*
Y507620D02*
X370079Y507541D01*
X330000Y351250D02*
X332500Y353750D01*
X330000Y350000D02*
Y351250D01*
X332500Y353750D02*
X333750D01*
X333750Y393750D02*
X362000Y422000D01*
X361548Y507168D02*
X362000Y507620D01*
X332500Y393750D02*
X333750D01*
X362000Y422000D02*
Y507620D01*
X330000Y371250D02*
X332500Y373750D01*
X333750D01*
X330000Y370000D02*
Y371250D01*
X330000Y391250D02*
X332500Y393750D01*
X330000Y390000D02*
Y391250D01*
X250000Y490000D02*
X270000D01*
X230000Y470000D02*
X250000D01*
X230000Y490000D02*
Y544200D01*
X235000Y549200D02*
X259370D01*
X210000Y490000D02*
Y544200D01*
X180630Y549200D02*
X205000D01*
X190000Y470000D02*
X210000D01*
X170000Y490000D02*
X190000D01*
X110000D02*
X130000D01*
X110000Y490000D02*
X110000Y490000D01*
X90000Y470000D02*
X110000D01*
X90000Y470000D02*
X90000Y470000D01*
X70000Y490000D02*
Y544200D01*
X40630Y549200D02*
X65000D01*
X90000Y490000D02*
X90000Y492500D01*
Y544200D01*
X95000Y549200D02*
X119370D01*
X50000Y470000D02*
X70000D01*
X70000Y470000D01*
X30000Y490000D02*
X50000D01*
X185000Y451040D02*
X264576D01*
X269925Y467500D02*
X270000Y470000D01*
X269574Y455889D02*
X269925Y467500D01*
X180000Y441320D02*
Y446040D01*
X133950Y436320D02*
X175000D01*
X128950Y414770D02*
Y431320D01*
X116250Y414770D02*
Y441868D01*
X121250Y446868D02*
X165000D01*
X170000Y451868D02*
Y470000D01*
X35000Y454897D02*
X85850D01*
X90850Y414770D02*
Y449897D01*
X30000Y459897D02*
Y470000D01*
X130000Y459976D02*
Y470000D01*
X108550Y454976D02*
X125000D01*
X103550Y414770D02*
Y449976D01*
X306723Y445641D02*
Y465586D01*
X326509Y465800D02*
Y490491D01*
Y446227D02*
Y465800D01*
X310000Y493000D02*
Y510000D01*
X324000Y493000D02*
Y510000D01*
X310000Y469290D02*
Y493000D01*
X336000Y522000D02*
X347620D01*
X330000Y530000D02*
X347620D01*
X20800Y650800D02*
X40630D01*
X20000Y544430D02*
Y600000D01*
X160000Y544430D02*
Y600000D01*
Y620000D02*
Y650000D01*
X140000Y544430D02*
Y600000D01*
X280000Y544430D02*
Y600000D01*
X255803Y772000D02*
X257303Y770500D01*
X250000Y772000D02*
X255803D01*
X358535Y1018536D02*
X360000Y1017071D01*
X330000Y940000D02*
X350000D01*
X360000Y950000D01*
Y1017071D01*
X255000Y990000D02*
X297929D01*
X301455Y988545D02*
X308545Y981455D01*
X84369Y835631D02*
X104000Y816000D01*
X330000Y578000D02*
X347620D01*
X322000D02*
X330000D01*
X140000Y850000D02*
X142084D01*
X137916D02*
X140000D01*
X110000Y848000D02*
X135916D01*
X142084Y850000D02*
X144084Y848000D01*
X135916D02*
X137916Y850000D01*
X144084Y848000D02*
X190000D01*
X310000Y590000D02*
Y610000D01*
Y590000D02*
X322000Y578000D01*
X250000Y848000D02*
Y880000D01*
X50000D02*
X50000Y880000D01*
Y848000D02*
Y880000D01*
X490000Y780000D02*
X500000Y770000D01*
X460000Y780000D02*
X490000D01*
X457916D02*
X460000D01*
X430000Y775500D02*
X453416D01*
X457916Y780000D01*
X462141Y740000D02*
X465941Y736200D01*
X430000Y740000D02*
X462141D01*
X465941Y736200D02*
X470000D01*
Y460000D02*
Y530000D01*
X480000Y380000D02*
X490000Y390000D01*
X485400Y434600D02*
X490000Y430000D01*
Y390000D02*
Y430000D01*
X470000Y434600D02*
X485400D01*
X437255Y517125D02*
Y521500D01*
Y517125D02*
X442907Y511473D01*
X448527D02*
X450000Y510000D01*
X432380Y522000D02*
X436755D01*
X437255Y521500D01*
X442907Y511473D02*
X448527D01*
X386000Y592380D02*
Y634750D01*
X386527Y613011D02*
X386818Y612721D01*
X398815D01*
X410000Y390000D02*
Y507620D01*
X420000Y380000D02*
X480000D01*
X410000Y390000D02*
X420000Y380000D01*
X418000Y462929D02*
Y507620D01*
X420929Y460000D02*
X444600D01*
X418000Y462929D02*
X420929Y460000D01*
X432380Y530000D02*
X470000D01*
X347620Y554000D02*
X376000D01*
X392000Y538000D01*
X400000Y530000D02*
X432380D01*
X392000Y538000D02*
X400000Y530000D01*
X347620Y538000D02*
X392000D01*
X312000D02*
X347620D01*
X310000Y540000D02*
X312000Y538000D01*
X370000Y684992D02*
Y700000D01*
Y620000D02*
Y684992D01*
X386747D01*
X469592D02*
X470000Y685400D01*
X406747Y684992D02*
X469592D01*
X430155Y633782D02*
X430973Y634600D01*
X470000D01*
X429187Y634750D02*
X430155Y633782D01*
X406000Y634750D02*
X429187D01*
X356745Y617916D02*
X370000Y604661D01*
X361500Y592880D02*
Y597795D01*
Y592880D02*
X362000Y592380D01*
X340000Y619295D02*
X361500Y597795D01*
X370000Y592380D02*
Y604661D01*
X370000Y620000D02*
X378000Y612000D01*
Y592380D02*
Y612000D01*
X386030Y634780D02*
Y659330D01*
X386747Y660047D01*
X188503Y770503D02*
X190000Y772000D01*
X280000Y850000D02*
Y965000D01*
X83266Y805612D02*
X125078D01*
X71654Y794000D02*
X83266Y805612D01*
X50000Y794000D02*
X71654D01*
X125078Y805612D02*
X146004Y826538D01*
X144540Y794000D02*
X144765Y794225D01*
X110000Y794000D02*
X144540D01*
X211529D02*
X222453Y804924D01*
X354924D01*
X380000Y830000D01*
X190000Y794000D02*
X211529D01*
X380000Y830000D02*
Y965000D01*
X229687Y814673D02*
X248673D01*
X226758Y817602D02*
X229687Y814673D01*
X430000Y830000D02*
Y965000D01*
X405000Y990000D02*
X430000Y965000D01*
X394000Y794000D02*
X430000Y830000D01*
X250000Y794000D02*
X394000D01*
X248673Y814673D02*
X250000Y816000D01*
X207071Y815854D02*
X210000Y818783D01*
Y902500D01*
X188523Y815854D02*
X207071D01*
X104000Y816000D02*
X110000D01*
X50000D02*
X66000D01*
X70000Y820000D01*
D33*
X406757Y705918D02*
D03*
X386757D02*
D03*
X310000Y390000D02*
D03*
X330000D02*
D03*
Y370000D02*
D03*
X310000D02*
D03*
X330000Y350000D02*
D03*
X310000D02*
D03*
X330000Y330000D02*
D03*
X310000D02*
D03*
X330000Y310000D02*
D03*
X310000D02*
D03*
X386747Y660047D02*
D03*
X406747D02*
D03*
X386000Y634750D02*
D03*
X406000D02*
D03*
X386747Y684992D02*
D03*
X406747D02*
D03*
X306509Y465800D02*
D03*
X326509D02*
D03*
D34*
X30000Y470000D02*
D03*
Y490000D02*
D03*
X50000D02*
D03*
Y470000D02*
D03*
X190000Y490000D02*
D03*
Y470000D02*
D03*
X110000Y490000D02*
D03*
Y470000D02*
D03*
X250000Y490000D02*
D03*
Y470000D02*
D03*
X20000Y620000D02*
D03*
Y600000D02*
D03*
X280000Y620000D02*
D03*
Y600000D02*
D03*
X160000Y620000D02*
D03*
Y600000D02*
D03*
X140000Y620000D02*
D03*
Y600000D02*
D03*
X100000Y720000D02*
D03*
Y740000D02*
D03*
X60000Y720000D02*
D03*
Y740000D02*
D03*
X240000D02*
D03*
Y720000D02*
D03*
X200000Y740000D02*
D03*
Y720000D02*
D03*
X280000D02*
D03*
Y740000D02*
D03*
X160000Y720000D02*
D03*
Y740000D02*
D03*
X140000Y720000D02*
D03*
Y740000D02*
D03*
X20000Y720000D02*
D03*
Y740000D02*
D03*
X260000D02*
D03*
Y720000D02*
D03*
X180000D02*
D03*
Y740000D02*
D03*
X120000D02*
D03*
Y720000D02*
D03*
X40000D02*
D03*
Y740000D02*
D03*
X230000Y470000D02*
D03*
Y490000D02*
D03*
X210000Y470000D02*
D03*
Y490000D02*
D03*
X90000Y470000D02*
D03*
Y490000D02*
D03*
X70000Y470000D02*
D03*
Y490000D02*
D03*
X270000Y490000D02*
D03*
Y470000D02*
D03*
X130000Y490000D02*
D03*
Y470000D02*
D03*
X170000Y490000D02*
D03*
Y470000D02*
D03*
X470000Y530000D02*
D03*
Y550000D02*
D03*
X327453Y425679D02*
D03*
Y445679D02*
D03*
X306723Y425641D02*
D03*
Y445641D02*
D03*
X430155Y653782D02*
D03*
Y633782D02*
D03*
X310000Y610000D02*
D03*
Y630000D02*
D03*
Y540000D02*
D03*
Y560000D02*
D03*
X250000Y270000D02*
D03*
Y290000D02*
D03*
D35*
X324000Y510000D02*
D03*
Y493000D02*
D03*
X310000D02*
D03*
Y510000D02*
D03*
D36*
X217850Y285230D02*
D03*
X205150D02*
D03*
X192450D02*
D03*
X179750D02*
D03*
X167050D02*
D03*
X154350D02*
D03*
X141650D02*
D03*
X128950D02*
D03*
X116250D02*
D03*
X103550D02*
D03*
X90850D02*
D03*
X78150D02*
D03*
X65450D02*
D03*
Y414770D02*
D03*
X78150D02*
D03*
X90850D02*
D03*
X103550D02*
D03*
X116250D02*
D03*
X128950D02*
D03*
X141650D02*
D03*
X154350D02*
D03*
X167050D02*
D03*
X179750D02*
D03*
X192450D02*
D03*
X205150D02*
D03*
X217850D02*
D03*
D37*
X222930Y305550D02*
D03*
Y318250D02*
D03*
Y330950D02*
D03*
Y343650D02*
D03*
Y356350D02*
D03*
Y369050D02*
D03*
Y381750D02*
D03*
Y394450D02*
D03*
D38*
X430000Y740000D02*
D03*
Y775500D02*
D03*
D39*
X362000Y592380D02*
D03*
X370000D02*
D03*
X378000D02*
D03*
X386000D02*
D03*
X394000D02*
D03*
X402000D02*
D03*
X410000D02*
D03*
X418000D02*
D03*
Y507620D02*
D03*
X410000D02*
D03*
X402000D02*
D03*
X394000D02*
D03*
X386000D02*
D03*
X378000D02*
D03*
X370000D02*
D03*
X362000D02*
D03*
D40*
X432380Y578000D02*
D03*
Y570000D02*
D03*
Y562000D02*
D03*
Y554000D02*
D03*
Y546000D02*
D03*
Y538000D02*
D03*
Y530000D02*
D03*
Y522000D02*
D03*
X347620D02*
D03*
Y530000D02*
D03*
Y538000D02*
D03*
Y546000D02*
D03*
Y554000D02*
D03*
Y562000D02*
D03*
Y570000D02*
D03*
Y578000D02*
D03*
D41*
X250000Y848000D02*
D03*
Y816000D02*
D03*
Y794000D02*
D03*
Y772000D02*
D03*
X190000D02*
D03*
Y794000D02*
D03*
Y816000D02*
D03*
Y848000D02*
D03*
X110000D02*
D03*
Y816000D02*
D03*
Y794000D02*
D03*
Y772000D02*
D03*
X50000D02*
D03*
Y794000D02*
D03*
Y816000D02*
D03*
Y848000D02*
D03*
D42*
X57500Y940000D02*
D03*
X207500D02*
D03*
X132500D02*
D03*
X57500Y990000D02*
D03*
X207500D02*
D03*
X132500D02*
D03*
X82500Y965000D02*
D03*
X182500D02*
D03*
Y1090000D02*
D03*
X82500D02*
D03*
X255000Y940000D02*
D03*
X405000D02*
D03*
X330000D02*
D03*
X255000Y990000D02*
D03*
X405000D02*
D03*
X330000D02*
D03*
X280000Y965000D02*
D03*
X380000D02*
D03*
Y1090000D02*
D03*
X280000D02*
D03*
D43*
X40000Y220000D02*
D03*
X470000Y40000D02*
D03*
Y1060000D02*
D03*
D44*
X349000Y30000D02*
D03*
X374500D02*
D03*
X190000D02*
D03*
X215500D02*
D03*
D45*
X400000D02*
D03*
X241000D02*
D03*
D46*
X70000Y165000D02*
D03*
X400000D02*
D03*
X210800Y240000D02*
D03*
X185400D02*
D03*
X134600D02*
D03*
X160000D02*
D03*
X236200D02*
D03*
X290000Y165000D02*
D03*
X470000Y736200D02*
D03*
Y660000D02*
D03*
Y634600D02*
D03*
Y685400D02*
D03*
Y710800D02*
D03*
X455000Y320000D02*
D03*
X180000Y165000D02*
D03*
D47*
X70000Y115000D02*
D03*
X400000D02*
D03*
X290000D02*
D03*
X180000D02*
D03*
D48*
X109200Y240000D02*
D03*
D49*
X180630Y676200D02*
D03*
X40630D02*
D03*
D50*
X180630Y650800D02*
D03*
Y625400D02*
D03*
Y600000D02*
D03*
Y574600D02*
D03*
Y549200D02*
D03*
Y523800D02*
D03*
X259370D02*
D03*
Y549200D02*
D03*
Y574600D02*
D03*
Y600000D02*
D03*
Y625400D02*
D03*
Y650800D02*
D03*
Y676200D02*
D03*
X40630Y650800D02*
D03*
Y625400D02*
D03*
Y600000D02*
D03*
Y574600D02*
D03*
Y549200D02*
D03*
Y523800D02*
D03*
X119370D02*
D03*
Y549200D02*
D03*
Y574600D02*
D03*
Y600000D02*
D03*
Y625400D02*
D03*
Y650800D02*
D03*
Y676200D02*
D03*
X470000Y460000D02*
D03*
Y409200D02*
D03*
Y434600D02*
D03*
X444600D02*
D03*
Y409200D02*
D03*
D51*
X470000Y609200D02*
D03*
D52*
X430000Y320000D02*
D03*
D53*
X444600Y460000D02*
D03*
D54*
X395000Y725000D02*
D03*
X356745Y722504D02*
D03*
X269776Y392724D02*
D03*
X310000Y780000D02*
D03*
X220000Y760000D02*
D03*
X440000Y600000D02*
D03*
X80000Y760000D02*
D03*
X150000Y700000D02*
D03*
X440000Y670000D02*
D03*
X345954Y425676D02*
D03*
X310000Y830000D02*
D03*
X340850Y690000D02*
D03*
X230000Y270000D02*
D03*
X140000Y850000D02*
D03*
X250000Y880000D02*
D03*
X50000D02*
D03*
X460000Y780000D02*
D03*
X450000Y510000D02*
D03*
X398815Y612721D02*
D03*
X280000Y850000D02*
D03*
X146004Y826538D02*
D03*
X144765Y794225D02*
D03*
M02*
